<svg width="48" height="49" viewBox="0 0 48 49" fill="none" xmlns="http://www.w3.org/2000/svg">
<circle cx="24" cy="24.5" r="24" fill="white"/>
<path d="M30.0469 29.27C29.6369 29.27 29.2969 28.93 29.2969 28.52V20.06L17.5769 31.78C17.4269 31.93 17.2369 32 17.0469 32C16.8569 32 16.6669 31.93 16.5169 31.78C16.2269 31.49 16.2269 31.01 16.5169 30.72L28.2369 19H19.7769C19.3669 19 19.0269 18.66 19.0269 18.25C19.0269 17.84 19.3669 17.5 19.7769 17.5H30.0469C30.1469 17.5 30.2369 17.52 30.3369 17.56C30.5169 17.63 30.6669 17.78 30.7369 17.96C30.7769 18.06 30.7969 18.15 30.7969 18.25V28.52C30.7969 28.93 30.4569 29.27 30.0469 29.27Z" fill="#B47A4C" stroke="#B47A4C"/>
</svg>
