<svg width="209" height="150" viewBox="0 0 209 150" fill="none" xmlns="http://www.w3.org/2000/svg">
<path d="M59.6572 74.5715C59.6572 82.8084 52.9798 89.4858 44.7429 89.4858C36.5059 89.4858 29.8286 82.8084 29.8286 74.5715C29.8286 66.3345 36.5059 59.6572 44.7429 59.6572C52.9798 59.6572 59.6572 66.3345 59.6572 74.5715Z" fill="white"/>
<path d="M29.8286 74.5715C29.8286 82.8084 23.1512 89.4858 14.9143 89.4858C6.67736 89.4858 0 82.8084 0 74.5715C0 66.3345 6.67736 59.6572 14.9143 59.6572C23.1512 59.6572 29.8286 66.3345 29.8286 74.5715Z" fill="white"/>
<path d="M59.6572 44.7429C59.6572 52.9798 52.9798 59.6572 44.7429 59.6572C36.5059 59.6572 29.8286 52.9798 29.8286 44.7429C29.8286 36.5059 36.5059 29.8286 44.7429 29.8286C52.9798 29.8286 59.6572 36.5059 59.6572 44.7429Z" fill="white"/>
<path d="M59.6572 14.9143C59.6572 23.1512 52.9798 29.8286 44.7429 29.8286C36.5059 29.8286 29.8286 23.1512 29.8286 14.9143C29.8286 6.67736 36.5059 0 44.7429 0C52.9798 0 59.6572 6.67736 59.6572 14.9143Z" fill="white"/>
<path d="M89.4858 14.9143C89.4858 23.1512 82.8084 29.8286 74.5715 29.8286C66.3345 29.8286 59.6572 23.1512 59.6572 14.9143C59.6572 6.67736 66.3345 0 74.5715 0C82.8084 0 89.4858 6.67736 89.4858 14.9143Z" fill="white"/>
<path d="M59.6572 104.4C59.6572 112.637 52.9798 119.314 44.7429 119.314C36.5059 119.314 29.8286 112.637 29.8286 104.4C29.8286 96.1631 36.5059 89.4858 44.7429 89.4858C52.9798 89.4858 59.6572 96.1631 59.6572 104.4Z" fill="white"/>
<path d="M59.6572 134.229C59.6572 142.466 52.9798 149.143 44.7429 149.143C36.5059 149.143 29.8286 142.466 29.8286 134.229C29.8286 125.992 36.5059 119.314 44.7429 119.314C52.9798 119.314 59.6572 125.992 59.6572 134.229Z" fill="white"/>
<path d="M89.4858 134.229C89.4858 142.466 82.8084 149.143 74.5715 149.143C66.3345 149.143 59.6572 142.466 59.6572 134.229C59.6572 125.992 66.3345 119.314 74.5715 119.314C82.8084 119.314 89.4858 125.992 89.4858 134.229Z" fill="white"/>
<path d="M149.143 74.5715C149.143 82.8084 155.82 89.4858 164.057 89.4858C172.294 89.4858 178.971 82.8084 178.971 74.5715C178.971 66.3345 172.294 59.6572 164.057 59.6572C155.82 59.6572 149.143 66.3345 149.143 74.5715Z" fill="white"/>
<path d="M178.971 74.5715C178.971 82.8084 185.649 89.4858 193.886 89.4858C202.123 89.4858 208.8 82.8084 208.8 74.5715C208.8 66.3345 202.123 59.6572 193.886 59.6572C185.649 59.6572 178.971 66.3345 178.971 74.5715Z" fill="white"/>
<path d="M149.143 44.7429C149.143 52.9798 155.82 59.6572 164.057 59.6572C172.294 59.6572 178.971 52.9798 178.971 44.7429C178.971 36.5059 172.294 29.8286 164.057 29.8286C155.82 29.8286 149.143 36.5059 149.143 44.7429Z" fill="white"/>
<path d="M149.143 14.9143C149.143 23.1512 155.82 29.8286 164.057 29.8286C172.294 29.8286 178.971 23.1512 178.971 14.9143C178.971 6.67736 172.294 0 164.057 0C155.82 0 149.143 6.67736 149.143 14.9143Z" fill="white"/>
<path d="M119.314 14.9143C119.314 23.1512 125.992 29.8286 134.229 29.8286C142.465 29.8286 149.143 23.1512 149.143 14.9143C149.143 6.67736 142.465 0 134.229 0C125.992 0 119.314 6.67736 119.314 14.9143Z" fill="white"/>
<path d="M149.143 104.4C149.143 112.637 155.82 119.314 164.057 119.314C172.294 119.314 178.971 112.637 178.971 104.4C178.971 96.1631 172.294 89.4858 164.057 89.4858C155.82 89.4858 149.143 96.1631 149.143 104.4Z" fill="white"/>
<path d="M149.143 134.229C149.143 142.466 155.82 149.143 164.057 149.143C172.294 149.143 178.971 142.466 178.971 134.229C178.971 125.992 172.294 119.314 164.057 119.314C155.82 119.314 149.143 125.992 149.143 134.229Z" fill="white"/>
<path d="M119.314 134.229C119.314 142.466 125.992 149.143 134.229 149.143C142.465 149.143 149.143 142.466 149.143 134.229C149.143 125.992 142.465 119.314 134.229 119.314C125.992 119.314 119.314 125.992 119.314 134.229Z" fill="white"/>
</svg>
