<svg width="19" height="25" viewBox="0 0 19 25" fill="none" xmlns="http://www.w3.org/2000/svg">
<path fill-rule="evenodd" clip-rule="evenodd" d="M0.909661 0.966744C0.763522 1.01751 0.491113 1.20235 0.392085 1.318C0.359258 1.3564 0.282206 1.48967 0.220857 1.6142L0.109375 1.84061V12.5047V23.1688L0.216416 23.3952C0.338931 23.6543 0.551043 23.8753 0.790259 23.9931C0.947432 24.0705 1.36992 24.0744 9.49397 24.0744C17.618 24.0744 18.0405 24.0705 18.1977 23.9931C18.4369 23.8753 18.649 23.6543 18.7715 23.3952L18.8786 23.1688V12.5047V1.84061L18.7715 1.6142C18.649 1.35513 18.4369 1.13411 18.1977 1.01628C18.0407 0.938986 17.6106 0.934548 9.53975 0.927031C3.69185 0.921552 1.00425 0.93396 0.909661 0.966744ZM16.4988 5.53116V7.84058H9.47108H2.44339V5.56136C2.44339 4.30775 2.45713 3.26851 2.47393 3.25194C2.49068 3.23532 5.65314 3.22174 9.50161 3.22174H16.4988V5.53116ZM4.77832 11.35V12.5047H3.63375H2.48917V11.35V10.1953H3.63375H4.77832V11.35ZM10.6385 11.35V12.5047H9.47108H8.30361V11.35V10.1953H9.47108H10.6385V11.35ZM16.4988 11.35V12.5047H15.3313H14.1638V11.35V10.1953H15.3313H16.4988V11.35ZM4.77832 15.9688V17.1235H3.63375H2.48917V15.9688V14.8141H3.63375H4.77832V15.9688ZM10.6385 15.9688V17.1235H9.47108H8.30361V15.999C8.30361 15.3805 8.31735 14.8609 8.33415 14.8443C8.35091 14.8277 8.87626 14.8141 9.50161 14.8141H10.6385V15.9688ZM16.4988 18.2783V21.7424H15.3313H14.1638V18.2783V14.8141H15.3313H16.4988V18.2783ZM4.77832 20.6103V21.7424H3.63375H2.48917V20.6103V19.4782H3.63375H4.77832V20.6103ZM10.6385 20.6103V21.7424H9.47108H8.30361V20.6103V19.4782H9.47108H10.6385V20.6103Z" fill="#BBBBC7"/>
</svg>
