<svg width="21" height="25" viewBox="0 0 21 25" fill="none" xmlns="http://www.w3.org/2000/svg">
<path fill-rule="evenodd" clip-rule="evenodd" d="M5.73657 3.68151C3.15387 5.19675 1.04471 6.45279 1.04961 6.47273C1.05446 6.49262 1.84443 6.97039 2.80504 7.53444L4.37062 8.45363C4.48235 8.51923 4.62087 8.51904 4.73242 8.45313V8.45313C4.83181 8.3944 6.94613 7.15414 9.43091 5.697C11.9157 4.23981 13.9487 3.02826 13.9487 3.00462C13.9487 2.96573 10.5212 0.924064 10.4588 0.925782C10.4443 0.926189 8.31927 2.16626 5.73657 3.68151ZM11.1112 6.86428C8.52237 8.38377 6.40422 9.63859 6.40422 9.65274C6.40422 9.66689 6.4904 9.72101 6.59571 9.77301C6.70102 9.82496 7.60573 10.3479 8.60614 10.935C9.60655 11.5221 10.4417 12.0024 10.462 12.0024C10.4823 12.0024 11.6557 11.3242 13.0695 10.4954C14.4833 9.66653 16.5715 8.44264 17.7098 7.77565C18.8481 7.10861 19.8066 6.53779 19.8396 6.50718C19.8884 6.46192 19.5318 6.23857 17.9479 5.32222C16.8745 4.70117 15.9561 4.17244 15.9071 4.1473C15.8319 4.10864 15.0886 4.52972 11.1112 6.86428ZM15.9071 10.5735L11.9394 12.9003C11.5572 13.1244 11.322 13.5339 11.3211 13.977L11.3113 18.6682C11.3051 21.6416 11.3083 24.0744 11.3185 24.0744C11.3453 24.0744 20.4408 18.7386 20.4807 18.6994C20.4992 18.6814 20.5092 16.2407 20.503 13.2758L20.4963 10.064C20.4942 9.09815 19.4451 8.49866 18.612 8.98725L15.9071 10.5735ZM0.484375 13.2975V17.9559C0.484375 18.3997 0.71944 18.8103 1.10215 19.035L5.03554 21.3443C7.5387 22.8138 9.60179 24.0028 9.62026 23.9864C9.63873 23.97 9.64875 21.5577 9.64251 18.6257L9.63273 14.0108C9.63179 13.5673 9.39616 13.1575 9.01337 12.9335L7.67659 12.1513C6.60154 11.5223 5.70524 11.0077 5.68476 11.0077C5.66429 11.0077 5.64755 11.5888 5.64755 12.299V12.6753C5.64755 13.0924 5.20551 13.3611 4.83524 13.1691V13.1691L4.69181 13.0947C4.28031 12.8814 4.02046 12.458 4.01652 11.9945L4.01118 11.3667L4.00548 10.697C4.00173 10.2558 3.7659 9.84922 3.38482 9.62688L2.34205 9.01848C1.43048 8.48659 0.639582 8.02247 0.584523 7.98711V7.98711C0.541257 7.95932 0.484375 7.99038 0.484375 8.04181V13.2975Z" fill="#BBBBC7"/>
</svg>
