<svg width="24" height="24" viewBox="0 0 24 24" fill="none" xmlns="http://www.w3.org/2000/svg">
<path fill-rule="evenodd" clip-rule="evenodd" d="M10.9153 0.483949C10.6619 0.564762 10.2571 0.837216 10.1249 1.01595C9.89029 1.33312 9.81731 1.55313 9.77068 2.08319C9.70242 2.86041 9.45858 3.30485 8.9346 3.60723C8.81574 3.67584 8.70632 3.74939 8.69142 3.77069C8.6338 3.85315 8.10883 3.90136 7.82525 3.85023C7.46411 3.78511 7.28906 3.6928 6.85621 3.33934C6.36882 2.94136 6.15845 2.8465 5.71599 2.8253C5.16759 2.79901 4.99258 2.89773 4.05075 3.76456C3.38132 4.38067 3.25087 4.52406 3.12235 4.78492C2.99284 5.04791 2.97318 5.13659 2.97521 5.44909C2.97832 5.93835 3.10443 6.25204 3.46369 6.66402C3.89054 7.15356 4.00421 7.41565 4.00252 7.90669C4.00091 8.38389 3.8732 8.71176 3.55421 9.05763C3.24983 9.38766 2.87695 9.5474 2.3302 9.58199C1.55234 9.63118 1.03638 9.95768 0.733133 10.5926C0.609988 10.8505 0.609375 10.8573 0.609375 12.0062C0.609375 13.1551 0.609988 13.1619 0.733133 13.4199C0.923037 13.8175 1.15754 14.0548 1.54305 14.2394C1.83154 14.3775 1.94936 14.406 2.3302 14.4291C2.87507 14.4622 3.24733 14.6221 3.55421 14.9548C3.8772 15.3051 4.00398 15.6298 4.00341 16.1058C4.00285 16.5976 3.92251 16.7911 3.52134 17.267C3.15276 17.7043 3.06035 17.9453 3.06304 18.4623C3.06483 18.8141 3.08402 18.9037 3.21886 19.1918C3.34841 19.4685 3.48075 19.6291 4.05867 20.2114C4.92361 21.0828 5.07056 21.1713 5.65399 21.1713C6.16854 21.1713 6.36594 21.0888 6.7855 20.6987C7.29528 20.2246 7.75383 20.0649 8.32957 20.1608C8.50463 20.19 8.66374 20.2395 8.68317 20.271C8.70259 20.3025 8.79599 20.3753 8.8907 20.4327C8.98547 20.4902 9.13836 20.6206 9.23048 20.7225C9.50365 21.0247 9.5944 21.2527 9.64136 21.7548C9.69577 22.3366 9.71967 22.4429 9.85738 22.7161C10.0116 23.022 10.3005 23.2995 10.6209 23.4497C10.8871 23.5744 10.8876 23.5744 12.0894 23.5744H13.2916L13.5587 23.4434C13.886 23.2827 14.18 22.9963 14.3386 22.6836C14.4324 22.4985 14.467 22.335 14.5002 21.9196C14.5473 21.3306 14.6181 21.0827 14.8161 20.8136C14.9751 20.5976 15.0849 20.5098 15.4513 20.3064C15.7914 20.1175 16.0675 20.0629 16.3882 20.1211C16.7374 20.1846 16.9425 20.3027 17.3529 20.6766C17.8132 21.096 18.0922 21.2103 18.5956 21.1859C19.1672 21.1583 19.3809 21.0312 20.1815 20.2427C20.7292 19.7034 20.8929 19.5111 21.0192 19.2587C21.2088 18.88 21.2634 18.5162 21.1865 18.1439C21.1146 17.7955 21.0134 17.6002 20.7265 17.2561C20.4005 16.865 20.2829 16.6116 20.2564 16.2436C20.2041 15.515 20.6229 14.8164 21.3025 14.4986C21.5361 14.3893 21.6958 14.3537 22.0888 14.323C22.8742 14.2617 23.3326 13.9793 23.6305 13.3731L23.758 13.1136V11.9355V10.7575L23.5963 10.4594C23.2872 9.8895 22.897 9.6628 22.1093 9.59542C21.4816 9.5417 21.122 9.39252 20.8132 9.05763C20.4979 8.71581 20.3646 8.38116 20.364 7.93025C20.3634 7.45127 20.4631 7.18513 20.7754 6.83167C21.3804 6.14696 21.4855 5.29058 21.048 4.60977C20.8832 4.35329 19.7728 3.25264 19.5346 3.10958C19.2657 2.94814 18.8048 2.84914 18.48 2.88307C18.1215 2.92053 17.6954 3.12037 17.3933 3.39278C17.095 3.66175 16.8202 3.80174 16.4814 3.85716C16.1847 3.90569 15.6807 3.84052 15.6018 3.74345C15.5759 3.71155 15.4771 3.63814 15.3824 3.58037C14.8994 3.28563 14.6628 2.83491 14.5967 2.08361C14.5615 1.68257 14.5234 1.50747 14.4321 1.32756C14.2743 1.01613 13.9798 0.729497 13.653 0.56905L13.3859 0.438006L12.2544 0.427828C11.3894 0.4201 11.074 0.433294 10.9153 0.483949ZM13.5274 6.88775C14.0949 7.03703 14.9167 7.43021 15.3521 7.76081C16.4852 8.62114 17.1903 9.80007 17.4179 11.2147C17.5078 11.7736 17.4558 12.7701 17.3072 13.337C16.8201 15.1947 15.3966 16.6225 13.5274 17.1282C13.0934 17.2457 12.9866 17.2557 12.1837 17.2545C11.4431 17.2534 11.2567 17.2381 10.9486 17.1532C8.96661 16.6074 7.5527 15.1926 7.03839 13.2407C6.91425 12.7695 6.8697 11.7852 6.94824 11.2485C7.23682 9.27561 8.6553 7.61082 10.5965 6.96663C11.1637 6.77843 11.5412 6.7306 12.3251 6.74775C12.9286 6.76099 13.138 6.78535 13.5274 6.88775ZM13.716 10.0342C13.645 10.0767 12.0575 11.2739 11.577 11.6471C11.5271 11.6859 11.4684 11.6441 11.3178 11.463C11.0163 11.1001 10.8598 10.9646 10.6043 10.8451C10.3273 10.7156 10.1341 10.7059 9.87695 10.8088C9.4235 10.9901 9.16415 11.7065 9.39154 12.1494C9.43764 12.2391 9.7473 12.6577 10.0797 13.0796C10.7436 13.9222 10.8829 14.0332 11.2743 14.0314C11.3985 14.0308 11.5899 13.9896 11.6996 13.9398C11.9379 13.8317 14.726 11.7321 14.8639 11.557C15.0111 11.3699 15.0722 11.1288 15.0501 10.8226C15.0261 10.4911 14.9311 10.3439 14.614 10.1469C14.3617 9.9901 13.8883 9.93068 13.716 10.0342Z" fill="#BBBBC7"/>
</svg>
