<svg width="26" height="15" viewBox="0 0 26 15" fill="none" xmlns="http://www.w3.org/2000/svg">
<path fill-rule="evenodd" clip-rule="evenodd" d="M3.68392 0.399432C3.35985 0.59139 3.33037 0.699241 3.33018 1.69379L3.32998 2.58425L2.78009 2.58444C2.31764 2.58458 2.20487 2.59958 2.07089 2.67899C1.59876 2.95866 1.59876 3.63455 2.07089 3.91423C2.22296 4.00432 2.32101 4.00864 4.23426 4.00906C5.40932 4.0093 6.31062 4.02901 6.41302 4.05665C6.69036 4.1315 6.81569 4.29672 6.83671 4.61514C6.85939 4.95826 6.74154 5.16219 6.44503 5.29293C6.25044 5.37879 6.09946 5.38421 3.86766 5.38535C1.58933 5.38649 1.49079 5.39024 1.3377 5.48095C0.8794 5.7524 0.863856 6.41789 1.30915 6.70151C1.43482 6.78153 1.67844 6.78875 4.99834 6.81093C8.49295 6.83429 8.55532 6.83633 8.68798 6.9326C8.92983 7.10812 9.02446 7.2742 9.02446 7.52329C9.02446 7.77238 8.92983 7.93845 8.68798 8.11398C8.55532 8.21024 8.49295 8.21228 4.99834 8.23565C1.67844 8.25783 1.43482 8.26505 1.30915 8.34507C0.863856 8.62868 0.8794 9.29417 1.3377 9.56563C1.48165 9.65092 1.58517 9.66004 2.41349 9.66018L3.32998 9.66037L3.33018 10.8358C3.33032 11.9249 3.33746 12.0225 3.4275 12.1659C3.6217 12.4754 3.74517 12.5094 4.6753 12.5096L5.50738 12.5098L5.62381 12.842C6.01279 13.9522 7.08521 14.6944 8.30026 14.6944C9.49987 14.6944 10.5713 13.9479 10.9587 12.842L11.0752 12.5098H14.7678H18.4605L18.5769 12.842C18.9659 13.9522 20.0383 14.6944 21.2534 14.6944C22.453 14.6944 23.5244 13.9479 23.9118 12.842L24.0283 12.5098L24.7626 12.5096C25.5848 12.5094 25.723 12.4681 25.9126 12.1659C26.0062 12.0169 26.0098 11.9222 26.01 9.58724C26.0102 6.96537 25.9987 6.82983 25.7406 6.40184C25.4886 5.98387 24.9104 5.56724 24.3238 5.38088C24.1747 5.33354 23.3831 5.31269 20.9913 5.29312C17.9202 5.268 17.8514 5.26543 17.7194 5.16955C17.6452 5.1157 17.5391 5.01264 17.4837 4.94055C17.3857 4.81308 17.3825 4.74693 17.3689 2.55708L17.3548 0.304688L10.599 0.304877C3.94401 0.30502 3.84082 0.306445 3.68392 0.399432ZM18.8248 2.15683V3.8665H20.8537H22.8825L22.5579 3.35597C21.5338 1.74494 20.702 1.02166 19.3797 0.592339C19.1338 0.512507 18.9084 0.44716 18.8787 0.44716C18.8405 0.44716 18.8248 0.942726 18.8248 2.15683ZM8.89327 10.8202C9.45299 11.0977 9.73747 11.7172 9.56698 12.2869C9.35572 12.993 8.64443 13.3969 7.95498 13.2021C7.59209 13.0997 7.2953 12.8698 7.12006 12.5556C6.99884 12.3383 6.97528 12.242 6.97528 11.9637C6.97528 11.6849 6.99865 11.5897 7.12006 11.3737C7.47679 10.7392 8.24566 10.4992 8.89327 10.8202ZM21.8464 10.8202C22.4061 11.0977 22.6906 11.7172 22.5201 12.2869C22.3088 12.993 21.5975 13.3969 20.9081 13.2021C20.5452 13.0997 20.2484 12.8698 20.0732 12.5556C19.952 12.3383 19.9284 12.242 19.9284 11.9637C19.9284 11.6849 19.9518 11.5897 20.0732 11.3737C20.4299 10.7392 21.1988 10.4992 21.8464 10.8202Z" fill="white"/>
</svg>
