<svg width="81" height="76" viewBox="0 0 81 76" fill="none" xmlns="http://www.w3.org/2000/svg">
<path fill-rule="evenodd" clip-rule="evenodd" d="M39.1727 0.273095C37.7509 0.712351 36.7988 1.15075 35.779 1.83566C34.0943 2.96714 32.7818 4.27914 31.6487 5.96441C29.9999 8.41658 29.1811 10.8545 29.0742 13.6291C29.0489 14.2852 29.0117 15.035 28.9915 15.2953C28.9713 15.5556 28.9535 16.9591 28.9517 18.4144C28.9498 20.1189 28.9181 21.0603 28.8627 21.0603C28.8155 21.0603 28.7768 21.01 28.7768 20.9487C28.7768 20.7464 28.1392 20.1998 27.9031 20.1998C27.5456 20.1998 27.3491 20.5947 27.5177 20.9742C27.567 21.085 27.4175 21.1042 26.4577 21.1103C25.843 21.1141 25.3402 21.1072 25.3402 21.0949C25.3402 21.0827 25.5771 20.9286 25.8667 20.7524C26.9523 20.0919 27.8423 18.9449 28.0896 17.8874C28.1558 17.6039 28.1816 17.1164 28.1561 16.6276C28.1218 15.9713 28.0684 15.7334 27.854 15.2831C27.7107 14.9822 27.5365 14.6616 27.4668 14.5707C27.3507 14.4193 27.3652 14.3801 27.6389 14.1059C27.8034 13.9412 28.0494 13.6305 28.1855 13.4155C28.4063 13.067 28.433 12.9491 28.4313 12.3314C28.4282 11.1811 27.9976 10.564 27.1975 10.5632C26.3359 10.5624 25.7731 11.5033 26.3249 12.0224C26.5165 12.2028 26.561 12.2111 26.8013 12.1115C27.2854 11.9106 27.6916 12.2934 27.5312 12.7995C27.4399 13.0876 26.9725 13.5744 26.7872 13.5744C26.6949 13.5744 26.4433 13.4941 26.2279 13.3957C26.0125 13.2974 25.6286 13.1735 25.3747 13.1201C24.055 12.8429 22.5797 13.7438 22.1682 15.0782C22.0699 15.3969 21.9894 15.8014 21.9894 15.9771C21.9894 16.8179 22.5521 17.8575 23.1901 18.1954C23.7215 18.4769 24.759 18.4789 25.1692 18.1993C25.7226 17.8221 25.9428 17.2933 25.8199 16.6372C25.74 16.2106 25.3196 15.8116 24.9499 15.8116C24.5817 15.8116 24.441 16.0423 24.5174 16.521C24.5811 16.92 24.4703 17.1022 24.1642 17.1022C23.7014 17.1022 23.3641 16.6666 23.3641 16.069C23.3641 15.4723 23.9957 14.7079 24.6514 14.5112C25.2824 14.3219 26.1897 14.7446 26.6238 15.4303C26.9197 15.8974 27.0989 16.7716 27.032 17.4213C26.9295 18.4148 26.1273 19.5161 25.3004 19.7983C24.6791 20.0103 24.2396 19.9811 23.6626 19.6896L23.1635 19.4375L22.8093 19.7282C22.0517 20.35 21.0941 20.642 20.3929 20.4652C19.5139 20.2434 18.9824 19.6658 18.9824 18.9321C18.9824 18.4063 19.1988 18.092 19.646 17.9684C20.2563 17.7996 20.6983 18.3069 20.2752 18.6903C20.0488 18.8956 20.0535 19.0081 20.2981 19.2384C20.7313 19.6459 21.5434 19.3375 21.7195 18.6986C21.8042 18.3913 21.7375 17.8622 21.5759 17.5615C21.3148 17.0755 20.4797 16.586 19.9116 16.586C19.4609 16.586 18.8388 16.8444 18.5171 17.1655C18.0074 17.6738 17.8349 18.0809 17.8283 18.7899C17.8231 19.3361 17.8097 19.3838 17.7038 19.2324C17.5349 18.991 16.764 18.6528 16.3804 18.6519C15.7354 18.6502 15.398 19.1044 15.4866 19.8547L15.5367 20.2782L15.3208 20.196C14.9884 20.0694 14.2287 20.0985 13.8623 20.2518C13.6809 20.3277 13.2944 20.5599 13.0033 20.768C12.2985 21.2716 11.9547 21.4044 11.3558 21.4044C10.8049 21.4044 10.6478 21.4992 10.6498 21.8304C10.6527 22.3197 10.0002 22.2878 20.4341 22.3079L30.0656 22.3264L30.0718 18.9184C30.0846 12.0557 30.2355 10.9853 31.5584 8.38139C32.584 6.36236 33.7163 4.9527 35.3718 3.63373C36.8166 2.48263 38.5737 1.63655 40.0916 1.36087C40.5042 1.28592 40.7202 1.29289 41.1581 1.39494C43.6073 1.96576 45.9245 3.43221 47.6698 5.51594C49.4035 7.58574 50.3566 9.74209 50.7183 12.4128C50.8317 13.2499 50.9409 17.6467 50.9428 21.4512L50.9432 22.3152L60.6404 22.3292L70.3375 22.3433L70.5367 22.1309L70.7358 21.9186L70.561 21.6831C70.4302 21.5068 70.3017 21.442 70.051 21.426C69.1943 21.3709 68.9901 21.3016 68.2128 20.8025C67.1928 20.1475 66.7299 20.0313 66.0538 20.2602L65.5707 20.4239L65.6469 20.1613C65.6887 20.0168 65.6988 19.7338 65.669 19.5323C65.5316 18.5992 64.3964 18.4672 63.4428 19.2736L63.1838 19.4925L63.2131 18.8782C63.2468 18.171 63.1231 17.7975 62.6926 17.3063C62.4151 16.9899 61.6571 16.586 61.3408 16.586C60.1714 16.586 59.1674 17.5713 59.3032 18.5858C59.4048 19.344 60.3042 19.7169 60.7832 19.1994L60.9923 18.9733L60.7865 18.7285C60.6622 18.5805 60.598 18.4172 60.6244 18.3161C60.6839 18.0881 61.0984 17.9306 61.4601 17.9986C61.7037 18.0443 61.7889 18.1224 61.9431 18.4414C62.4685 19.5283 61.234 20.748 59.8885 20.4713C59.257 20.3415 58.7255 20.0695 58.3583 19.6883L58.0506 19.3687L57.597 19.6147C56.5835 20.1645 55.5219 19.9907 54.7685 19.1515C54.2028 18.5214 53.9976 17.9291 53.9987 16.9301C53.9995 16.2586 54.0342 16.0412 54.1936 15.7118C54.5598 14.955 55.1711 14.5334 55.9529 14.4984C56.8416 14.4587 57.6402 15.2081 57.6433 16.0846C57.645 16.5914 57.3493 16.9831 56.9017 17.0673C56.5071 17.1414 56.2575 16.9357 56.4221 16.6718C56.5569 16.4555 56.5582 16.0486 56.4246 15.9148C56.1662 15.656 55.5003 15.9071 55.2683 16.3508C54.8775 17.0982 55.249 18.031 56.0582 18.3347C57.1559 18.7468 58.4685 18.0674 58.8969 16.8654C59.0547 16.4225 59.0473 15.5071 58.8815 14.9478C58.7717 14.5776 58.6326 14.3739 58.1982 13.9473C57.7438 13.5011 57.5574 13.3823 57.0812 13.235C56.2592 12.9807 55.6497 13.0275 54.8697 13.4049C54.4234 13.6209 54.2203 13.6149 53.9398 13.3777C53.6543 13.1362 53.5203 12.877 53.522 12.5691C53.5238 12.238 53.6319 12.0939 53.8746 12.0995C53.9871 12.1021 54.2132 12.1083 54.3772 12.1132C54.5699 12.119 54.7141 12.0688 54.7853 11.9714C54.9007 11.8133 54.9332 11.2781 54.8418 11.0395C54.7608 10.8281 54.1726 10.5629 53.7847 10.5629C52.9016 10.5629 52.3488 12.0217 52.7888 13.1907C52.8608 13.3818 53.1102 13.7262 53.3431 13.9559L53.7664 14.3735L53.4695 14.8129C52.6932 15.9621 52.6361 17.6492 53.3297 18.9438C53.619 19.4839 54.8584 20.7342 55.2502 20.8815C55.8923 21.1228 55.8633 21.1371 54.81 21.0991C54.2196 21.0777 53.689 21.0603 53.6308 21.0603C53.5591 21.0603 53.5415 20.9771 53.5765 20.8023C53.6408 20.4805 53.491 20.2859 53.1791 20.2859C52.8724 20.2859 52.3943 20.6132 52.2319 20.9344L52.103 21.1893L52.0584 20.7591C52.0337 20.5225 52.0037 18.6252 51.9915 16.5429C51.9749 13.6904 51.9377 12.5555 51.8406 11.9396C51.3836 9.03963 49.9704 6.13254 48.0161 4.07212C46.1444 2.0987 43.8398 0.720783 41.4495 0.145922C40.5375 -0.0734052 40.2404 -0.0567983 39.1727 0.273095ZM40.4829 3.47816C40.4239 3.50208 40.3755 3.61712 40.3755 3.73379C40.3755 3.94469 40.0776 4.37001 38.2876 6.71497C37.826 7.31986 37.5173 7.77555 37.6017 7.7278C37.7439 7.64726 39.034 7.26238 40.1016 6.98214C40.3526 6.91631 40.6619 6.8862 40.7889 6.91528C41.2277 7.01578 42.9971 7.57894 43.3611 7.73391C43.5619 7.81943 43.7262 7.86891 43.7262 7.84378C43.7262 7.77211 41.4112 4.69895 41.137 4.40657C40.9791 4.23827 40.891 4.0519 40.891 3.88601C40.891 3.74395 40.8446 3.58124 40.7879 3.52445C40.678 3.4144 40.6509 3.41027 40.4829 3.47816ZM39.4734 7.46794C39.0008 7.60553 38.3629 7.78226 38.0558 7.86056C37.7486 7.93886 37.4819 8.01682 37.463 8.03368C37.4442 8.05063 37.5334 8.21558 37.6612 8.4004L37.8937 8.73623L37.5876 12.2955C37.4192 14.253 37.264 15.9901 37.2427 16.1557C37.2213 16.3214 37.1815 16.7667 37.1542 17.1453C37.1268 17.5238 37.0688 18.2014 37.0253 18.651C36.9817 19.1006 36.9227 19.7201 36.8942 20.0277C36.8656 20.3353 36.8063 20.9161 36.7624 21.3184C36.6535 22.3151 36.6525 22.3063 36.885 22.3196C37.1172 22.333 37.0905 22.508 37.327 19.4254C37.3978 18.5026 37.4941 17.3604 37.541 16.8871C37.5878 16.4139 37.7036 15.1361 37.7982 14.0477C38.0865 10.7313 38.3022 8.76575 38.3973 8.58781C38.4837 8.42613 39.4013 8.08342 40.1007 7.95151L40.3843 7.89808L40.3584 15.1021L40.3325 22.3062L42.1368 22.2926C43.1291 22.285 44.0196 22.2757 44.1158 22.2719C44.2888 22.265 44.2894 22.2502 44.1836 20.7376C44.1249 19.8976 44.0163 18.3004 43.9423 17.1883C43.8683 16.0762 43.7883 14.8952 43.7644 14.5639C43.7404 14.2327 43.6447 12.909 43.5517 11.6223C43.3369 8.65157 43.3371 8.54694 43.5578 8.34095L43.7332 8.17738L43.4719 8.07946C42.9141 7.87029 42.7059 7.80145 41.7502 7.5095C41.2067 7.34352 40.6655 7.2099 40.5473 7.21265C40.4292 7.2154 39.9459 7.33027 39.4734 7.46794ZM42.1333 8.80464C42.2463 8.87872 42.3803 9.05873 42.431 9.20466C42.5475 9.53929 42.5526 11.0509 42.4375 11.1222C42.3834 11.1556 42.349 10.9422 42.3445 10.5464C42.3327 9.4936 42.2194 9.10012 41.9282 9.10012C41.7097 9.10012 41.6581 9.27315 41.6017 10.1972C41.575 10.635 41.5201 10.9931 41.4798 10.9931C41.4395 10.9931 41.4065 10.5897 41.4065 10.0967C41.4065 9.60365 41.3849 9.144 41.3586 9.07525C41.2973 8.91529 41.5399 8.6699 41.7594 8.6699C41.8521 8.6699 42.0205 8.73056 42.1333 8.80464ZM38.7844 9.47777C38.6835 9.63204 38.6561 9.86118 38.675 10.3968C38.6996 11.0953 38.7051 11.1116 38.9381 11.1738C39.1511 11.2306 39.1888 11.207 39.2961 10.9497C39.4216 10.6492 39.4537 10.3641 39.4391 9.68091C39.4308 9.28683 39.4213 9.2722 39.1747 9.2722C38.9998 9.2722 38.8764 9.33725 38.7844 9.47777ZM45.3968 12.1674C44.6155 12.9617 44.2417 13.4034 44.2417 13.5321C44.2417 13.6367 44.2986 14.2989 44.3681 15.0036C44.4376 15.7082 44.5746 17.2528 44.6724 18.4359C44.8915 21.0836 45.0018 22.174 45.0602 22.2687C45.0849 22.3087 46.2447 22.3445 47.6376 22.3483L50.1699 22.3554L50.1715 19.2771C50.1723 17.584 50.1967 15.8236 50.2256 15.3652L50.2782 14.5316L49.8124 14.0315C49.5563 13.7564 49.2176 13.3765 49.06 13.1872C48.9022 12.9979 48.3886 12.4268 47.9183 11.9181C47.2002 11.141 47.0225 10.9931 46.8076 10.9931C46.5928 10.9931 46.3669 11.1811 45.3968 12.1674ZM34.5184 11.9108C34.1722 12.2262 33.2026 13.1633 32.3638 13.9934L30.8388 15.5025V18.9154V22.3284L33.4593 22.3341C35.6666 22.3389 36.0797 22.3206 36.0797 22.2178C36.0797 21.9111 36.5104 17.3846 36.8142 14.4984C37.0042 12.6938 37.0399 12.8523 36.273 12.0984C35.3643 11.205 35.3008 11.1982 34.5184 11.9108ZM38.9804 12.4306C39.0873 12.4512 39.2419 12.4504 39.3241 12.4289C39.4062 12.4074 39.3187 12.3905 39.1297 12.3915C38.9407 12.3924 38.8735 12.4101 38.9804 12.4306ZM38.4424 12.6279C38.3752 12.7369 38.489 12.7369 38.6572 12.6279C38.7683 12.5561 38.7659 12.5444 38.6408 12.5432C38.5609 12.5425 38.4716 12.5806 38.4424 12.6279ZM42.3945 13.4023C42.6162 13.4589 42.5922 13.4686 42.2227 13.4721C41.9864 13.4744 41.7158 13.443 41.6213 13.4023C41.3981 13.3063 42.0175 13.3063 42.3945 13.4023ZM38.9722 13.8039C38.9011 13.8751 38.896 14.7314 38.9663 14.8018C38.9946 14.8301 39.0668 14.8343 39.127 14.8112C39.2844 14.7507 39.3009 13.7465 39.1445 13.7465C39.0813 13.7465 39.0037 13.7723 38.9722 13.8039ZM34.3153 14.572C34.1462 15.4327 33.8631 16.1224 33.3648 16.8871C33.149 17.2184 32.9951 17.4181 33.0229 17.3309C33.0506 17.2437 33.0969 17.0694 33.1257 16.9437C33.3394 16.0116 34.2907 13.7331 34.4145 13.857C34.4335 13.8761 34.3889 14.1978 34.3153 14.572ZM46.991 14.7208C47.3774 15.2316 48.2703 16.9283 48.063 16.7578C47.4608 16.2624 46.1319 14.337 46.1319 13.9598C46.1319 13.8323 46.6988 14.3345 46.991 14.7208ZM39.3445 15.2953C39.2385 15.364 39.246 15.3771 39.3875 15.3698C39.482 15.365 39.6753 15.3314 39.817 15.2953L40.0748 15.2297L39.7741 15.2208C39.6087 15.2159 39.4154 15.2494 39.3445 15.2953ZM42.0079 15.2953C42.0079 15.4046 41.7472 15.4046 41.5783 15.2953C41.4806 15.232 41.5168 15.2116 41.7287 15.2105C41.8823 15.2099 42.0079 15.248 42.0079 15.2953ZM38.2061 15.8685C38.2652 15.8924 38.3619 15.8924 38.4209 15.8685C38.48 15.8447 38.4316 15.8252 38.3135 15.8252C38.1954 15.8252 38.1471 15.8447 38.2061 15.8685ZM39.3112 16.4843C39.2872 16.5232 39.3816 16.538 39.5209 16.5176C39.6602 16.4972 39.7741 16.4654 39.7741 16.4472C39.7741 16.3816 39.3537 16.4153 39.3112 16.4843ZM37.9484 16.5569C38.0075 16.5808 38.1041 16.5808 38.1632 16.5569C38.2223 16.533 38.1739 16.5135 38.0558 16.5135C37.9376 16.5135 37.8893 16.533 37.9484 16.5569ZM42.6093 16.9128C42.6093 16.9507 42.4644 16.9672 42.2871 16.9497C41.7884 16.9001 41.752 16.8584 42.2012 16.8509C42.4256 16.8472 42.6093 16.8751 42.6093 16.9128ZM38.6338 17.8527C38.7863 17.8717 39.0569 17.872 39.2352 17.8534C39.4134 17.8347 39.2887 17.8192 38.9579 17.8188C38.6271 17.8185 38.4812 17.8337 38.6338 17.8527ZM39.0438 18.7371C38.8523 18.7859 38.9407 18.8032 39.3875 18.8044C39.8083 18.8055 39.9244 18.7853 39.7741 18.7371C39.5106 18.6526 39.3754 18.6526 39.0438 18.7371ZM42.5664 18.9952L42.8241 19.0609H42.5664C42.4246 19.0609 42.1926 19.0313 42.0509 18.9952L41.7931 18.9296H42.0509C42.1926 18.9296 42.4246 18.9591 42.5664 18.9952ZM17.1609 20.3074C17.3071 20.4139 17.56 20.6089 17.7228 20.7408C17.8856 20.8726 18.2219 21.0522 18.4701 21.1397L18.9213 21.2989L18.4793 21.3597C17.3311 21.5179 16.2759 20.9847 16.44 20.3295C16.5095 20.0523 16.7985 20.0435 17.1609 20.3074ZM38.3761 20.1759C38.5286 20.1949 38.7992 20.1952 38.9775 20.1766C39.1557 20.1579 39.0309 20.1424 38.7001 20.142C38.3694 20.1417 38.2235 20.1569 38.3761 20.1759ZM64.6746 20.399C64.7444 21.0097 64.0911 21.3996 62.9929 21.4025C62.5764 21.4037 62.2841 21.369 62.2841 21.3184C62.2841 21.2711 62.363 21.2324 62.4594 21.2324C62.7302 21.2324 63.2663 20.9265 63.751 20.4954C64.2778 20.0268 64.6277 19.9902 64.6746 20.399ZM23.4434 20.8802L23.7375 21.0371L23.4434 21.1287C23.2816 21.1791 22.9947 21.2426 22.8057 21.2699C22.6166 21.2971 22.3073 21.3422 22.1183 21.3701C21.9293 21.398 21.7995 21.3956 21.8297 21.3646C21.8892 21.304 23.0353 20.7308 23.1064 20.7262C23.13 20.7246 23.2816 20.7939 23.4434 20.8802ZM59.0462 21.3399C58.9953 21.4286 58.5668 21.4208 58.1338 21.3234C57.9356 21.2787 57.6596 21.2181 57.5204 21.1884L57.2673 21.1345L57.6063 20.9419L57.9453 20.7491L58.5143 21.0123C58.8272 21.157 59.0665 21.3044 59.0462 21.3399ZM38.2706 21.1463C38.1274 21.2079 38.1461 21.2213 38.383 21.2263C38.5519 21.2299 38.6458 21.1974 38.6142 21.1463C38.5524 21.046 38.5036 21.046 38.2706 21.1463ZM38.938 21.7222C39.0216 21.7441 39.1376 21.7426 39.1958 21.719C39.2539 21.6954 39.1856 21.6776 39.0438 21.6794C38.902 21.6811 38.8544 21.7003 38.938 21.7222ZM38.5508 21.9815C38.6577 22.0021 38.8123 22.0013 38.8945 21.9798C38.9766 21.9583 38.8892 21.9414 38.7001 21.9424C38.5111 21.9433 38.4439 21.961 38.5508 21.9815ZM1.94204 23.7122C1.73292 23.9436 1.76196 24.0551 2.1375 24.4631C2.32857 24.6708 2.4986 24.9558 2.52816 25.1181C2.55702 25.2762 2.56905 28.5031 2.55505 32.289C2.53091 38.7874 2.52051 39.1931 2.36913 39.5399C2.28098 39.7419 2.12281 39.9749 2.01764 40.0578C1.61384 40.3758 1.52526 40.8504 1.86961 40.8504C1.95853 40.8504 2.48365 40.7352 3.03652 40.5945C3.58939 40.4537 4.37261 40.2807 4.7771 40.2099C5.84839 40.0226 5.96755 39.8633 5.45841 39.299C5.2572 39.076 5.13588 38.8304 5.07076 38.5142C5.00529 38.1965 4.98287 36.0564 4.99842 31.6007L5.02101 25.1474L6.65239 25.1239C8.33901 25.0996 8.60801 25.1395 8.89437 25.4564C8.99034 25.5626 9.15702 25.6206 9.36648 25.6206C9.7598 25.6206 10.0645 25.3845 10.5132 24.7321C10.7717 24.3561 10.827 24.2048 10.8048 23.9334L10.7774 23.5986L6.43116 23.5763C2.30606 23.5551 2.0777 23.562 1.94204 23.7122ZM19.6929 25.8799C18.7484 26.0758 17.8951 26.7815 17.4103 27.7678L17.1352 28.3274V31.857V35.3866L17.3737 35.8399C17.6929 36.4466 18.6025 37.3626 19.1231 37.6016C19.4561 37.7545 19.6984 37.7935 20.318 37.7946C21.0298 37.7958 21.1428 37.7717 21.6592 37.5095C22.3732 37.1468 23.112 36.428 23.4233 35.7931L23.6648 35.3006L23.6913 32.203C23.7167 29.215 23.7109 29.0814 23.5258 28.4275C23.3063 27.6519 22.8057 26.8961 22.2394 26.4853C21.5401 25.978 20.4589 25.7209 19.6929 25.8799ZM43.796 25.881C42.8742 26.0366 41.9021 26.7895 41.4897 27.6671C41.137 28.4179 41.069 29.1593 41.0659 32.289L41.063 35.2145L41.3194 35.7574C41.8163 36.8095 42.8422 37.6402 43.8883 37.8376C44.7242 37.9953 45.1112 37.9513 45.765 37.6237C46.5079 37.2515 47.0782 36.6602 47.4477 35.8791L47.7213 35.3006L47.7469 32.2555C47.7682 29.7209 47.7498 29.11 47.6367 28.6119C47.2887 27.08 46.4236 26.1808 45.0434 25.9163C44.341 25.7817 44.3776 25.7827 43.796 25.881ZM24.7558 26.034C24.1474 26.0689 24.0788 26.2411 24.5239 26.6153L24.854 26.8929L24.833 31.6519C24.8194 34.7566 24.7809 36.4722 24.7222 36.5871C24.6727 36.684 24.5173 36.885 24.3769 37.0338C24.1606 37.2627 24.1362 37.3317 24.2173 37.4836C24.3088 37.6547 24.3908 37.6642 25.9651 37.6864C27.242 37.7045 27.6609 37.6832 27.8103 37.5924C28.0876 37.4239 28.0556 37.3237 27.5962 36.923L27.1874 36.5666L27.1637 32.025C27.1448 28.4155 27.1625 27.4692 27.2496 27.4138C27.3099 27.3755 27.7951 27.3436 28.3279 27.3428L29.2966 27.3415L29.273 31.9823L29.2494 36.6231L29.0065 36.877C28.8311 37.0602 28.7713 37.1994 28.7917 37.3774C28.8174 37.6027 28.8566 37.6287 29.2494 37.6813C29.8857 37.7667 32.1324 37.6838 32.2694 37.57C32.4406 37.4276 32.4172 37.3585 32.0653 36.9684C31.7923 36.6658 31.7374 36.5362 31.6918 36.0862C31.6624 35.7961 31.6421 33.6312 31.6467 31.2754L31.655 26.9921L32.0202 26.644C32.4025 26.2796 32.4479 26.1858 32.2894 26.0877C32.1953 26.0294 25.6481 25.9827 24.7558 26.034ZM33.0941 26.0605C32.9354 26.2242 32.9541 26.2699 33.3324 26.6451L33.6783 26.988L33.6546 31.8124L33.6311 36.6367L33.3519 36.8979C33.1982 37.0417 33.0732 37.2251 33.0739 37.3055C33.0773 37.6707 33.1481 37.6851 34.8803 37.6744C36.9066 37.6617 37.0957 37.5759 36.46 36.9576C36.0651 36.5734 35.9983 36.266 35.9958 34.8183L35.9938 33.6478L36.8315 33.5979C38.0836 33.5233 38.4994 33.3668 39.1301 32.7327C39.5386 32.3218 39.7189 32.0528 39.9335 31.5341C40.2717 30.7168 40.3494 30.1495 40.277 29.0235C40.2056 27.9143 39.9832 27.3074 39.4454 26.7549C38.7848 26.0765 38.5387 26.0265 35.6501 25.9848C33.7283 25.9572 33.1784 25.9735 33.0941 26.0605ZM8.60372 26.1541C8.43 26.3281 8.4861 26.4872 8.84428 26.8352L9.18795 27.1692V31.7168C9.18795 34.7377 9.15693 36.3535 9.09559 36.5297C9.04481 36.6757 8.90949 36.8565 8.79488 36.9317C8.5678 37.0808 8.51582 37.4149 8.69642 37.565C8.76292 37.6203 9.46339 37.6669 10.4705 37.6831L12.1347 37.7098L12.2255 37.506C12.3069 37.3234 12.2764 37.2681 11.9335 36.9754L11.5506 36.6486L11.5225 35.0066L11.4943 33.3646H12.1807C13.3084 33.3646 14.3911 32.9189 15.028 32.1924C15.8734 31.228 16.299 29.2071 15.9233 27.9404C15.6597 27.051 15.0563 26.4294 14.2087 26.174C13.6653 26.0102 8.76472 25.9928 8.60372 26.1541ZM49.053 26.148C49.053 26.2014 49.1848 26.3911 49.3459 26.5698C49.7867 27.0584 49.8578 27.5497 49.7999 29.7077C49.7284 32.3711 49.3634 35.161 48.9839 35.9459C48.8492 36.2244 48.8019 36.2509 48.3564 36.299C48.0915 36.3275 47.8259 36.381 47.7662 36.418C47.6833 36.4692 47.6712 36.7222 47.7146 37.4847C47.759 38.2639 47.7418 38.5965 47.6364 38.9935C47.4686 39.6255 47.5328 39.7164 48.0408 39.5654C48.5506 39.4138 48.6078 39.3519 48.973 38.5572L49.2951 37.8558L49.797 37.8183C50.073 37.7978 51.1919 37.7734 52.2836 37.7641C53.8121 37.7512 54.288 37.7727 54.3539 37.8577C54.401 37.9183 54.5313 38.1941 54.6435 38.4704C54.8757 39.0427 55.1737 39.3016 55.6002 39.3016C55.9803 39.3016 56.0876 39.1843 56.0182 38.8447C55.9469 38.495 56.0486 37.6401 56.2204 37.1458C56.4108 36.5983 56.3937 36.4741 56.1196 36.4119C55.3138 36.2291 55.3725 36.2758 55.3119 35.7687C55.2812 35.5112 55.2521 33.4143 55.2475 31.1089L55.239 26.9173L55.5058 26.6129C56.007 26.0412 56.0609 26.0508 52.3635 26.0508C49.9619 26.0508 49.053 26.0775 49.053 26.148ZM56.3559 26.204C56.3559 26.2882 56.4841 26.4782 56.6407 26.6262C56.8956 26.867 57.0364 27.2322 57.9825 30.1084C58.5639 31.8757 59.0939 33.4281 59.1605 33.5582C59.2652 33.763 59.3331 33.7948 59.6659 33.7948C59.9966 33.7948 60.0503 33.8195 60.0503 33.9718C60.0503 34.4585 59.5849 35.9599 59.3752 36.15C59.2914 36.2259 59.1029 36.312 58.9562 36.3415C58.7244 36.3878 58.6731 36.3626 58.5621 36.1478C58.4129 35.8588 58.3649 35.3699 58.4629 35.1375C58.5465 34.9395 58.3168 34.7413 58.0035 34.7413C57.6801 34.7413 57.0432 35.4204 57.0432 35.7653C57.0432 36.3431 57.6126 37.2622 58.1622 37.5716C58.7179 37.8844 59.2474 37.9005 59.8639 37.6234C60.7747 37.214 61.1669 36.4638 61.7274 34.0585C61.9321 33.1799 62.2222 32.0158 62.3718 31.4716C62.5215 30.9274 62.7759 29.9207 62.9371 29.2345C63.4063 27.2365 63.4626 27.0792 63.8512 26.6787C64.1508 26.37 64.1857 26.2973 64.0901 26.182C63.995 26.0672 63.7628 26.0503 62.5523 26.0703C61.2467 26.0919 61.1239 26.1072 61.0961 26.2521C61.0794 26.3392 61.1521 26.5025 61.2577 26.615C61.5661 26.9438 61.5578 27.4533 61.2102 29.5356C60.9098 31.3348 60.8013 31.7438 60.6983 31.4645C60.4883 30.895 59.515 27.5646 59.4765 27.2838C59.4381 27.0025 59.4668 26.8695 59.61 26.6683C59.7104 26.527 59.7925 26.3303 59.7925 26.2312C59.7925 26.0541 59.7614 26.0508 58.0742 26.0508C56.484 26.0508 56.3559 26.0623 56.3559 26.204ZM64.6337 26.1832C64.6015 26.2671 64.6764 26.4184 64.8289 26.5779L65.0764 26.8365V31.6366V36.4366L64.7542 36.7939C64.577 36.9903 64.4326 37.2187 64.4333 37.3014C64.4365 37.6588 64.5031 37.6716 66.2354 37.6472L67.8974 37.6238L67.9784 37.3804C68.0506 37.1631 68.0261 37.1066 67.7492 36.8525C67.4983 36.6223 67.4382 36.5046 67.4346 36.2355C67.4322 36.0525 67.4164 35.1479 67.3996 34.225C67.3624 32.1819 67.3715 32.125 67.7256 32.1959C68.3886 32.3286 68.6651 32.8878 68.9751 34.7228C69.2358 36.2663 69.411 36.7707 69.8409 37.2152C70.3093 37.6996 70.5742 37.7952 71.4487 37.7955C72.1583 37.7959 72.2579 37.7757 72.452 37.5932C72.7209 37.3401 72.6743 37.2141 72.1875 36.8787C71.6759 36.5261 71.5334 36.1764 71.2629 34.6087C71.016 33.1769 70.9406 32.8938 70.6565 32.3321C70.457 31.9377 69.9398 31.3937 69.4366 31.0489C69.2831 30.9437 69.1574 30.8136 69.1574 30.76C69.1574 30.6421 70.3372 28.5365 70.8078 27.8147C70.9928 27.5308 71.3641 27.0954 71.6328 26.8473C72.0453 26.4663 72.1065 26.3726 72.0262 26.2449C71.9431 26.1128 71.7582 26.0909 70.5507 26.0703C69.2399 26.0478 69.1676 26.0552 69.1163 26.2169C69.0851 26.3152 69.1234 26.4805 69.2069 26.6081C69.3101 26.7658 69.3376 26.9318 69.3031 27.1889C69.2381 27.6749 67.6991 30.7291 67.5 30.7676C67.3459 30.7973 67.3442 30.7112 67.4309 27.323C67.4367 27.0963 67.516 26.9156 67.7036 26.7016C67.8491 26.5356 67.9549 26.331 67.9388 26.2468C67.912 26.1077 67.7634 26.0917 66.2976 26.0705C64.8931 26.0501 64.6791 26.0645 64.6337 26.1832ZM72.4563 26.172C72.4308 26.2387 72.4223 26.8929 72.4375 27.626C72.4617 28.7923 72.4856 28.9814 72.6288 29.1396C72.8211 29.3521 73.0266 29.3678 73.3592 29.1956C73.5667 29.0882 73.6084 29.0028 73.6575 28.5842C73.6889 28.3167 73.7534 28.0252 73.8008 27.9364C73.9326 27.6898 74.4953 27.3415 74.7619 27.3415H74.9997V31.7672C74.9997 34.6104 74.9679 36.2767 74.9108 36.4272C74.8618 36.5561 74.7071 36.7923 74.5671 36.952C74.427 37.1118 74.313 37.2896 74.3137 37.3472C74.3175 37.6548 74.4358 37.6776 76.1066 37.6938C77.4902 37.7072 77.768 37.6891 77.8366 37.5808C77.9739 37.3638 77.9311 37.1583 77.7082 36.9643C77.5913 36.8625 77.4564 36.6594 77.4084 36.5131C77.3381 36.2983 77.2809 31.0793 77.3142 27.9223L77.3194 27.4275L77.5987 27.4288C77.7522 27.4295 77.9745 27.478 78.0927 27.5366C78.3545 27.6667 78.6941 28.3121 78.6941 28.6801C78.6941 29.0234 78.9263 29.2358 79.3663 29.295C79.8636 29.3618 79.899 29.2445 79.8876 27.5695C79.8784 26.1977 79.8721 26.1504 79.6942 26.1026C79.593 26.0754 77.9336 26.0526 76.0065 26.052C73.0722 26.051 72.4952 26.0705 72.4563 26.172ZM21.0083 27.3811C21.1373 27.4658 21.2615 27.6861 21.3479 27.9839C21.4649 28.3869 21.4802 28.9672 21.4561 32.092C21.4363 34.6586 21.3979 35.7992 21.3259 35.963C21.0974 36.4827 20.2604 36.6792 19.7835 36.325C19.3514 36.0043 19.3361 35.852 19.331 31.8158C19.3267 28.4188 19.3402 28.0451 19.4766 27.7717C19.7538 27.2159 20.4759 27.0317 21.0083 27.3811ZM13.088 27.5427C13.3667 27.7256 13.4548 27.9393 13.5772 28.7292C13.6454 29.1693 13.6439 29.5311 13.5717 30.0785C13.4075 31.3228 12.8994 31.9542 11.9862 32.0485L11.5077 32.098V29.7254V27.3529L11.744 27.3257C12.1673 27.2769 12.8512 27.3874 13.088 27.5427ZM37.2922 27.4756C37.46 27.5625 37.6213 27.7577 37.7375 28.0144C37.8994 28.3722 37.918 28.5578 37.9049 29.6816C37.894 30.6132 37.8543 31.0319 37.754 31.2722C37.4882 31.9093 36.9994 32.246 36.3402 32.246H35.9938V29.7385V27.2309L36.5114 27.2851C36.7962 27.3149 37.1475 27.4006 37.2922 27.4756ZM44.9106 27.348C45.479 27.5464 45.4845 27.5784 45.5155 30.8693C45.531 32.502 45.5171 34.3162 45.4849 34.9008C45.4294 35.9052 45.4129 35.9787 45.1846 36.2345C44.967 36.4781 44.895 36.5048 44.4655 36.5007C44.087 36.4971 43.9439 36.4544 43.7738 36.2945C43.3732 35.9175 43.354 35.7145 43.3466 31.7728C43.3399 28.1884 43.3451 28.0635 43.5162 27.7719C43.801 27.2863 44.2997 27.1346 44.9106 27.348ZM52.8191 27.4158C52.9119 27.4756 52.9364 28.328 52.9479 31.8899L52.9622 36.2901H51.652C50.9313 36.2901 50.3418 36.2611 50.3419 36.2256C50.3419 36.19 50.415 35.9674 50.5043 35.7308C50.8824 34.7295 51.1617 32.5591 51.2873 29.644C51.3327 28.5906 51.3705 27.6636 51.3713 27.5841C51.3722 27.5014 51.4554 27.4262 51.5661 27.4084C51.9826 27.3413 52.7103 27.3456 52.8191 27.4158ZM39.6035 39.6282L38.6437 40.533L39.598 41.4713L40.5524 42.4096L40.8721 42.1527C41.0479 42.0114 41.4804 41.6028 41.8332 41.2448L42.4747 40.5938L42.091 40.1946C41.8799 39.9751 41.5345 39.636 41.3233 39.441C41.1122 39.2461 40.8549 39.0048 40.7515 38.9049L40.5634 38.7233L39.6035 39.6282ZM25.6409 39.658C25.4046 39.7013 24.6082 39.8713 23.871 40.0355C22.3317 40.3786 21.1514 40.4385 20.6858 40.1974C20.4651 40.0831 20.4031 40.0796 20.3092 40.1759C20.2165 40.2708 20.2178 40.3407 20.3166 40.573C20.4081 40.7881 20.561 40.9137 20.9635 41.1044C22.0682 41.6275 23.3376 41.6562 24.9536 41.1944C26.9172 40.6332 27.8172 40.6455 30.3233 41.2674C32.4607 41.7979 33.3021 41.7544 34.9497 41.0283C35.947 40.5888 36.2709 40.5357 36.8781 40.7125C37.247 40.8199 37.4161 40.929 37.6268 41.1954C37.9572 41.6131 38.0906 41.5635 38.0321 41.0445C37.9735 40.5225 37.7569 40.2533 37.1498 39.947C36.6799 39.7099 36.568 39.6893 35.779 39.694C35.048 39.6985 34.8301 39.735 34.3184 39.9388C33.9876 40.0705 33.6167 40.1975 33.4942 40.221C33.3604 40.2467 32.837 40.1178 32.1833 39.8981C31.5848 39.697 31.0704 39.5573 31.0402 39.5876C30.9597 39.6682 31.5651 40.4184 31.9725 40.7429C32.412 41.093 32.3123 41.0956 31.5595 40.7538C29.4401 39.7914 28.5585 39.5573 27.1015 39.57C26.5344 39.575 25.8772 39.6145 25.6409 39.658ZM49.2678 39.9093C48.0861 40.4145 47.9444 40.4188 46.6638 39.9905C45.6854 39.6633 45.5147 39.6307 45.0011 39.6732C44.2873 39.7323 43.6315 40.0084 43.296 40.3911C43.0926 40.6231 43.0389 40.7646 43.0389 41.0686C43.0389 41.2966 43.0783 41.4528 43.1359 41.4528C43.1893 41.4528 43.3803 41.3193 43.5606 41.1562C44.0112 40.7485 44.46 40.6389 45.1709 40.7628C45.4793 40.8165 45.9472 40.951 46.2109 41.0615C47.7681 41.7143 48.6245 41.7775 50.2252 41.3576C52.9189 40.651 52.9934 40.6465 55.0242 41.0709C56.6901 41.4189 58.2583 41.5382 59.0196 41.3747C59.5747 41.2555 60.1972 40.9582 60.3504 40.7391C60.5157 40.5027 60.4149 40.2211 60.1888 40.2877C59.1601 40.5907 58.0773 40.5365 56.1841 40.0871C53.2889 39.4 51.6787 39.5155 49.8907 40.5387C49.2182 40.9236 49.1338 40.9556 49.3364 40.749C49.5738 40.507 50.1699 39.7125 50.1699 39.6381C50.1699 39.5282 50.1339 39.539 49.2678 39.9093ZM40.891 40.4776C40.891 40.6921 40.7314 40.7422 40.5681 40.5787C40.4929 40.5033 40.4356 40.5066 40.3325 40.5923C40.2343 40.6741 40.1703 40.6794 40.1027 40.6117C39.916 40.4247 40.0899 40.2768 40.4962 40.2768C40.8525 40.2768 40.891 40.2964 40.891 40.4776ZM0.0888263 44.4494C-0.0241534 44.6607 -0.0320578 62.5375 0.0806642 62.8344L0.162802 63.0506L7.66096 63.0482C11.7849 63.0469 20.632 63.0468 27.3209 63.0479L39.4827 63.0499L39.5033 63.3981C39.5212 63.701 39.4842 63.7814 39.2193 64.0162C39.0519 64.1646 38.9149 64.358 38.9149 64.4458C38.9149 64.5337 39.0687 64.7492 39.2566 64.9248C39.5701 65.2177 39.8487 65.7781 39.811 66.0399C39.8025 66.0991 39.7908 66.2031 39.7848 66.2711C39.7754 66.3801 39.1006 67.438 38.9078 67.6461C38.8672 67.6899 38.836 67.3949 38.8375 66.9828C38.8417 65.8336 38.4833 65.157 37.5337 64.5219C36.5639 63.8733 37.521 63.9171 24.0544 63.9052C15.2253 63.8974 11.9066 63.9207 11.7745 63.9914C11.5253 64.1251 11.5311 64.545 11.7846 64.7228C11.9196 64.8176 12.1814 64.8568 12.6791 64.8568C13.29 64.8568 13.4737 64.8958 14.0749 65.1535C14.4557 65.3168 15.0629 65.6501 15.4241 65.8942C16.4967 66.6191 16.9332 66.788 17.7729 66.8037L18.4966 66.8172L18.6551 67.1267C18.9251 67.6537 19.5186 67.9015 20.0161 67.6951C20.3224 67.568 20.443 67.3769 20.443 67.0186C20.443 66.7412 20.3728 66.6691 19.9715 66.5346C19.4203 66.3499 19.7474 65.7168 20.3935 65.7177C21.2565 65.7189 21.9295 66.1246 23.4329 67.5498C24.2538 68.3279 24.6355 68.6237 25.1426 68.8747C26.2147 69.4054 27.34 69.3689 27.9786 68.7828C28.2337 68.5486 28.2905 68.4304 28.3262 68.0576C28.3792 67.5054 28.2337 67.1286 27.9013 66.9563C27.5088 66.7531 27.1946 66.9358 27.1209 67.4101C27.0804 67.6705 26.973 67.7823 26.7632 67.7823C26.4916 67.7823 26.358 67.5951 26.3072 67.1434C26.2739 66.8473 26.3045 66.7062 26.445 66.5087C26.802 66.0066 27.5427 65.8375 28.1624 66.1166C28.3374 66.1955 28.9833 66.7754 29.6236 67.4286L30.7712 68.5992L30.4073 68.6614C29.9191 68.7449 29.6479 68.9373 29.4921 69.3108C29.2517 69.887 29.5794 70.3955 30.2628 70.5065C30.6431 70.5683 30.878 70.4041 30.954 70.0233C31.0017 69.7844 31.0124 69.78 31.3562 69.8573C31.5505 69.901 32.1184 70.1517 32.6184 70.4142C34.3109 71.3032 35.2701 71.5947 36.8342 71.6954C37.6703 71.7492 37.9987 71.834 38.2489 72.0608C38.4711 72.2621 38.436 72.6267 38.1689 72.8943C37.9814 73.082 37.873 73.1203 37.589 73.0996C37.2409 73.0741 37.2395 73.0753 37.2125 73.4028C37.1892 73.6864 37.2284 73.7721 37.4979 74.0266C37.7203 74.2366 37.8899 74.3217 38.0866 74.3217C38.478 74.3217 39.0949 73.9849 39.317 73.6501L39.5056 73.3656L39.591 73.6752C39.6552 73.908 39.6458 74.058 39.5534 74.2796C39.3391 74.7932 39.3912 74.9639 39.9401 75.5455C40.5354 76.1764 40.5419 76.1756 41.164 75.3848L41.5659 74.8741L41.4196 74.4246C41.3378 74.1736 41.2884 73.8161 41.3076 73.6147L41.342 73.2543L41.5016 73.5659C41.9773 74.4946 43.4348 74.5744 43.6022 73.6811C43.6843 73.2424 43.609 73.117 43.263 73.117C43.069 73.117 42.8745 73.0399 42.7019 72.8943C41.9739 72.2809 42.808 71.6543 44.3523 71.6543C45.4744 71.6543 46.4613 71.3525 48.2753 70.4548C49.6849 69.7573 49.9573 69.7074 50.065 70.127C50.165 70.5162 50.6021 70.6324 51.0824 70.3976C51.5406 70.1735 51.6797 69.863 51.5299 69.3989C51.3915 68.9702 51.0924 68.7325 50.61 68.6676L50.2486 68.6191L51.3047 67.5507C52.5003 66.341 52.9877 65.9754 53.4048 65.9754C53.8181 65.9754 54.3566 66.2172 54.5505 66.4901C54.8548 66.918 54.7835 67.5589 54.4162 67.6987C54.1251 67.8096 53.9779 67.7273 53.9164 67.4193C53.8416 67.0446 53.7132 66.9218 53.3963 66.9218C53.0792 66.9218 52.8008 67.173 52.6557 67.5898C52.391 68.3504 53.3116 69.2465 54.3556 69.2441C55.3986 69.2418 56.3732 68.6807 57.9453 67.1775C58.9225 66.2432 59.8853 65.7172 60.6184 65.7172C61.0288 65.7172 61.4802 66.1413 61.3431 66.3981C61.2832 66.51 61.1443 66.5764 60.9322 66.594C60.1017 66.6632 60.5399 67.8691 61.3952 67.868C61.7471 67.8676 62.1499 67.5907 62.3705 67.1974L62.5617 66.8568L63.2177 66.8178C63.9812 66.7726 64.4383 66.5924 65.3258 65.9866C66.5227 65.1697 67.3808 64.8568 68.4237 64.8568C69.1521 64.8568 69.3292 64.7657 69.3292 64.391C69.3292 64.2329 69.2763 64.0595 69.2116 64.0057C69.1248 63.9335 65.8732 63.9139 56.7753 63.9307L44.4565 63.9533L43.8121 64.2614C42.6632 64.8108 42.0509 65.7438 42.0509 66.9449C42.0509 67.7054 42.0575 67.7079 41.4861 66.7348C41.0193 65.94 41.0496 65.5363 41.6206 64.9428C41.78 64.7772 41.9348 64.5419 41.9647 64.4201C42.0112 64.2304 41.9689 64.1654 41.6697 63.9672C41.322 63.7367 41.2421 63.5267 41.3727 63.186C41.4201 63.0624 43.2447 63.0499 61.1748 63.0499H80.9246L80.9713 62.8563C80.997 62.7497 81.0074 58.539 80.9944 53.4989L80.9709 44.3352L40.5719 44.3136C1.51031 44.2927 0.170103 44.2972 0.0888263 44.4494ZM35.6072 45.4523C35.5126 45.5194 35.2807 45.6878 35.0917 45.8265L34.748 46.0788L19.4979 46.1302C11.1103 46.1584 3.73554 46.1823 3.10938 46.1834L1.97099 46.1852V53.5369C1.97099 57.5804 2.00089 60.9071 2.03741 60.9296C2.07383 60.9523 9.21673 60.9821 17.9104 60.996C26.604 61.0099 33.9103 61.0356 34.1466 61.0532C34.5135 61.0804 34.6427 61.1436 35.0329 61.4867L35.4895 61.8883L34.2596 61.8692C33.5831 61.8587 25.8482 61.8491 17.0708 61.8477L1.11183 61.8452V53.585V45.3247L18.4454 45.3275C33.4342 45.3298 35.7557 45.3467 35.6072 45.4523ZM42.076 45.4616C44.4292 45.9477 46.1791 47.1212 47.5018 49.1001C48.114 50.016 48.3739 50.5619 48.6472 51.5064C48.8125 52.0782 48.8373 52.3644 48.8342 53.671C48.8293 55.7703 48.6661 56.4158 47.7362 58.0163C47.2417 58.8674 45.6218 60.4618 44.6856 61.019C43.867 61.506 42.5904 61.9672 41.6642 62.1103C40.7339 62.254 38.9448 62.166 38.1576 61.9377C36.358 61.4159 34.6676 60.1798 33.6184 58.6186C32.4196 56.8346 31.8349 54.3144 32.1712 52.3801C32.5323 50.3025 33.1347 49.1255 34.5722 47.6887C35.8446 46.4169 36.9005 45.8412 38.662 45.4586C39.4362 45.2905 41.2556 45.292 42.076 45.4616ZM79.9175 53.5732L79.8952 61.8217L79.2691 61.8784C78.4393 61.9538 45.4439 61.9367 45.447 61.861C45.4484 61.8286 45.6767 61.6371 45.9543 61.4353L46.459 61.0684L62.7639 61.0481L79.0688 61.0278L79.0622 53.6441C79.0585 49.583 79.0419 46.2483 79.0251 46.2336C79.0085 46.2189 71.591 46.1792 62.5419 46.1453L46.0889 46.0838L45.5788 45.7043L45.0687 45.3247H62.5042H79.9399L79.9175 53.5732ZM38.6142 46.2188C38.1889 46.3257 37.5668 46.5298 37.2317 46.6723C35.5419 47.391 33.9404 49.1344 33.2686 50.9868C32.7739 52.3507 32.7038 54.4883 33.109 55.8535C33.8926 58.4941 35.8832 60.5217 38.3633 61.2057C39.0408 61.3925 40.9554 61.4664 41.7097 61.3348C42.807 61.1435 44.1062 60.5929 44.9724 59.9519C45.633 59.4632 46.6372 58.3361 47.1083 57.5544C48.6026 55.0754 48.5207 51.8608 46.9018 49.4431C46.1022 48.249 44.6993 47.1022 43.3805 46.5644C41.9949 45.9993 40.0487 45.8582 38.6142 46.2188ZM18.9521 47.0606C19.19 47.1726 19.4156 47.3599 19.5141 47.5271L19.6787 47.8065L20.0532 47.4314C20.451 47.033 20.8757 46.8833 21.2336 47.0154C21.4191 47.0839 21.358 47.1631 20.2931 48.2341L19.1542 49.3794V48.8966C19.1542 48.085 18.7795 47.6479 18.0833 47.6479C17.8302 47.6479 17.7473 47.6965 17.6056 47.9276C17.3824 48.2915 17.4191 48.4461 17.7446 48.5128C18.1208 48.5898 18.2091 48.6626 18.2091 48.8958C18.2091 49.1092 17.9265 49.3688 17.6941 49.3688C17.4644 49.3688 16.9375 48.8641 16.8316 48.5426C16.6361 47.9494 16.9402 47.3177 17.5563 47.0375C18.023 46.8252 18.4677 46.8326 18.9521 47.0606ZM25.2052 46.9566C25.3503 47.0023 25.5844 47.0634 25.7255 47.0924C26.0684 47.1629 30.5793 51.7309 30.8506 52.2822C31.0176 52.6218 31.0307 52.753 30.9886 53.6679C30.9569 54.3563 30.8965 54.7716 30.7989 54.9706C30.602 55.3725 26.0745 59.829 25.7363 59.954C25.5893 60.0083 25.4019 60.0881 25.3199 60.1315C25.1347 60.2294 24.8247 60.2347 24.8247 60.1399C24.8247 60.0785 26.0283 58.8666 27.2407 57.7075C28.0644 56.92 30.1301 54.7316 30.3932 54.368C30.7078 53.933 30.7527 53.4866 30.5267 53.0429C30.3017 52.6013 29.3977 51.6295 27.0716 49.3287C25.8738 48.144 24.8575 47.1069 24.8133 47.0241C24.7189 46.8477 24.8097 46.8321 25.2052 46.9566ZM39.9953 46.9394C40.0461 46.9741 40.1794 47.1681 40.2915 47.3703C40.4671 47.6871 40.5064 47.7169 40.5758 47.5854C40.8625 47.0418 41.3403 46.8259 41.7594 47.0505C41.9192 47.1361 41.9058 47.1675 41.532 47.5838C41.3136 47.8271 41.0564 48.1802 40.9604 48.3686C40.7363 48.8088 40.6714 49.5413 40.8012 50.1677C40.9144 50.7135 41.3811 51.712 41.6665 52.0188L41.8499 52.2159L42.5196 51.5613C43.5577 50.5466 43.9197 49.7087 43.5651 49.1411C43.2227 48.593 42.2844 48.5921 42.0223 49.1394C41.9162 49.3615 41.9231 49.4019 42.1006 49.5912C42.2078 49.7055 42.3421 49.799 42.399 49.799C42.5563 49.799 42.7045 50.0189 42.6476 50.1676C42.5718 50.3654 42.2182 50.4198 41.893 50.2837C41.6843 50.1963 41.5658 50.0652 41.4628 49.8073C41.2389 49.2469 41.2771 48.9344 41.6184 48.5351C41.9993 48.0894 42.3859 47.9084 42.9865 47.8945C43.3874 47.8853 43.5166 47.9224 43.7772 48.1214C44.129 48.3902 44.4088 48.9309 44.4117 49.3473C44.4138 49.6617 44.4621 49.6874 44.6797 49.4902C44.8616 49.3255 45.4272 49.185 45.4912 49.2888C45.5164 49.3296 45.4582 49.5176 45.3619 49.7066C45.2656 49.8957 45.1868 50.0682 45.1868 50.0901C45.1868 50.112 45.3197 50.1738 45.4822 50.2275C46.1369 50.4439 46.4055 50.8262 46.4017 51.5361C46.399 52.0377 46.2236 52.3877 45.8203 52.6956C45.4065 53.0118 44.6916 53.0266 44.3717 52.7256C44.1214 52.4901 44.0244 52.1101 44.1531 51.8692C44.2807 51.6303 44.386 51.646 44.6337 51.9408C45.0122 52.3914 45.4431 52.3637 45.6279 51.8767C45.7309 51.6055 45.5788 51.1334 45.3329 50.9609C44.8345 50.6113 44.2339 50.8719 42.9232 52.0062L42.249 52.5897L42.4936 52.7868C42.9133 53.1251 43.626 53.3488 44.422 53.3923C45.4638 53.4493 46.012 53.278 46.6144 52.7075C47.1674 52.1837 47.3347 52.2284 47.3347 52.9002V53.3128L46.8212 53.5122L46.3077 53.7116L46.542 53.8438C47.273 54.256 47.3336 54.3126 47.3342 54.5828C47.3344 54.7294 47.2632 54.9319 47.1758 55.0328L47.0169 55.2163L46.7441 54.8763C46.1705 54.1615 45.32 53.8656 44.2627 54.0128C43.5617 54.1105 42.9942 54.3279 42.5454 54.6707C42.2989 54.859 42.2734 54.9106 42.3688 55.0275C42.6238 55.3396 44.1655 56.5003 44.4501 56.5944C45.0786 56.8022 45.6164 56.4484 45.6164 55.827C45.6164 55.4306 45.4742 55.2349 45.1438 55.1769C44.82 55.1201 44.5639 55.3082 44.5639 55.6029C44.5639 55.8516 44.4062 55.8885 44.2049 55.687C44.0003 55.482 44.0383 55.1075 44.2874 54.8731C44.4568 54.7138 44.6246 54.6607 45.0435 54.634C45.5339 54.6027 45.6077 54.6213 45.8691 54.8417C46.6655 55.5127 46.6048 56.7416 45.7555 57.1452C45.5938 57.2221 45.3827 57.2849 45.2863 57.2849C45.0516 57.2849 44.9861 57.4119 45.1505 57.5485C45.354 57.7177 45.5435 58.1271 45.4462 58.1873C45.3403 58.2528 44.6958 58.0826 44.6269 57.9709C44.527 57.8091 44.4136 57.8897 44.4117 58.1238C44.4087 58.506 44.1133 59.0499 43.7638 59.3169C43.4747 59.5377 43.3702 59.5651 42.8156 59.5651C42.0958 59.5651 41.8324 59.424 41.5153 58.8686C41.1504 58.2295 41.3552 57.4145 41.9531 57.1266C42.3659 56.9277 42.9404 57.2902 42.6904 57.5918C42.6389 57.654 42.5487 57.6864 42.4898 57.6637C42.3226 57.5996 41.922 57.9635 41.922 58.1796C41.922 58.7333 42.8802 59.0078 43.3314 58.5833C43.5982 58.3322 43.7001 57.8733 43.559 57.5579C43.3709 57.1372 42.5392 55.9559 42.1954 55.621L41.8564 55.2907L41.6359 55.5802C41.5147 55.7394 41.2914 56.1353 41.1396 56.4601C40.9052 56.9618 40.8577 57.1755 40.8237 57.8826C40.7777 58.8394 40.8261 58.9763 41.4452 59.6397C41.6602 59.8702 41.8361 60.088 41.8361 60.124C41.8361 60.2441 41.6242 60.3666 41.3165 60.4241C41.0182 60.4799 41.0072 60.4718 40.801 60.0479C40.5702 59.5735 40.4999 59.5231 40.4202 59.7748C40.3235 60.0797 39.7935 60.4685 39.4747 60.4685C38.9951 60.4685 38.952 60.2374 39.3719 59.9167C39.5644 59.7698 39.8205 59.4573 39.9412 59.2224C40.1289 58.8572 40.1607 58.6826 40.1607 58.0186C40.1607 56.9989 40.0226 56.5599 39.4971 55.9095L39.0651 55.3748L38.4248 56.0071C37.5614 56.8599 37.0947 57.7796 37.2789 58.265C37.4348 58.6755 37.6758 58.8337 38.1455 58.8337C38.4913 58.8337 38.6218 58.7909 38.7899 58.6224C38.9059 58.5063 39.0008 58.3155 39.0008 58.1985C39.0008 57.9444 38.6376 57.6291 38.3449 57.6291C38.0173 57.6291 38.0804 57.3114 38.4424 57.1385C38.7237 57.0041 38.7628 57.0043 39.0485 57.1408C39.4155 57.316 39.6023 57.7056 39.6023 58.2955C39.6023 58.7748 39.4701 58.9996 38.9788 59.3561C38.6943 59.5625 38.5453 59.6081 38.1559 59.6081C37.2579 59.6081 36.6025 59.0863 36.5282 58.3124L36.4881 57.8937L36.2623 58.0075C35.9239 58.178 35.5813 58.2427 35.5224 58.1471C35.4936 58.1005 35.5689 57.9165 35.6898 57.7384C35.8424 57.5135 35.8765 57.4052 35.8013 57.3839C35.3376 57.2526 34.9387 56.9732 34.7468 56.6452C34.2161 55.7382 34.7202 54.7458 35.7609 54.6487C36.2949 54.5988 36.728 54.819 36.8203 55.1875C36.9211 55.5893 36.5035 55.9525 36.3819 55.5688C36.2399 55.1207 35.6203 55.1504 35.4266 55.6146C35.2973 55.9247 35.3669 56.2446 35.6265 56.5318C35.8361 56.7639 36.391 56.7253 36.8696 56.4453C37.2856 56.2019 38.6572 55.0638 38.6572 54.962C38.6572 54.8669 37.8397 54.367 37.4408 54.2181C37.214 54.1335 36.7812 54.076 36.3374 54.0713C35.4502 54.062 34.9477 54.257 34.354 54.841C33.9107 55.277 33.7952 55.2458 33.701 54.6648C33.644 54.3127 33.7122 54.2346 34.3568 53.9149L34.7388 53.7253L34.4857 53.6512C34.3464 53.6104 34.1069 53.5146 33.9533 53.4384C33.7123 53.3188 33.674 53.2554 33.674 52.9761C33.674 52.5961 33.7436 52.3804 33.8662 52.3804C33.9144 52.3804 34.0988 52.5114 34.2758 52.6716C34.8845 53.2224 35.3513 53.4361 36.0423 53.4805C36.9032 53.5359 37.8931 53.2509 38.5238 52.7663C38.686 52.6417 38.6805 52.6266 38.352 52.2877C37.9144 51.8361 36.9607 51.126 36.5754 50.9649C35.9855 50.718 35.3064 51.1292 35.3064 51.7333C35.3064 52.1221 35.5576 52.3309 35.939 52.2592C36.1173 52.2257 36.2901 52.1191 36.374 51.9908C36.5498 51.7222 36.6592 51.7218 36.7809 51.9893C37.0093 52.4915 36.4955 52.9827 35.7418 52.9827C35.3357 52.9827 34.8955 52.6457 34.6645 52.1581C34.3316 51.4557 34.7581 50.5162 35.5078 50.3008C35.7042 50.2444 35.8774 50.1894 35.8928 50.1786C35.9082 50.1678 35.8167 50.0015 35.6895 49.8091C35.3907 49.3569 35.4461 49.167 35.8396 49.2955C35.9952 49.3464 36.2018 49.481 36.2985 49.5946L36.4745 49.8012L36.5775 49.3053C36.6342 49.0326 36.7565 48.6853 36.8493 48.5333C37.2462 47.8838 38.3023 47.702 39.0222 48.1593C39.5103 48.4693 39.6882 48.7934 39.6882 49.3731C39.6882 49.7623 39.6526 49.8519 39.3961 50.1088C39.0545 50.4509 38.6988 50.4933 38.3875 50.2293C38.1612 50.0374 38.1844 50.0019 38.7366 49.6955C39.2627 49.4037 38.9365 48.6787 38.2804 48.6817C37.7907 48.6838 37.6385 48.7728 37.447 49.1689C37.1872 49.7064 37.2562 50.1065 37.7065 50.6729C38.3511 51.4836 39.0263 52.2083 39.137 52.2083C39.2622 52.2083 39.7634 51.4137 40.0351 50.7848C40.1768 50.4568 40.2183 50.1918 40.2148 49.6375C40.2087 48.6815 40.0276 48.1513 39.5475 47.684C39.1589 47.3057 39.1002 47.1527 39.2758 46.9768C39.3891 46.8633 39.8493 46.8394 39.9953 46.9394ZM77.9355 47.0159C78.0243 47.0964 78.0927 47.2761 78.0927 47.429C78.0927 47.9125 77.7757 48.0443 77.374 47.7277C77.1304 47.5359 77.0686 47.1592 77.2507 46.9768C77.3981 46.8291 77.7518 46.8494 77.9355 47.0159ZM3.80616 47.1486C3.94285 47.3672 3.77282 47.7552 3.47848 47.8965C3.24332 48.0094 3.21695 48.0026 3.0263 47.7807C2.82233 47.5432 2.82242 47.318 3.02664 47.0627C3.1501 46.9084 3.69335 46.9683 3.80616 47.1486ZM7.32107 47.326C7.53492 47.5015 8.08298 47.9968 8.53894 48.4267C8.99489 48.8566 9.40085 49.196 9.44106 49.1811C9.50042 49.1589 11.1917 47.6015 11.6578 47.1398C11.7305 47.0678 12.031 47.0027 12.3997 46.979C13.2521 46.9242 13.6322 47.1297 14.6963 48.2208C15.6879 49.2375 15.8239 49.477 15.8355 50.2261C15.843 50.7078 15.8037 50.8636 15.562 51.3116C15.4067 51.5993 14.908 52.2319 14.4535 52.7174L13.6273 53.6002L14.5439 54.5126C15.0775 55.0438 15.5408 55.589 15.6526 55.8172C15.9194 56.3615 15.9174 57.1797 15.6481 57.7296C15.4277 58.1794 14.0546 59.6272 13.4992 59.9953C13.1693 60.2138 13.092 60.2298 12.6093 60.1793C11.8873 60.1038 11.5549 59.8837 10.3946 58.713L9.4103 57.7198L8.24235 58.8711C6.94957 60.1454 6.7133 60.2762 5.90518 60.1649C5.38358 60.093 4.86482 59.6827 3.7144 58.4317C2.88084 57.5252 2.71125 57.1796 2.80137 56.5707C2.8878 55.9867 3.557 55.1527 5.12171 53.6793C5.23383 53.5737 5.11483 53.4227 4.17173 52.4747C3.3612 51.6598 3.06092 51.2974 2.96186 51.0143C2.81065 50.5821 2.79098 49.9994 2.9165 49.6688C3.03695 49.3516 5.14044 47.2514 5.49957 47.0898C5.69425 47.0022 5.9874 46.9656 6.36328 46.982C6.87483 47.0045 6.97157 47.0393 7.32107 47.326ZM10.3045 47.0489C10.3047 47.0743 10.1133 47.284 9.8794 47.5148L9.45394 47.9345L9.17059 47.653C9.01474 47.4982 8.79162 47.3079 8.67486 47.2301C8.46282 47.0889 8.46325 47.0886 8.93261 47.0456C9.55197 46.9889 10.304 46.9907 10.3045 47.0489ZM15.9431 47.0027L16.1258 47.0436L15.9458 47.4989C15.7817 47.9139 15.7541 47.9419 15.6342 47.8141C15.562 47.7369 15.3593 47.5227 15.1839 47.338L14.865 47.0022L15.3127 46.982C15.5591 46.9709 15.8427 46.9803 15.9431 47.0027ZM23.8245 47.0653C23.7558 47.1767 18.4283 52.5852 17.801 53.1804C17.6003 53.371 17.4359 53.5638 17.4359 53.6088C17.4359 53.6539 18.8859 55.1286 20.6582 56.8861C22.4305 58.6434 23.8803 60.1157 23.88 60.1578C23.8793 60.2885 23.0233 60.1403 22.7353 59.9597C22.5849 59.8654 21.072 58.3908 19.3731 56.6828L16.2844 53.5775L19.4161 50.4353C21.1386 48.7071 22.6252 47.2501 22.7197 47.1974C23.1085 46.981 23.9377 46.8818 23.8245 47.0653ZM31.3916 47.0587C31.6981 47.1985 31.7538 47.4482 31.5314 47.6854C31.3764 47.8506 31.2844 47.8741 30.9265 47.8396C30.146 47.7645 30.012 47.8685 29.6887 48.7997C29.6365 48.9501 29.6211 48.9518 29.4783 48.8224C29.3737 48.7275 29.2963 48.7109 29.2367 48.7706C29.1772 48.8302 29.0998 48.7485 28.995 48.516C28.7742 48.0256 28.5205 47.8235 28.0281 47.7455C27.6939 47.6926 27.5391 47.6116 27.3349 47.383L27.0718 47.0886L27.817 47.0616C28.6449 47.0315 29.0116 47.1545 29.2118 47.529L29.3237 47.7383L29.6301 47.4395C29.7988 47.2753 30.0333 47.1025 30.1515 47.0557C30.4488 46.9377 31.1302 46.9394 31.3916 47.0587ZM33.3787 47.3683C32.3946 48.658 32.1225 49.1644 31.5985 50.681C31.4882 51.0004 31.3696 51.2618 31.3351 51.2618C31.1942 51.2618 31.0097 50.838 30.9958 50.4828C30.9833 50.1652 30.9211 50.0401 30.6104 49.7073L30.2398 49.3105L30.4443 49.1182L30.6488 48.9258L30.9925 49.1015L31.3364 49.2771L31.7942 48.5701C32.046 48.1812 32.3992 47.6598 32.5791 47.4113C32.8913 46.9802 32.9241 46.9596 33.2983 46.9596H33.6905L33.3787 47.3683ZM48.1425 47.2067C48.346 47.3811 48.9554 48.3156 49.2588 48.9185L49.4869 49.3715L49.8216 49.1786C50.15 48.9893 50.1597 48.9887 50.335 49.1475C50.5829 49.3723 50.5601 49.485 50.2129 49.7502C49.982 49.9266 49.9122 50.0425 49.9122 50.2495C49.9122 50.5291 49.6038 51.2618 49.4861 51.2618C49.4493 51.2618 49.3744 51.0345 49.3198 50.7566C49.1638 49.9623 48.364 48.4518 47.7165 47.7286C47.412 47.3885 47.1629 47.0739 47.1629 47.0296C47.1629 46.9043 47.9572 47.0479 48.1425 47.2067ZM57.7463 47.1068C58.34 47.2721 58.3357 47.2682 60.6542 49.6703C61.3853 50.4277 62.5553 51.6332 63.2544 52.3493L64.5253 53.6512L61.536 56.6195C58.2996 59.8333 58.086 60.0383 57.9758 60.0383C57.9354 60.0383 57.8928 60.0392 57.8809 60.0403C57.8691 60.0413 57.6768 60.0972 57.4535 60.1645C57.1884 60.2445 57.029 60.2569 56.994 60.2002C56.9376 60.1089 58.7474 58.2309 61.6786 55.339L63.4356 53.6055L60.4574 50.5622C58.8193 48.8884 57.3616 47.4225 57.2182 47.3047C56.755 46.9244 56.8984 46.8707 57.7463 47.1068ZM63.304 47.126C63.9972 47.4802 64.2951 48.1676 64.0223 48.7838C63.8182 49.2447 63.6958 49.3471 63.2667 49.4158C62.9875 49.4605 62.8968 49.4379 62.7633 49.2902C62.5376 49.0405 62.6884 48.7141 63.0755 48.6142C63.4472 48.5182 63.4917 48.2472 63.1862 47.9413C63.0024 47.7571 62.9088 47.7248 62.6865 47.7684C62.0517 47.8928 61.6445 48.4619 61.7157 49.125L61.7588 49.5265L60.6161 48.36C59.9877 47.7185 59.4582 47.17 59.4397 47.1411C59.4211 47.1122 59.6411 47.0773 59.9285 47.0634C60.4483 47.0383 60.453 47.0402 60.8021 47.4196L61.1533 47.801L61.3965 47.5415C61.9149 46.9885 62.7001 46.8174 63.304 47.126ZM69.1944 47.106C69.2638 47.1448 69.8269 47.6552 70.4459 48.2402L71.5713 49.3038L72.4529 48.4304C73.758 47.1374 74.1676 46.9028 74.9736 46.9861C75.5903 47.0498 76.1149 47.4019 77.0564 48.3842C77.9836 49.3514 78.092 49.5424 78.0923 50.2105C78.0928 51.0704 77.9399 51.3157 76.4085 52.9096L75.776 53.568L76.4391 54.2003C77.8576 55.5532 78.075 55.8765 78.1543 56.7529C78.2156 57.4299 78.0544 57.7126 76.9592 58.8494C75.962 59.8845 75.4288 60.2081 74.7177 60.2095C74.0544 60.2109 73.749 60.0179 72.5781 58.8577L71.4789 57.7684L70.7692 58.4682C69.3465 59.8712 68.9681 60.1404 68.3464 60.1921C68.0942 60.213 67.7579 60.1862 67.5991 60.1326C67.1662 59.9866 65.5378 58.3774 65.2548 57.816C64.7407 56.7961 64.8912 56.1378 65.8748 55.1046C66.1974 54.7657 66.6402 54.2789 66.859 54.0228L67.2566 53.5572L66.3931 52.6461C65.2992 51.4918 65.0353 51.05 65.0342 50.3713C65.0338 50.078 65.0932 49.7418 65.1768 49.5654C65.3812 49.134 67.1163 47.3551 67.5485 47.1338C67.8498 46.9795 68.0102 46.9554 68.49 46.9917C68.8082 47.0157 69.1252 47.0671 69.1944 47.106ZM71.9916 47.0349L72.4631 47.0456L72.0169 47.4925L71.5708 47.9394L71.1037 47.514C70.8467 47.28 70.6323 47.0649 70.6273 47.0358C70.6222 47.0068 70.8209 46.9923 71.069 47.0036C71.3172 47.0149 71.7323 47.029 71.9916 47.0349ZM51.003 47.2133C51.2013 47.3035 51.41 47.4518 51.4668 47.5429C51.5645 47.6997 51.5876 47.691 51.901 47.3771C52.2284 47.0492 52.2391 47.0456 52.8978 47.0469C53.783 47.0487 53.9167 47.1408 53.5239 47.4783C53.2984 47.6721 53.1409 47.734 52.873 47.734C52.4701 47.734 52.3245 47.8582 51.8902 48.5729C51.7393 48.8214 51.5864 49.0246 51.5505 49.0246C51.4338 49.0246 51.2253 48.7292 51.166 48.4795C51.1341 48.3452 51.0097 48.1369 50.8895 48.0165C50.6871 47.8138 50.6315 47.8018 50.1339 47.8528C49.683 47.8991 49.5747 47.8834 49.4585 47.7548C49.2872 47.5653 49.316 47.3175 49.5273 47.1628C49.7612 46.9914 50.5764 47.0194 51.003 47.2133ZM55.9263 47.102C55.9263 47.133 55.356 47.7254 54.6591 48.4183C52.4137 50.6506 50.7319 52.4206 50.4474 52.8509C50.1234 53.3407 50.1015 53.6296 50.3514 54.1201C50.454 54.3214 51.3794 55.3387 52.4812 56.4614C55.0636 59.0924 56.0966 60.2431 55.9087 60.2793C55.8295 60.2946 55.6675 60.2433 55.5485 60.1653C55.4297 60.0873 55.2924 60.0483 55.2435 60.0786C55.1446 60.1398 54.4259 59.6752 54.3163 59.4791C54.2778 59.4104 53.2971 58.3948 52.1368 57.2224C49.7364 54.7968 49.8263 54.9443 49.8263 53.4311C49.8263 52.587 49.8294 52.5745 50.1585 52.071C50.6046 51.3889 54.7108 47.2941 55.0853 47.158C55.3919 47.0466 55.9263 47.011 55.9263 47.102ZM66.0644 47.0866C66.0644 47.1541 65.2116 48.0283 65.1859 47.9871C65.173 47.9662 65.056 47.7459 64.926 47.4974L64.6898 47.0456H65.3771C65.7551 47.0456 66.0644 47.064 66.0644 47.0866ZM5.85973 47.847C5.57191 48.0073 3.94818 49.6351 3.80968 49.9023C3.74344 50.0302 3.68931 50.2742 3.68931 50.4447C3.68931 50.7256 3.78898 50.8564 4.74737 51.8338L5.80534 52.9128L7.26042 51.4369C8.06064 50.6251 8.72786 49.9259 8.74307 49.8828C8.77142 49.8028 7.38861 48.4405 6.81821 47.9865C6.48056 47.7178 6.17263 47.673 5.85973 47.847ZM12.132 47.8846C11.9207 48.0003 10.0471 49.7583 10.0471 49.8409C10.0471 49.8504 10.7334 50.5641 11.5721 51.4268C13.0832 52.9812 13.0987 52.994 13.269 52.8318C13.7754 52.3494 14.7547 51.2046 14.9228 50.8983C15.1565 50.473 15.1614 50.2913 14.9518 49.8421C14.7456 49.4003 13.3666 48.0396 12.9495 47.8666C12.5451 47.6987 12.4685 47.7004 12.132 47.8846ZM67.9026 47.8445C67.5186 48.0665 66.1264 49.4278 65.9679 49.7363C65.7647 50.132 65.74 50.5427 65.9009 50.8495C66.0691 51.1701 67.7856 52.9104 67.9022 52.8785C67.9546 52.8641 68.6536 52.1844 69.4554 51.3681L70.9133 49.884L70.2716 49.2302C69.2228 48.1615 68.6743 47.7335 68.3582 47.737C68.2071 47.7387 68.0021 47.7871 67.9026 47.8445ZM74.304 47.8852C74.1813 47.9676 73.6514 48.437 73.1264 48.9282L72.1718 49.8212L73.6921 51.3955C74.9365 52.6839 75.2348 52.9514 75.3352 52.8687C75.6269 52.6285 77.0787 50.9623 77.1986 50.73C77.4697 50.2048 77.1006 49.5596 75.9722 48.5861C74.9077 47.6677 74.7352 47.5953 74.304 47.8852ZM25.3194 49.1223C25.3072 49.1546 25.0895 49.4001 24.8356 49.6681L24.3741 50.1552L24.1284 49.9196C23.9934 49.7899 23.7807 49.5363 23.6559 49.3559L23.429 49.028L23.8868 48.5518L24.3448 48.0757L24.8432 48.5696C25.1172 48.8414 25.3316 49.09 25.3194 49.1223ZM56.9546 48.6347L57.4185 49.1052L57.2552 49.3015C56.9195 49.705 56.4908 50.1432 56.4318 50.1432C56.3982 50.1432 56.1682 49.8884 55.9206 49.5769L55.4707 49.0104L55.9255 48.5874C56.1756 48.3546 56.405 48.1642 56.4355 48.1642C56.4658 48.1642 56.6994 48.376 56.9546 48.6347ZM6.77499 49.2886L7.41198 49.8919L7.11866 50.1372L6.82525 50.3825L6.50281 50.0907C6.32548 49.9303 6.14531 49.799 6.10235 49.799C6.0594 49.799 5.92657 49.9154 5.80715 50.0576L5.58987 50.3161L5.8483 50.5954C6.25503 51.035 6.27273 51.1049 6.04814 51.387C5.84624 51.6405 5.84598 51.6406 5.65757 51.4728C5.20316 51.068 4.64195 50.3089 4.68989 50.1639C4.73629 50.0235 6.00158 48.6947 6.09497 48.6882C6.11859 48.6866 6.42463 48.9568 6.77499 49.2886ZM69.2604 49.6865L69.4922 49.8599L69.2019 50.1417L68.9116 50.4235L68.5835 50.112C68.403 49.9407 68.2097 49.8002 68.1542 49.7998C68.0511 49.799 67.6968 50.1997 67.6968 50.317C67.6968 50.3525 67.8522 50.5326 68.0421 50.7172L68.3874 51.0528L68.0847 51.3465L67.7821 51.6403L67.4334 51.3005C67.2416 51.1135 67.0048 50.8319 66.9073 50.6746C66.6798 50.3078 66.7264 50.2076 67.5287 49.3413L68.1518 48.6684L68.5902 49.0907C68.8313 49.323 69.1328 49.5911 69.2604 49.6865ZM75.5778 49.3884C75.9687 49.7778 76.2884 50.167 76.2884 50.2532C76.2884 50.5065 76.0717 50.8481 75.65 51.2591L75.2555 51.6437L74.9883 51.3761L74.7211 51.1085L75.0698 50.7297L75.4185 50.3508L75.2029 50.075C75.0842 49.9232 74.9433 49.799 74.8897 49.799C74.836 49.799 74.6456 49.9423 74.4667 50.1174L74.1411 50.4357L73.845 50.1482L73.5489 49.8608L74.1669 49.2743C74.5068 48.9517 74.8035 48.6861 74.8261 48.6841C74.8487 48.6821 75.187 48.9991 75.5778 49.3884ZM13.4768 49.4792C13.8586 49.8475 14.1711 50.2173 14.1711 50.301C14.1711 50.3847 13.9387 50.7276 13.6546 51.063L13.1382 51.6729L12.8337 51.368L12.5291 51.0629L12.8945 50.69L13.2599 50.3172L13.0121 50.0581C12.8758 49.9156 12.7248 49.799 12.6766 49.799C12.6284 49.799 12.4396 49.9443 12.2571 50.1217L11.9254 50.4444L11.7165 50.2029C11.6017 50.0702 11.5077 49.9294 11.5077 49.8902C11.5077 49.784 12.6289 48.7533 12.7115 48.7835C12.7505 48.7978 13.0949 49.1109 13.4768 49.4792ZM18.7231 49.9496C18.7222 49.9852 17.913 50.8433 16.9247 51.8566L15.1279 53.6992L16.8798 55.4383C17.8432 56.3948 18.6074 57.2016 18.5778 57.2311C18.385 57.4242 18.0676 57.1668 16.4432 55.4995C15.4865 54.5174 14.6741 53.6851 14.638 53.6497C14.602 53.6143 14.7876 53.382 15.0507 53.1334C15.3138 52.8849 16.1167 52.0524 16.8351 51.2833C18.0267 50.0077 18.1667 49.8851 18.4329 49.8851C18.5934 49.8851 18.7239 49.9141 18.7231 49.9496ZM23.1241 50.245C23.252 50.3345 23.4372 50.5104 23.5357 50.6357L23.7147 50.8637L23.5051 51.0737L23.2954 51.2837L22.9995 51.0576C22.8367 50.9333 22.6008 50.8316 22.4754 50.8316C22.1156 50.8316 22.1672 51.2247 22.5982 51.7668C22.7912 52.0096 22.9748 52.2088 23.0063 52.2094C23.0377 52.21 23.334 52.4418 23.6648 52.7245C23.9956 53.0073 24.2983 53.2391 24.3374 53.2397C24.443 53.2413 25.5788 52.2883 26.0558 51.7978C26.3897 51.4544 26.4652 51.3225 26.4424 51.1228C26.4047 50.7916 26.1303 50.7561 25.7946 51.039L25.5379 51.2553L25.3102 51.0172C25.1849 50.8863 25.0824 50.7356 25.0824 50.6825C25.0824 50.5468 25.6661 50.0803 25.9138 50.018C26.5215 49.8653 27.3162 50.4648 27.3162 51.076C27.3162 51.4797 27.1247 51.7489 26.1047 52.7788L25.3266 53.5644L25.8353 53.9564C27.3079 55.0914 27.7161 56.0858 26.968 56.7162C26.6627 56.9736 26.1212 57.1396 25.8278 57.0659C25.5711 57.0014 24.9965 56.5351 24.9965 56.3912C24.9965 56.3326 25.1054 56.1801 25.2385 56.0525L25.4804 55.8203L25.683 56.0363C25.7944 56.1551 25.953 56.2524 26.0355 56.2524C26.4821 56.2524 26.5769 55.977 26.2917 55.5086C26.0942 55.1842 24.4981 53.8431 24.3096 53.8431C24.2027 53.8431 22.9778 54.9267 22.6466 55.3142C22.4026 55.5997 22.3313 55.7528 22.3506 55.9498C22.3837 56.287 22.6843 56.3427 23.0421 56.0779L23.298 55.8883L23.551 56.1416L23.8038 56.3949L23.4766 56.7142C23.2966 56.8897 23.0621 57.0555 22.9554 57.0825C22.3265 57.2421 21.474 56.6415 21.474 56.0389C21.474 55.5371 21.6801 55.2162 22.5531 54.3587L23.3661 53.5603L22.8294 53.0778C21.8576 52.2045 21.388 51.5782 21.388 51.1553C21.388 50.6374 22.2068 49.9242 22.6768 50.0327C22.7949 50.0599 22.9962 50.1555 23.1241 50.245ZM64.2574 51.5649C65.0798 52.4415 65.8768 53.2535 66.0285 53.3694L66.3043 53.5801L65.3896 54.5161C64.8866 55.0309 64.0883 55.8649 63.6158 56.3694C62.7284 57.3169 62.5846 57.4238 62.376 57.2908C62.198 57.1774 62.4941 56.8182 64.1879 55.093C65.0473 54.2176 65.5986 53.592 65.5639 53.5315C65.532 53.476 64.7618 52.6688 63.8521 51.7379C62.9424 50.8069 62.1982 50.0285 62.1982 50.0082C62.1982 49.9878 62.3251 49.9711 62.4802 49.9711C62.7349 49.9711 62.9067 50.1251 64.2574 51.5649ZM55.3464 50.3613C55.5708 50.5262 55.7545 50.7121 55.7545 50.7744C55.7545 50.8367 55.6607 50.976 55.546 51.0839L55.3374 51.28L55.0438 51.0558C54.6815 50.779 54.5737 50.7751 54.4555 51.0347C54.2881 51.4028 54.5419 51.7338 55.7885 52.7727L56.3809 53.2664L56.6901 53.1031C57.1092 52.8816 58.4847 51.497 58.5519 51.2289C58.6642 50.7807 58.3691 50.7059 57.8582 51.053L57.5323 51.2745L57.32 51.0619C57.1099 50.8514 57.1094 50.8471 57.2688 50.6344C57.7878 49.9417 58.4821 49.8791 59.0372 50.4751C59.2126 50.6635 59.383 50.9245 59.4157 51.0551C59.5113 51.4366 59.1583 51.9723 58.2428 52.8351L57.4134 53.6166L58.223 54.3918C59.3789 55.4985 59.6035 56.0389 59.1379 56.593C58.8354 56.9531 58.5021 57.1128 58.053 57.1128C57.7303 57.1128 57.6337 57.0658 57.3429 56.7676L57.0063 56.4223L57.2318 56.1964L57.4573 55.9707L57.772 56.1655C58.0324 56.3265 58.1229 56.3438 58.2954 56.2651C58.6988 56.081 58.569 55.839 57.5385 54.8545C57.0062 54.346 56.5178 53.9298 56.4531 53.9295C56.2684 53.929 54.7456 55.2067 54.5465 55.5293C54.3028 55.9244 54.3505 56.2011 54.6688 56.2375C54.8421 56.2574 54.9835 56.2 55.1465 56.0435L55.378 55.8215L55.6186 56.0729C55.8572 56.3224 55.8578 56.3259 55.6994 56.5411C55.4609 56.8651 55.1764 56.9849 54.675 56.9728C53.991 56.9563 53.5162 56.5159 53.5273 55.9082C53.5357 55.4463 53.5885 55.3684 54.5522 54.3978C55.1109 53.835 55.4153 53.4685 55.3552 53.4307C55.0452 53.2358 54.1537 52.3724 53.8875 52.0092C53.6354 51.6652 53.5745 51.5047 53.5696 51.1704C53.5646 50.8246 53.6057 50.7125 53.8214 50.4842C54.3152 49.9615 54.7541 49.9261 55.3464 50.3613ZM69.9941 52.0113L68.4681 53.534L69.9837 55.0603L71.4993 56.5867L72.4118 55.7073C72.9137 55.2236 73.6255 54.5397 73.9935 54.1875L74.6627 53.5471L73.1344 52.0183C72.2938 51.1775 71.5867 50.4894 71.5631 50.4891C71.5394 50.4889 70.8334 51.1739 69.9941 52.0113ZM7.86467 52.0058C7.02982 52.7936 6.35778 53.465 6.37127 53.4978C6.38468 53.5306 7.0842 54.2286 7.92575 55.0489L9.45583 56.5405L10.4173 55.5932C10.9461 55.0721 11.63 54.4074 11.9371 54.1161L12.4954 53.5865L10.993 52.08C10.1666 51.2514 9.46614 50.5734 9.4365 50.5734C9.40678 50.5734 8.69943 51.218 7.86467 52.0058ZM24.6528 52.1653L24.3582 52.4697L24.0726 52.1836L23.7869 51.8974L24.0695 51.5876L24.3521 51.2776L24.6498 51.5692L24.9475 51.8608L24.6528 52.1653ZM56.8304 51.608L57.0792 51.8681L56.7606 52.1873L56.4421 52.5063L56.1659 52.2298L55.8897 51.9532L56.1826 51.6505C56.3437 51.484 56.4994 51.3478 56.5285 51.3478C56.5576 51.3478 56.6935 51.4649 56.8304 51.608ZM40.253 51.8856C40.1653 52.0395 39.9945 52.2723 39.8736 52.4031L39.6538 52.6408L39.8951 52.8333C40.0278 52.9391 40.2154 53.0935 40.312 53.1763C40.4087 53.2591 40.5124 53.3269 40.5426 53.3269C40.5728 53.3269 40.7607 53.1604 40.9601 52.9568L41.3227 52.5867L41.0562 52.333C40.9096 52.1934 40.7342 51.9728 40.6663 51.8426C40.5077 51.5384 40.4475 51.5447 40.253 51.8856ZM10.31 52.6821C10.7561 53.132 11.1303 53.5289 11.1417 53.5641C11.1531 53.5993 10.7731 54.0152 10.2973 54.4885L9.43221 55.3489L8.59014 54.4575L7.74808 53.5661L8.57545 52.719C9.03046 52.2531 9.42439 51.8701 9.45085 51.868C9.4774 51.8658 9.86402 52.2322 10.31 52.6821ZM29.2352 54.2475C28.865 54.5961 28.47 54.9458 28.3576 55.0247C28.1624 55.1617 28.1459 55.1592 27.9921 54.9688L27.8309 54.7695L28.3468 54.2171C28.6306 53.9133 28.8627 53.6321 28.8627 53.5922C28.8627 53.5524 28.6079 53.2595 28.2965 52.9414L27.7303 52.363L27.9743 52.1057L28.2184 51.8484L29.0634 52.7311L29.9083 53.6138L29.2352 54.2475ZM71.8494 52.1868C71.9725 52.3643 72.325 52.7566 72.6328 53.0588L73.1924 53.6081L72.7713 54.0914C72.5397 54.3571 72.1615 54.759 71.9309 54.9844L71.5117 55.3943L71.037 54.8984C70.7759 54.6256 70.3772 54.2331 70.151 54.0262L69.7398 53.65L70.6285 52.7571C71.1171 52.2659 71.5415 51.8641 71.5713 51.8641C71.6012 51.8641 71.7263 52.0093 71.8494 52.1868ZM20.7491 52.2155L21.0014 52.4809L20.4596 52.9922L19.9178 53.5037L20.4811 54.1217C20.7909 54.4617 21.0444 54.7678 21.0444 54.8019C21.0444 54.836 20.9261 54.9483 20.7815 55.0514L20.5185 55.2389L19.7546 54.4335C19.3345 53.9905 18.9888 53.5707 18.9865 53.5008C18.9827 53.3836 20.3323 51.9501 20.4465 51.9501C20.4741 51.9501 20.6103 52.0696 20.7491 52.2155ZM52.7918 52.2097L53.04 52.4692L52.5501 52.965C52.2806 53.2378 52.0601 53.5168 52.0601 53.585C52.0601 53.6532 52.2766 53.9282 52.5413 54.1961L53.0225 54.6831L52.8751 54.9084C52.794 55.0323 52.6798 55.1338 52.6213 55.1338C52.4717 55.1338 51.0291 53.7667 51.0291 53.625C51.0291 53.5164 52.3886 51.9685 52.4951 51.9559C52.5217 51.9527 52.6551 52.0669 52.7918 52.2097ZM61.8716 53.6296C61.8386 53.6844 61.4407 54.0828 60.9874 54.5149L60.1632 55.3005L59.9173 55.0434L59.6714 54.7864L60.2475 54.205C60.5643 53.8853 60.8235 53.5904 60.8235 53.5498C60.8235 53.5091 60.6109 53.2825 60.351 53.0464C60.0911 52.8101 59.8785 52.5859 59.8785 52.5482C59.8785 52.5105 59.981 52.3575 60.1065 52.2083L60.3345 51.9369L61.1331 52.7334C61.611 53.2099 61.9075 53.5699 61.8716 53.6296ZM3.39248 53.1118C3.8419 53.6387 3.84757 53.5886 3.26841 54.2088C3.10268 54.3863 2.93626 54.5315 2.89863 54.5315C2.861 54.5315 2.83015 54.1056 2.83015 53.585C2.83015 53.0642 2.86581 52.6385 2.90945 52.6385C2.95301 52.6385 3.17038 52.8515 3.39248 53.1118ZM78.0919 53.6065L78.0911 54.5745L77.6227 54.1013C77.3651 53.841 77.1528 53.5906 77.1509 53.5449C77.147 53.4468 77.9264 52.6385 78.025 52.6385C78.0623 52.6385 78.0923 53.0741 78.0919 53.6065ZM9.06723 53.243C8.72357 53.6241 8.73122 53.7146 9.13983 54.0974L9.36528 54.3085L9.7592 53.9141L10.153 53.5197L9.82089 53.2104C9.63815 53.0404 9.46417 52.9002 9.43418 52.899C9.40428 52.8977 9.23915 53.0525 9.06723 53.243ZM27.3605 53.2421L27.6974 53.5877L27.3778 53.9077L27.0583 54.2277L26.6963 53.865L26.3341 53.5024L26.6273 53.1995C26.7885 53.0329 26.9436 52.8966 26.972 52.8966C27.0004 52.8966 27.1753 53.0521 27.3605 53.2421ZM54.2258 53.8066C53.8709 54.2335 53.7715 54.2418 53.4598 53.8705L53.184 53.542L53.4988 53.2191L53.8137 52.8962L54.1361 53.2115L54.4584 53.5267L54.2258 53.8066ZM59.4449 53.2787L59.6558 53.5044L59.2947 53.866L58.9336 54.2277L58.6266 53.9202L58.3196 53.6128L58.6378 53.2578C58.9863 52.869 59.0641 52.871 59.4449 53.2787ZM71.1148 53.2768L70.7954 53.6407L71.1612 54.0002L71.527 54.3597L71.9063 53.9726L72.2857 53.5854L71.9499 53.2411C71.7652 53.0516 71.5736 52.9002 71.5241 52.9047C71.4746 52.9092 71.2904 53.0766 71.1148 53.2768ZM22.088 53.3053L22.3933 53.628L22.0806 53.9013L21.7678 54.1746L21.4276 53.8867L21.0873 53.5988L21.3834 53.2908C21.5463 53.1213 21.7027 52.9827 21.7311 52.9827C21.7595 52.9827 21.9201 53.1279 22.088 53.3053ZM38.9947 53.2052C38.9331 53.2794 38.6939 53.4361 38.4631 53.5532L38.0433 53.7663L38.5679 54.1058C38.8565 54.2926 39.1137 54.4454 39.1396 54.4454C39.1655 54.4454 39.3581 54.3048 39.5675 54.133C39.9917 53.7848 39.9892 53.7701 39.4272 53.3243C39.1411 53.0974 39.0947 53.0846 38.9947 53.2052ZM41.4068 53.4556C41.1831 53.6839 41.0614 53.8709 41.1097 53.912C41.311 54.083 41.8291 54.4454 41.8722 54.4454C41.9573 54.4454 42.8671 53.8084 42.8671 53.7489C42.8671 53.703 41.8766 53.0687 41.8049 53.0687C41.7944 53.0687 41.6154 53.2428 41.4068 53.4556ZM5.65104 54.1781C5.63532 54.2203 5.26132 54.6317 4.82006 55.0921C3.88065 56.0723 3.69009 56.3566 3.68966 56.7785C3.68923 57.1405 3.81174 57.3139 4.61248 58.0848C6.02142 59.4412 6.20356 59.5044 6.96787 58.9027C7.43251 58.5369 8.78603 57.199 8.74024 57.1507C8.37389 56.7641 5.72415 54.1013 5.70577 54.1013C5.69142 54.1013 5.66685 54.1358 5.65104 54.1781ZM11.5573 55.6663L10.0176 57.1599L10.8271 57.9446C12.0989 59.1775 12.3308 59.35 12.7172 59.35C13.0138 59.35 13.1374 59.2726 13.817 58.6616C14.688 57.8787 15.1535 57.2288 15.1417 56.8125C15.1294 56.3779 14.9246 56.0745 13.9794 55.0908L13.0971 54.1728L11.5573 55.6663ZM67.0182 55.0654C66.0026 56.1224 65.8067 56.4084 65.8067 56.8332C65.8067 57.2251 66.1334 57.7808 66.6316 58.2364C67.7474 59.2565 67.8751 59.35 68.1531 59.35C68.548 59.35 68.8658 59.1165 70.1758 57.8641L70.8935 57.1778L70.2618 56.5366C69.9142 56.1839 69.224 55.5194 68.7278 55.06L67.8257 54.2248L67.0182 55.0654ZM73.6823 55.7163L72.1566 57.2309L72.9982 58.0795C73.8208 58.9091 74.4866 59.436 74.712 59.436C75.0771 59.436 76.5814 58.1236 77.111 57.3431C77.3384 57.0079 77.3769 56.582 77.2074 56.2765C77.043 55.9803 76.0908 54.9421 75.6262 54.5525L75.208 54.2018L73.6823 55.7163ZM40.0505 54.6255L39.6825 54.9731L39.8932 55.2239C40.0091 55.3618 40.1724 55.6303 40.2562 55.8205C40.34 56.0107 40.4351 56.1663 40.4675 56.1663C40.5 56.1663 40.5752 56.0486 40.6347 55.9047C40.6943 55.7608 40.8537 55.4898 40.9892 55.3025L41.2355 54.962L40.881 54.6392C40.6861 54.4616 40.5022 54.3078 40.4725 54.2972C40.4428 54.2866 40.2529 54.4343 40.0505 54.6255ZM24.7036 54.8832L24.9774 55.149L24.6648 55.4373L24.3521 55.7254L24.0727 55.4555L23.7932 55.1856L24.068 54.9016C24.2192 54.7453 24.3625 54.6175 24.3864 54.6175C24.4103 54.6175 24.5531 54.7371 24.7036 54.8832ZM56.6893 55.4636L56.3989 55.7249L56.1194 55.4552L55.8399 55.1856L56.1163 54.8999L56.3928 54.6142L56.6862 54.9082L56.9797 55.2022L56.6893 55.4636ZM5.92459 56.2607C5.73481 56.4345 5.57947 56.6083 5.57947 56.647C5.57947 56.6858 5.70336 56.8454 5.85475 57.0018L6.13002 57.2863L6.49671 56.9259C6.8616 56.5672 6.86426 56.5662 7.04554 56.7306C7.44187 57.0898 7.42899 57.1704 6.89751 57.653C6.62541 57.9001 6.32617 58.1774 6.2326 58.2692C6.06369 58.4348 6.05733 58.4307 5.3914 57.7192C4.56935 56.8412 4.55019 56.721 5.12841 56.0686C5.35291 55.8153 5.57517 55.5626 5.62243 55.507C5.68583 55.4324 5.7818 55.4764 5.98903 55.6753L6.26972 55.9448L5.92459 56.2607ZM75.729 55.9297C75.9485 56.1782 76.1854 56.4898 76.2556 56.6223C76.3727 56.8434 76.3683 56.8873 76.2014 57.1576C76.0156 57.4587 74.9992 58.4036 74.8613 58.4034C74.8193 58.4033 74.5011 58.1419 74.1544 57.8226L73.5237 57.2419L73.8136 56.9633L74.1034 56.6848L74.5286 57.0367L74.9538 57.3886L75.1915 57.1033C75.3223 56.9465 75.4293 56.7816 75.4293 56.737C75.4293 56.6925 75.2814 56.5151 75.1007 56.343L74.7722 56.0299L74.9933 55.7542C75.115 55.6026 75.2405 55.4784 75.2722 55.4782C75.304 55.478 75.5096 55.6812 75.729 55.9297ZM14.0852 56.7278C14.0852 56.9454 13.5784 57.6351 12.9911 58.217L12.7884 58.4178L12.5132 58.1984C12.3619 58.0778 12.064 57.8258 11.8513 57.6384L11.4647 57.2977L11.7155 57.0348L11.9664 56.7718L12.3504 57.087L12.7345 57.4022L13.0369 57.0717L13.3393 56.7412L13.025 56.4526C12.852 56.2938 12.7105 56.1376 12.7105 56.1053C12.7105 56.073 12.8165 55.9358 12.9462 55.8003L13.1818 55.5539L13.6335 56.0247C13.9511 56.3556 14.0852 56.5644 14.0852 56.7278ZM67.9497 56.3997L67.5838 56.7415L67.8766 57.0572L68.1694 57.3729L68.5509 57.0674L68.9325 56.7617L69.1909 57.0206C69.333 57.1629 69.4309 57.2903 69.4084 57.3036C69.3859 57.317 69.0892 57.597 68.7491 57.9257L68.1308 58.5236L67.9031 58.3129C67.7779 58.1971 67.487 57.8545 67.2566 57.5517C66.6884 56.805 66.6963 56.6316 67.3259 56.0257L67.8143 55.5558L68.0649 55.8069L68.3155 56.0579L67.9497 56.3997ZM31.5306 56.575C32.0031 57.7664 32.685 58.964 33.392 59.8447L33.6856 60.2104H33.2997C32.9284 60.2104 32.8956 60.1885 32.43 59.6296C32.1638 59.3102 31.8065 58.8165 31.6359 58.5325C31.4652 58.2486 31.3125 58 31.2967 57.98C31.2808 57.9602 31.1734 58.0327 31.058 58.1412C30.8057 58.3785 30.452 58.3299 30.3619 58.0455C30.3158 57.9 30.3792 57.7876 30.6568 57.523C30.9815 57.2136 31.0063 57.1591 30.9585 56.8592C30.9081 56.5443 31.0927 56.0803 31.2683 56.0803C31.3046 56.0803 31.4227 56.3029 31.5306 56.575ZM49.9122 56.959C49.9122 57.2783 49.959 57.3826 50.2129 57.6291C50.5664 57.9722 50.5951 58.1978 50.3023 58.3314C50.1335 58.4085 50.0478 58.3995 49.8758 58.2866C49.7574 58.2089 49.6238 58.1453 49.5789 58.1453C49.5341 58.1453 49.3621 58.3874 49.1966 58.6831C48.9018 59.2102 48.1488 60.1659 47.9791 60.2285C47.9318 60.2458 47.7446 60.2392 47.563 60.2138L47.2329 60.1674L47.7809 59.522C48.635 58.5165 49.0783 57.6924 49.5334 56.2638C49.6123 56.0162 49.9122 56.5667 49.9122 56.959ZM24.8687 57.6224L25.316 58.0461L24.8546 58.5024L24.3932 58.9588L23.9452 58.5102L23.4973 58.0615L23.9214 57.6302C24.1548 57.393 24.3627 57.1988 24.3836 57.1988C24.4044 57.1988 24.6227 57.3895 24.8687 57.6224ZM56.9068 57.6213L57.3223 58.0439L56.9132 58.4818C56.6883 58.7227 56.4602 58.9197 56.4064 58.9197C56.3525 58.9197 56.1194 58.7244 55.8882 58.4857L55.4677 58.0517L55.8871 57.6253C56.1177 57.3907 56.3481 57.1988 56.3989 57.1988C56.4496 57.1988 56.6783 57.389 56.9068 57.6213ZM21.3236 59.8715C21.4536 59.9803 21.5599 60.0946 21.5599 60.1255C21.5599 60.1563 21.3376 60.1645 21.0659 60.1437C20.6211 60.1097 20.5329 60.0682 20.1823 59.7279C19.968 59.5201 19.766 59.35 19.7334 59.35C19.7008 59.35 19.6162 59.4622 19.5454 59.5993C19.2841 60.1052 18.1895 60.3844 17.6249 60.089C17.1715 59.8518 16.8988 59.4743 16.8556 59.024C16.7867 58.3051 17.2099 57.7604 17.7934 57.8167C18.0163 57.8383 18.0955 57.8967 18.1627 58.0891C18.2337 58.2926 18.2202 58.3546 18.0834 58.4548C17.9927 58.5213 17.8334 58.5756 17.7294 58.5756C17.3233 58.5756 17.4175 59.1641 17.8526 59.3446C18.2219 59.4979 18.5876 59.3879 18.9022 59.0291C19.1535 58.7424 19.1703 58.6841 19.1363 58.2132L19.0997 57.7061L20.0935 58.6898C20.6401 59.231 21.1936 59.7627 21.3236 59.8715ZM61.7838 58.2957C61.7466 58.958 61.866 59.2415 62.2495 59.402C62.8076 59.6355 63.3562 59.354 63.3001 58.8628C63.2804 58.6907 63.2215 58.615 63.1003 58.6062C63.0058 58.5994 62.8828 58.5898 62.8268 58.5847C62.6457 58.5684 62.6062 58.2341 62.7579 58.0022C63.0147 57.6099 63.6694 57.8418 63.9748 58.4331C64.2872 59.0382 63.6262 60.1762 62.9073 60.271C62.3405 60.3457 61.785 60.1478 61.3749 59.7253L61.0199 59.3594L60.7284 59.6661C60.3827 60.0299 59.9996 60.2104 59.5736 60.2104H59.2633L59.6996 59.7156C60.1073 59.2532 61.6736 57.8046 61.7686 57.802C61.7922 57.8013 61.799 58.0236 61.7838 58.2957ZM29.6363 58.468C29.6365 58.5982 29.7119 58.8284 29.804 58.9796C29.9958 59.2945 30.3394 59.3951 31.005 59.331C31.3894 59.294 31.4298 59.3092 31.5658 59.5397C31.8041 59.9436 31.5803 60.0885 30.6101 60.1589C30.1391 60.193 29.6758 60.0262 29.4526 59.742C29.2732 59.5135 29.2717 59.5133 29.1482 59.6898C28.9238 60.0106 28.518 60.1533 27.7547 60.1799C27.3578 60.1936 27.0035 60.1865 26.9673 60.164C26.931 60.1416 27.0588 59.9686 27.2513 59.7797C27.5461 59.4902 27.6577 59.436 27.9582 59.436C28.3368 59.436 28.5229 59.2927 28.9455 58.6764C29.1169 58.4263 29.3614 58.2546 29.5715 58.2368C29.607 58.2339 29.6362 58.3378 29.6363 58.468ZM51.7789 58.4281C51.837 58.4303 51.9265 58.56 51.978 58.7161C52.1188 59.1435 52.5143 59.436 52.9514 59.436C53.2592 59.436 53.363 59.4863 53.639 59.7693L53.964 60.1027L53.4311 60.1413C52.654 60.1976 52.1707 60.1021 51.9098 59.8408L51.6875 59.6182L51.3144 59.8865C50.9739 60.1314 50.8816 60.1553 50.2568 60.1606C49.6814 60.1653 49.5447 60.1387 49.3999 59.9937C49.231 59.8247 49.2308 59.8159 49.3866 59.5592C49.5426 59.3025 49.5569 59.2981 50.1154 59.3337C50.9046 59.3839 51.0587 59.2723 51.3225 58.459C51.3588 58.3473 51.4189 58.3182 51.5238 58.3617C51.6061 58.396 51.7209 58.4258 51.7789 58.4281ZM3.52118 59.0938C3.92739 59.3115 3.92687 59.8693 3.52023 60.0799C3.31592 60.1857 3.26128 60.1847 3.1007 60.072C2.87792 59.9158 2.85258 59.4791 3.04984 59.1971C3.19908 58.9836 3.28173 58.9654 3.52118 59.0938ZM77.9384 59.2424C78.1571 59.4956 78.1761 59.7601 77.9922 59.9942C77.6707 60.4037 77.1476 60.1565 77.1476 59.5951C77.1476 59.148 77.6596 58.9196 77.9384 59.2424ZM10.0471 59.7573L10.4337 60.1243H9.46717C8.93561 60.1244 8.50062 60.091 8.50062 60.0501C8.50062 60.0092 8.69573 59.793 8.93424 59.5696C9.42164 59.1131 9.35694 59.1021 10.0471 59.7573ZM15.9423 59.5436C15.9929 59.7446 16.0602 59.9673 16.0919 60.0383C16.1409 60.1481 16.0514 60.1631 15.4925 60.1386L14.8356 60.11L15.2951 59.6439C15.5479 59.3876 15.7762 59.1779 15.8025 59.1779C15.8288 59.1779 15.8917 59.3425 15.9423 59.5436ZM65.5448 59.6983C65.7834 59.9371 65.9785 60.1404 65.9785 60.15C65.9785 60.1595 65.6885 60.1674 65.3341 60.1674C64.9797 60.1674 64.6898 60.1659 64.6898 60.164C64.6898 60.1622 64.7671 60.0089 64.8616 59.8232C64.9561 59.6375 65.0334 59.4357 65.0334 59.3748C65.0334 59.2032 65.0801 59.2328 65.5448 59.6983ZM71.9596 59.6633C72.2164 59.8831 72.4029 60.0863 72.3742 60.1151C72.3454 60.1439 71.898 60.1674 71.38 60.1674H70.4381L70.9072 59.7156C71.1651 59.4671 71.4023 59.2639 71.4344 59.2639C71.4665 59.2639 71.7027 59.4437 71.9596 59.6633ZM26.6289 64.818C26.6289 64.8333 26.484 64.9294 26.3067 65.0317C25.5902 65.4452 24.9175 66.5864 25.0225 67.2103C25.0637 67.455 24.9672 67.3809 24.0228 66.4423C23.4479 65.871 22.8042 65.2594 22.5923 65.0833L22.2072 64.7629L24.418 64.7766C25.634 64.7841 26.6289 64.8027 26.6289 64.818ZM58.5727 64.8552C58.587 64.856 58.3743 65.0445 58.1002 65.2741C57.826 65.5036 57.2634 66.0469 56.8499 66.4816C56.1857 67.1796 56.0981 67.2456 56.0981 67.0482C56.0981 66.76 55.7833 66.0152 55.5017 65.6374C55.3808 65.4752 55.1186 65.2386 54.919 65.1117C54.7195 64.9848 54.5712 64.8659 54.5897 64.8474C54.6132 64.8238 58.1936 64.8308 58.5727 64.8552ZM18.6341 65.3384C18.3431 65.6425 18.3285 65.6471 17.7796 65.6093C17.4143 65.5842 17.0873 65.4995 16.8345 65.3644L16.4479 65.1579L17.6077 65.1111C18.2457 65.0853 18.8042 65.0563 18.8489 65.0466C18.8936 65.0368 18.797 65.1681 18.6341 65.3384ZM30.4261 65.2655C30.5475 65.3957 30.7251 65.6827 30.8207 65.9034C31.0429 66.4166 31.254 66.5379 31.6807 66.3978C31.8556 66.3404 32.0869 66.236 32.1947 66.1658C32.4603 65.9927 32.4854 66.0477 32.3373 66.4783C32.2679 66.6802 32.1907 66.9736 32.1658 67.1303C32.1229 67.4008 32.2395 68.3694 32.3551 68.7026C32.4216 68.8942 31.1462 67.6587 30.2291 66.643C29.4898 65.8241 29.3882 65.5352 29.7219 65.201C29.9565 64.966 30.1643 64.985 30.4261 65.2655ZM36.2845 65.2206C36.7268 65.3528 37.3319 65.9588 37.4513 66.3893C37.6681 67.1711 37.4084 67.9342 36.8218 68.2391C36.5399 68.3855 36.4519 68.3946 36.1598 68.307C35.5269 68.1171 35.3939 67.3521 35.9938 67.3521C36.4787 67.3521 36.5838 66.7281 36.159 66.3702C35.8448 66.1055 35.584 66.0899 35.1527 66.3104C34.3643 66.7134 34.0619 67.6069 34.4362 68.4276C34.9327 69.5163 36.3221 69.8883 37.6672 69.2925C38.3168 69.0049 38.1459 69.2186 37.3458 69.6947C36.818 70.0087 36.676 70.053 36.0929 70.0856C34.4423 70.1778 33.3256 69.1062 33.3202 67.4249C33.3187 66.9444 33.3615 66.7589 33.5563 66.4004C34.0982 65.4033 35.2414 64.9088 36.2845 65.2206ZM46.2608 65.3203C47.1402 65.7374 47.6245 66.542 47.6132 67.5672C47.6021 68.5746 47.2908 69.2065 46.581 69.6627C45.5673 70.3141 44.5429 70.3107 43.5788 69.6526C42.9226 69.2046 42.8288 69.0378 43.3896 69.3157C44.8793 70.054 46.6386 69.179 46.6453 67.6962C46.6488 66.9187 46.0285 66.2141 45.327 66.1988C44.7844 66.1869 44.5692 66.4004 44.6028 66.9173C44.6273 67.2932 44.6405 67.3108 44.9291 67.3521C45.1895 67.3893 45.2332 67.4299 45.2553 67.6559C45.3157 68.2734 44.3555 68.5958 43.8539 68.1265C43.513 67.8075 43.3826 67.498 43.3826 67.0079C43.3826 65.6266 44.9584 64.7027 46.2608 65.3203ZM51.3498 65.2225C51.5082 65.4252 51.5353 65.7437 51.4142 65.9783C51.2971 66.2051 49.4031 68.1688 48.6326 68.8623C48.2972 69.1642 48.2758 69.1731 48.441 68.9421C48.6271 68.6815 48.8206 67.7973 48.7611 67.4789C48.7436 67.3855 48.701 67.0224 48.6664 66.6722L48.6034 66.0354L48.8497 66.2079C49.1883 66.4452 49.4998 66.5067 49.8116 66.3978C50.0156 66.3266 50.1077 66.2152 50.2201 65.9039C50.2998 65.683 50.4587 65.415 50.5731 65.3085C50.7996 65.0975 51.2161 65.0514 51.3498 65.2225ZM64.5671 65.191C64.476 65.3385 63.743 65.6312 63.4664 65.6303C63.2039 65.6295 62.2841 65.2651 62.2841 65.1619C62.2841 65.1361 62.8084 65.1149 63.449 65.1149C64.1017 65.1149 64.5934 65.1484 64.5671 65.191ZM40.8583 67.9754C41.2376 68.5867 41.9003 69.4075 42.5878 70.1174L43.0575 70.6026L42.4664 70.9136C41.63 71.3538 41.0395 71.9 40.7305 72.5192L40.4722 73.037L40.3069 72.6683C39.9762 71.931 39.1092 71.1409 38.267 70.8096L37.8587 70.6489L38.1823 70.3557C38.5524 70.0204 39.7376 68.5608 40.1848 67.8898C40.3503 67.6413 40.4946 67.4381 40.5053 67.4381C40.5161 67.4381 40.6749 67.6799 40.8583 67.9754ZM40.219 69.2796C40.0696 69.4879 39.775 69.8228 39.5645 70.0238L39.1816 70.3893L39.5504 70.6713C39.7532 70.8264 40.0375 71.1011 40.1821 71.2816L40.445 71.6098L40.9902 71.0395C41.2901 70.7258 41.5934 70.4502 41.6642 70.4271C41.7581 70.3966 41.6948 70.2993 41.432 70.0699C41.2335 69.8967 40.9466 69.5627 40.7947 69.3278C40.6427 69.093 40.5121 68.9009 40.5045 68.9009C40.4968 68.9009 40.3683 69.0713 40.219 69.2796Z" fill="white"/>
</svg>
