<svg width="354" height="223" viewBox="0 0 354 223" fill="none" xmlns="http://www.w3.org/2000/svg">
<path d="M297 34.7329C297 47.0307 306.969 57 319.267 57H330.733C343.031 57 353 66.9693 353 79.2671V200.733C353 213.031 343.031 223 330.733 223H22.2671C9.96933 223 0 213.031 0 200.733V22.2671C0 9.9693 9.96931 0 22.2671 0H274.733C287.031 0 297 9.96931 297 22.2671V34.7329Z" fill="#293A54"/>
<circle cx="328.236" cy="25.236" r="25.236" fill="#B47A4C"/>
<path d="M334.805 30.2512C334.374 30.2512 334.016 29.8937 334.016 29.4625V20.5668L321.693 32.8904C321.535 33.0482 321.335 33.1218 321.136 33.1218C320.936 33.1218 320.736 33.0482 320.578 32.8904C320.273 32.5855 320.273 32.0808 320.578 31.7758L332.902 19.4523H324.006C323.575 19.4523 323.218 19.0947 323.218 18.6636C323.218 18.2325 323.575 17.875 324.006 17.875H334.805C334.91 17.875 335.005 17.896 335.11 17.9381C335.299 18.0117 335.457 18.1694 335.531 18.3587C335.573 18.4638 335.594 18.5585 335.594 18.6636V29.4625C335.594 29.8937 335.236 30.2512 334.805 30.2512Z" fill="white" stroke="white" stroke-width="1.0515"/>
</svg>
