<svg width="322" height="300" viewBox="0 0 322 300" fill="none" xmlns="http://www.w3.org/2000/svg">
<path d="M292 0C308.569 0 322 13.4315 322 30V193C322 209.569 308.569 223 292 223H273C256.431 223 243 236.431 243 253V270C243 286.569 229.569 300 213 300H30C13.4315 300 0 286.569 0 270V30C0 13.4315 13.4315 0 30 0H292Z" fill="#293A54"/>
<circle cx="286" cy="266" r="34" fill="#B47A4C"/>
<path d="M294.852 272.758C294.271 272.758 293.789 272.276 293.789 271.696V259.711L277.186 276.314C276.973 276.526 276.704 276.626 276.435 276.626C276.166 276.626 275.897 276.526 275.684 276.314C275.273 275.903 275.273 275.223 275.684 274.812L292.287 258.209H280.302C279.722 258.209 279.24 257.727 279.24 257.146C279.24 256.566 279.722 256.084 280.302 256.084H294.852C294.993 256.084 295.121 256.112 295.262 256.169C295.517 256.268 295.73 256.481 295.829 256.736C295.886 256.877 295.914 257.005 295.914 257.146V271.696C295.914 272.276 295.432 272.758 294.852 272.758Z" fill="white" stroke="white" stroke-width="1.41667"/>
</svg>
