<svg width="354" height="223" viewBox="0 0 354 223" fill="none" xmlns="http://www.w3.org/2000/svg">
<path d="M330.733 0C343.031 0 353 9.96931 353 22.2671V142.733C353 155.031 343.031 165 330.733 165H319.267C306.969 165 297 174.969 297 187.267V199.733C297 212.031 287.031 222 274.733 222H22.2671C9.96931 222 0 212.031 0 199.733V22.2671C0 9.96931 9.96931 0 22.2671 0H330.733Z" fill="#293A54"/>
<circle cx="328.236" cy="196.951" r="25.236" fill="#B47A4C"/>
<path d="M334.805 201.966C334.374 201.966 334.016 201.609 334.016 201.177V192.282L321.693 204.605C321.535 204.763 321.335 204.837 321.136 204.837C320.936 204.837 320.736 204.763 320.578 204.605C320.273 204.3 320.273 203.796 320.578 203.491L332.902 191.167H324.006C323.575 191.167 323.218 190.81 323.218 190.378C323.218 189.947 323.575 189.59 324.006 189.59H334.805C334.91 189.59 335.005 189.611 335.11 189.653C335.299 189.727 335.457 189.884 335.531 190.074C335.573 190.179 335.594 190.273 335.594 190.378V201.177C335.594 201.609 335.236 201.966 334.805 201.966Z" fill="white" stroke="white" stroke-width="1.0515"/>
</svg>
