<svg width="63" height="66" viewBox="0 0 63 66" fill="none" xmlns="http://www.w3.org/2000/svg">
<path fill-rule="evenodd" clip-rule="evenodd" d="M16.9951 0.0755114C16.7811 0.136519 16.5026 0.147258 15.7963 0.121562C14.6687 0.0805715 14.5887 0.0942912 12.6179 0.665792C9.97194 1.43313 9.5176 1.6116 8.5414 2.26688C7.48061 2.97901 6.68652 3.86803 5.85708 5.2721C4.94556 6.81505 4.58116 7.68354 4.33693 8.89481C4.25897 9.2816 4.11544 9.76943 4.00442 10.0251C3.89697 10.2725 3.80876 10.5598 3.80837 10.6636C3.80798 10.7805 3.75629 10.9139 3.67265 11.0141C3.59832 11.1032 3.48144 11.3219 3.41286 11.5002C3.30652 11.7767 3.28874 11.9277 3.29208 12.5272C3.2942 12.9138 3.29732 16.4941 3.29899 20.4835C3.30245 28.9322 3.30362 28.9597 3.83781 33.1629C4.13295 35.485 4.23572 36.1001 4.42358 36.6668C4.84708 37.9447 5.73976 39.159 7.18357 40.4212C7.46544 40.6677 7.81841 41.0231 7.96785 41.211C8.11734 41.3989 8.39269 41.6755 8.57971 41.8256C8.89671 42.0799 9.76764 42.553 9.91897 42.553C9.95588 42.553 10.1329 42.6637 10.3123 42.799C11.0255 43.3371 11.4755 43.492 12.8852 43.6848C13.4618 43.7637 13.7619 43.8256 13.6926 43.8515C13.6052 43.8841 13.5449 44.0423 13.4048 44.6065C13.2199 45.351 13.2271 45.4768 13.4552 45.4768C13.5417 45.4768 13.5474 45.5031 13.5004 45.6896C13.4549 45.8703 13.4243 45.9021 13.2972 45.9004C13.1651 45.8987 13.1477 45.9199 13.1482 46.0813C13.1485 46.187 13.1203 46.264 13.0812 46.264C12.987 46.264 12.906 46.4281 12.9384 46.5531C12.9533 46.6106 13.0127 46.6576 13.0705 46.6576C13.2272 46.6576 13.1985 46.7873 12.977 47.0799C12.814 47.2953 12.785 47.3724 12.8152 47.5108C12.8442 47.6442 12.8275 47.6967 12.7349 47.7621C12.6502 47.8219 12.6179 47.9051 12.6179 48.0632C12.6179 48.1833 12.5923 48.2975 12.5609 48.3171C12.4622 48.3786 12.1951 48.9649 11.9335 49.6939C11.7948 50.0805 11.4559 50.9787 11.1804 51.69C10.6676 53.0139 10.1617 54.5062 10.0558 55.0074C10.023 55.1621 9.98421 55.3425 9.96943 55.4084C9.95471 55.4742 9.89215 55.5415 9.83048 55.5577C9.74762 55.5796 9.71834 55.6343 9.71834 55.7672C9.71834 55.8921 9.67574 55.9809 9.57894 56.0577C9.50227 56.1185 9.43954 56.2 9.43954 56.2387C9.43954 56.326 9.6739 56.5537 9.76373 56.5537C9.84386 56.5537 9.84559 56.6036 9.776 56.9083C9.74639 57.038 9.69414 57.291 9.65991 57.4706C9.6124 57.7196 9.57649 57.7931 9.50885 57.7799C9.44428 57.7673 9.41896 57.694 9.4159 57.5106C9.41249 57.3082 9.39047 57.2544 9.30382 57.2374C9.17702 57.2125 9.04921 57.3663 9.04921 57.5438C9.04921 57.6126 9.02741 57.6773 9.00076 57.6877C8.9741 57.6979 8.74342 58.0227 8.48815 58.4092C7.80062 59.4504 6.5145 60.7179 5.6444 61.212C5.17445 61.4788 4.7297 61.6142 4.32321 61.6142C3.74608 61.6142 3.41626 61.384 3.25171 60.8663C3.15056 60.5479 3.17693 59.234 3.30162 58.3811C3.77146 55.1684 5.65706 50.4529 7.23515 48.5443C8.02377 47.5906 8.3086 47.3319 8.56884 47.3332C8.77409 47.3342 8.84279 47.3737 8.93011 47.5409C9.0181 47.7094 8.98442 47.8431 8.3551 49.824C8.06214 50.746 7.82248 51.5576 7.82248 51.6275C7.82248 51.6975 7.88727 51.8161 7.96651 51.8911C8.18264 52.0956 8.73539 52.0854 9.17356 51.8689C9.54894 51.6833 9.75091 51.4534 10.0532 50.8675C10.5366 49.9307 10.8336 48.7245 10.8336 47.6981C10.8336 47.0052 10.7707 46.6403 10.5756 46.2021C10.2139 45.3895 9.25687 44.9127 8.32812 45.0825C8.13608 45.1176 7.92062 45.1687 7.8493 45.1961C7.75623 45.2318 7.70069 45.2228 7.65268 45.1645C7.54178 45.0297 7.36591 45.0746 7.01395 45.3273C6.71122 45.5446 6.67938 45.5867 6.67938 45.7697C6.67938 45.9402 6.62646 46.028 6.34247 46.3288C5.93302 46.7626 5.60024 47.1983 5.14356 47.8987C4.95347 48.1903 4.81362 48.3822 4.83281 48.3251C4.85193 48.2682 4.884 48.1543 4.90396 48.0721C4.92392 47.99 4.99909 47.867 5.07102 47.7989C5.22319 47.6547 5.24181 47.415 5.1149 47.2324C4.97076 47.0249 4.87686 47.0845 4.69218 47.501C4.59621 47.7175 4.48854 47.8946 4.45291 47.8946C4.38477 47.8946 3.8077 48.6968 3.8077 48.7916C3.8077 48.89 4.03336 48.9713 4.20265 48.9338C4.2936 48.9137 4.44828 48.8297 4.54642 48.7473L4.7248 48.5975L4.58166 48.8505C4.50287 48.9897 4.34116 49.2875 4.22223 49.5124C4.06074 49.8177 3.98435 49.9119 3.92078 49.8843C3.6833 49.7814 3.6151 49.8294 3.40444 50.2477C3.18452 50.6845 3.18613 50.8288 3.41174 50.901C3.51334 50.9335 3.51183 50.9484 3.37477 51.2611C3.23543 51.579 3.22924 51.5846 3.12814 51.4827C2.97408 51.3273 2.80401 51.4361 2.80401 51.69C2.80401 51.8803 2.96058 52.0475 3.05225 51.9551C3.07422 51.933 3.03675 52.0541 2.96906 52.2242C2.30991 53.8804 1.79211 55.6691 1.43084 57.5377C1.29372 58.247 1.27839 58.45 1.27544 59.59C1.27176 61.034 1.33209 61.4279 1.65957 62.0989C1.91339 62.6189 2.4811 63.1744 2.95205 63.3638C3.2192 63.4711 3.37857 63.4943 3.83558 63.4925C4.30793 63.4905 4.47426 63.4631 4.92336 63.313C5.71818 63.0474 6.13638 62.7708 7.61298 61.5344C8.00381 61.2072 8.36955 60.9395 8.42575 60.9395C8.60201 60.9395 8.75028 60.7095 9.05184 59.9682C9.21248 59.5732 9.35038 59.2569 9.35818 59.2654C9.36599 59.2738 9.34865 59.4317 9.31965 59.6162C9.22029 60.2487 9.50116 60.8399 9.97601 60.998C10.377 61.1314 10.9618 61.0501 11.2945 60.8147C11.5178 60.6568 11.8454 60.1448 12.3814 59.1164C13.1802 57.5838 13.9943 56.2531 14.7921 55.1761C15.0671 54.805 15.0816 54.7938 15.0479 54.9793C14.9251 55.6549 14.7926 56.9928 14.793 57.5539C14.7939 58.9882 14.9888 59.4264 15.7963 59.8099C16.0624 59.9362 16.1767 59.9555 16.6606 59.9555C17.2025 59.9555 17.2297 59.9493 17.6275 59.735C18.0479 59.5085 18.4258 59.1747 18.8706 58.6366L19.1242 58.3298L19.398 58.5037C19.9086 58.828 20.4072 58.8976 20.992 58.7261C21.4303 58.5976 21.8817 58.2439 22.8774 57.2485C23.3525 56.7736 23.7437 56.385 23.7468 56.385C23.7499 56.385 23.7843 56.4925 23.8233 56.624C24.0226 57.2955 24.4734 57.8842 24.9817 58.1366C25.1976 58.2438 25.3369 58.2687 25.7217 58.2687C26.4667 58.2687 26.7976 58.0784 27.9165 57.0072C28.0963 56.8351 28.2898 56.6198 28.3463 56.5287L28.4492 56.3632L28.4875 56.6048C28.5362 56.9118 28.923 57.5096 29.0731 57.5096C29.3038 57.5096 29.7285 57.1578 29.9327 56.7976C30.0175 56.6481 30.0534 56.6274 30.1581 56.6675C30.238 56.6981 30.3117 56.6913 30.364 56.6485C30.4649 56.566 30.7959 55.9756 30.7959 55.8784C30.7959 55.8391 30.8329 55.7789 30.8781 55.7446C30.9914 55.6585 32.0227 53.7939 32.0227 53.6752C32.0227 53.6224 31.9816 53.556 31.9314 53.5277C31.8477 53.4805 31.8484 53.4624 31.9405 53.3051C32.0272 53.1571 32.0651 53.1378 32.2197 53.1631C32.3895 53.1909 32.4167 53.1684 32.7508 52.7223C33.2987 51.9912 33.5653 51.6901 33.8847 51.4416C34.047 51.3153 34.2002 51.2121 34.2253 51.2121C34.2504 51.2121 34.2538 51.9648 34.2329 52.8848C34.1888 54.8297 34.2128 54.9966 34.5846 55.3354C35.0863 55.7924 35.7375 55.6257 36.2474 54.9098C36.3517 54.7634 36.849 53.9546 37.3524 53.1126L38.2679 51.5817V52.5431C38.2679 53.7529 38.3255 53.9697 38.7682 54.4241C39.416 55.089 40.4985 55.2106 41.4485 54.7251C41.6756 54.6091 42.227 54.1793 42.9019 53.5925C42.9511 53.5497 43.0289 53.5292 43.0748 53.547C43.2032 53.5966 43.1325 53.8391 42.9784 53.8782C42.827 53.9165 42.7634 54.0877 42.6738 54.6981C42.6397 54.93 42.5732 55.1793 42.5259 55.252C42.4786 55.3248 42.4532 55.4358 42.4695 55.4986C42.4858 55.5615 42.4353 55.7802 42.3572 55.9849C42.2791 56.1895 42.2175 56.4455 42.2201 56.5537C42.2228 56.6619 42.0889 57.3578 41.9226 58.1C41.6616 59.2645 41.5409 59.9504 41.4179 60.9676C41.403 61.0913 41.3876 61.5235 41.3838 61.9281C41.3761 62.7631 41.4458 63.0109 41.7851 63.353C42.3157 63.888 43.3074 63.9117 43.5549 63.3952C43.6192 63.2611 43.6105 63.1808 43.4852 62.7514C43.2411 61.9148 43.2987 60.9483 43.7042 59.0768C44.3642 56.0302 44.9326 54.3451 45.9538 52.4068C46.4347 51.4942 46.4355 51.4931 46.6054 51.5252C46.7669 51.5558 46.8139 51.5141 47.5263 50.7057C47.9391 50.2372 48.2769 49.8116 48.2769 49.7599C48.2769 49.7081 48.3443 49.636 48.4266 49.5997C48.509 49.5635 48.6186 49.4496 48.6701 49.3467C48.7217 49.2439 48.9125 49.0206 49.0943 48.8505C49.4993 48.4714 49.6929 48.0476 49.5531 47.8463C49.5071 47.7801 49.4234 47.7259 49.3672 47.7259C49.2636 47.7259 47.9047 49.3338 47.8686 49.499C47.8587 49.5443 47.8308 49.5814 47.8066 49.5814C47.7825 49.5814 47.671 49.6443 47.5588 49.7211L47.3548 49.8606L47.6331 49.4447C48.0962 48.7527 48.7627 47.9428 49.3886 47.3117C49.7147 46.9829 50.0057 46.7138 50.0353 46.7138C50.1342 46.7138 50.0907 47.2019 49.9475 47.7002C49.7466 48.3992 49.4643 49.0641 49.0669 49.7741C48.5097 50.7698 47.9542 51.2842 47.1444 51.5547C46.5792 51.7434 46.52 51.7959 46.5234 52.1041C46.5249 52.2474 46.5837 52.5165 46.654 52.7021L46.7816 53.0395L47.1111 53.1084C47.7289 53.2377 47.6927 53.2484 50.2286 52.1926C51.5473 51.6435 52.6765 51.1979 52.7378 51.2023C52.7991 51.2067 52.8995 51.1495 52.9608 51.0752C53.0222 51.0009 53.2143 50.8772 53.3878 50.8003C53.7002 50.662 53.7037 50.6617 53.7332 50.7753C53.7594 50.8765 53.7912 50.8855 54.0025 50.8515C54.2426 50.8127 54.4509 50.7447 57.5053 49.7071C59.7189 48.9551 61.0076 48.556 61.9104 48.3431C62.6787 48.1619 62.8096 48.0966 62.9492 47.8244C63.0185 47.6892 63.0176 47.6485 62.942 47.501C62.8918 47.4031 62.8109 47.3323 62.7492 47.3323C62.6907 47.3323 62.3513 47.4081 61.9949 47.5008L61.3469 47.6693L60.6495 47.4405C59.8915 47.1919 59.8618 47.1941 59.7324 47.5093C59.675 47.6489 59.6748 47.7047 59.7315 47.7962C59.7887 47.8885 59.7879 47.9184 59.727 47.9566C59.5099 48.0925 58.4977 48.1813 58.4297 48.0703C58.4131 48.0433 58.5127 47.9892 58.6509 47.9502C58.7891 47.9111 58.9157 47.8573 58.9321 47.8305C58.9485 47.8037 59.0214 47.7968 59.0939 47.8152C59.1665 47.8335 59.2793 47.8314 59.3446 47.8106C59.4383 47.7805 59.4597 47.7351 59.4462 47.5946C59.4309 47.435 59.4119 47.418 59.2622 47.4291C59.1705 47.436 59.0687 47.4783 59.0362 47.5232C58.9852 47.5936 58.9689 47.5919 58.9183 47.511C58.8663 47.4279 58.8295 47.4253 58.5971 47.4879C58.1004 47.6219 57.9514 47.7078 57.9514 47.8603C57.9514 47.9374 57.9769 48.0163 58.0081 48.0357C58.0803 48.0807 58.0243 48.1757 57.9255 48.1757C57.8792 48.1757 57.8609 48.1348 57.878 48.069C57.9192 47.91 57.7989 47.7254 57.6567 47.7296C57.5888 47.7316 57.3074 47.8138 57.0314 47.9123C56.5052 48.1001 56.4776 48.1316 56.5758 48.4315C56.61 48.5359 56.5613 48.5628 56.0534 48.7196C55.7371 48.8174 55.5031 48.8652 55.516 48.8294C55.5544 48.7221 55.4441 48.5693 55.328 48.5693C55.1711 48.5693 54.4277 48.7827 54.3653 48.8456C54.3329 48.8783 54.3346 48.9602 54.3696 49.0617L54.4262 49.2251L54.0381 49.3404L53.65 49.4556L53.5996 49.3217C53.5298 49.1368 53.3358 49.1493 53.0981 49.3542C52.9919 49.4458 52.86 49.5217 52.8049 49.5229C52.7498 49.5242 52.3056 49.6897 51.8177 49.8907C51.3299 50.0917 50.9168 50.2562 50.8998 50.2562C50.8828 50.2562 51.0042 49.9841 51.1696 49.6515C52.1674 47.6452 52.2352 46.1298 51.3624 45.3386C50.8785 44.8998 50.2176 44.7899 49.6542 45.0544C49.2611 45.2389 48.367 46.1181 47.3968 47.2743L47.186 47.5255L47.2645 47.3024C47.3077 47.1797 47.5327 46.6106 47.7645 46.0377C47.9962 45.4648 48.2277 44.8441 48.279 44.6582C48.3641 44.3493 48.3646 44.3023 48.2847 44.1093C48.0444 43.5294 46.9275 43.6265 46.4713 44.2671C46.3573 44.4272 46.0195 45.2481 45.5401 46.5298C44.5097 49.2854 44.5685 49.1488 44.4568 49.0468C44.3125 48.9151 44.2353 48.9464 44.143 49.1738C43.6836 50.3065 42.853 51.5474 42.0196 52.3461C41.6731 52.6783 41.0367 53.1238 40.9089 53.1238C40.7682 53.1238 40.7649 52.8324 40.8861 51.0843C41.0323 48.9741 41.0352 48.8647 40.9564 48.4057C40.8532 47.8043 40.6475 47.7363 40.4213 48.2287L40.2928 48.5084L40.1757 48.3487C40.0054 48.1164 39.5303 47.8946 39.2031 47.8946C38.8497 47.8946 38.604 48.0035 38.3421 48.2762C38.1238 48.5035 37.2593 49.6823 36.6865 50.5338L36.3673 51.0082L36.4115 50.7587C36.4896 50.3172 36.4599 49.3547 36.3577 49.0156C36.1489 48.3228 35.7465 48.0117 34.9958 47.9627C34.6119 47.9376 34.5892 47.9432 34.444 48.0983C34.3606 48.1873 33.7663 48.9686 33.1232 49.8345C32.4802 50.7004 31.9284 51.4342 31.8971 51.4651C31.8245 51.5369 31.8316 51.5099 32.1856 50.3686C32.4959 49.3682 32.5387 49.0361 32.3937 48.7543C32.2889 48.5506 31.9453 48.3287 31.5869 48.2334C31.2319 48.139 31.0002 48.2327 30.8195 48.5436C30.6963 48.7556 30.6623 48.7813 30.5762 48.7271C30.5211 48.6924 30.4334 48.6806 30.3812 48.7008C30.2544 48.7498 30.2888 48.9713 30.4347 49.0459C30.4995 49.079 30.5393 49.1456 30.5281 49.2026C30.51 49.2948 30.4986 49.2938 30.3659 49.1886C30.2875 49.1263 30.1523 49.0754 30.0657 49.0754C29.927 49.0754 29.9007 49.1041 29.8468 49.3144C29.6256 50.1777 29.5645 50.34 29.3939 50.5176C29.2348 50.683 29.2224 50.7186 29.2796 50.8452C29.3241 50.9437 29.3878 50.9871 29.488 50.9871C29.5673 50.9871 29.6862 51.0162 29.752 51.0518L29.8717 51.1164L29.7511 51.1613C29.6848 51.1861 29.5789 51.3025 29.5159 51.42L29.4013 51.6338L29.4354 51.4244C29.4656 51.2388 29.4535 51.2077 29.3277 51.15C29.108 51.049 29.0345 51.1167 28.9265 51.519C28.8149 51.9346 28.8425 52.0109 29.1082 52.0212C29.2657 52.0273 29.2667 52.0295 29.2091 52.2516C29.1562 52.4557 29.1494 52.4619 29.1334 52.322C29.1208 52.2122 29.0757 52.1581 28.9759 52.1328C28.8047 52.0895 28.771 52.1246 28.6601 52.4627C28.5808 52.7043 28.5807 52.7375 28.6596 52.8171C28.7986 52.9573 28.9656 52.8951 29.0445 52.674C29.1509 52.3754 29.1331 52.5772 28.99 53.2925C28.9145 53.6699 28.7986 54.0562 28.7117 54.2203L28.5628 54.5014L28.6021 54.2484C28.6754 53.7762 28.6642 53.7159 28.4995 53.6968C28.3225 53.6761 28.271 53.7552 28.1809 54.1852C28.1101 54.5228 28.1568 54.6401 28.3632 54.6444C28.4588 54.6465 28.4439 54.6676 28.2867 54.7533C28.1793 54.8118 27.7528 55.1772 27.3388 55.5654C26.6246 56.2348 26.2497 56.4952 25.868 56.5871C25.7122 56.6246 25.7084 56.6203 25.7338 56.4351C25.7483 56.3302 26.0947 55.0173 26.5038 53.5174C27.4444 50.0684 27.4746 49.7948 26.8852 50.0628C26.6717 50.1599 26.6435 50.1602 26.3075 50.07C25.8743 49.9536 25.7581 49.9523 25.3503 50.0594C25.1736 50.1058 24.8436 50.1437 24.6167 50.1437C23.8385 50.1437 23.1607 50.4165 22.4152 51.0298C21.7465 51.58 20.724 52.8522 20.2804 53.6861C20.1406 53.949 20.0388 54.1222 20.0542 54.0711C20.11 53.8859 19.8333 53.6949 19.6853 53.8165C19.6409 53.853 19.5661 54.0243 19.5193 54.1971C19.4217 54.5575 19.4652 54.6982 19.6744 54.6982C19.7495 54.6982 19.8093 54.7172 19.8073 54.7404C19.8051 54.7635 19.6731 55.0735 19.5139 55.4292C19.2683 55.9775 19.2032 56.0787 19.0855 56.0952C19.0092 56.1059 18.9154 56.1407 18.8771 56.1724C18.8283 56.2128 18.8074 56.21 18.8074 56.1633C18.8074 56.0661 18.523 56.1142 18.4556 56.2228C18.4246 56.2727 18.4163 56.3582 18.437 56.4128C18.4673 56.4924 18.5188 56.5061 18.6968 56.482C18.995 56.4417 18.9906 56.5443 18.6754 56.9811C18.3869 57.3809 17.888 57.8424 17.5473 58.0247L17.3031 58.1553L17.1291 57.9799C16.8822 57.7308 16.8747 57.4974 17.0729 56.2163C17.1661 55.6133 17.2791 54.8542 17.3239 54.5295C17.4489 53.6244 17.3355 53.1988 16.8399 52.7127C16.3014 52.1843 15.7872 52.0352 15.2528 52.2524C14.841 52.4198 13.2212 54.2461 12.5096 55.3453C12.3501 55.5918 12.2105 55.8025 12.1995 55.8135C12.1617 55.8518 12.6886 54.2127 13.733 51.0434C14.4597 48.8378 14.9593 47.4281 15.3669 46.4327C16.0807 44.6893 16.2057 44.3241 16.1682 44.0914L16.1397 43.9139L16.7068 43.8761C18.595 43.7502 20.3648 43.2862 21.3434 42.6604C21.725 42.4163 22.1744 42.1961 22.7413 41.9753C23.8022 41.5622 24.2358 41.2911 24.9621 40.5869C25.8332 39.7426 26.4799 38.8114 26.9006 37.7962C27.3085 36.8119 27.7882 34.6229 27.9778 32.8818C28.1518 31.2829 28.2552 26.1852 28.1208 25.8288C28.0483 25.6364 27.856 25.6364 27.7834 25.8288C27.7526 25.9106 27.7262 26.7806 27.7225 27.839C27.7189 28.8652 27.696 30.0465 27.6717 30.464C27.6358 31.0786 27.6317 30.9716 27.6498 29.9017C27.6621 29.1749 27.689 26.4653 27.7096 23.8803L27.747 19.1802L27.6229 19.0551C27.5068 18.938 27.4622 18.9317 26.9309 18.9566C26.6185 18.9714 26.3378 18.9855 26.3072 18.9881C26.2765 18.9907 26.0632 18.9707 25.8332 18.9436C25.1936 18.8683 22.821 18.8523 20.285 18.9062C18.5511 18.943 17.7579 18.9371 17.0015 18.8816L16.0043 18.8085L15.597 19.2524C15.2736 19.605 15.1824 19.7435 15.1536 19.9255C15.1337 20.0516 15.1002 21.1776 15.0791 22.4277C15.0482 24.2545 15.0557 24.7723 15.1172 25.0661C15.1593 25.2671 15.1976 25.5248 15.2022 25.6388C15.2082 25.7833 15.2599 25.8976 15.3733 26.017C15.6461 26.304 15.8139 26.3331 17.0788 26.313C17.7075 26.3031 18.3918 26.312 18.5994 26.3329L18.977 26.3709L18.9619 28.6846L18.9468 30.9981L18.5428 32.8255C18.3206 33.8306 18.1132 34.7445 18.0821 34.8564C17.9624 35.2868 17.6172 35.6334 17.1939 35.7484C16.8641 35.8379 15.6267 35.9285 15.2817 35.8883C14.9031 35.8442 14.3009 35.5638 13.9801 35.2823C13.6632 35.0042 13.4246 34.523 13.3195 33.9501C13.1606 33.0841 12.8984 30.7923 12.8327 29.6959C12.783 28.8654 12.7838 28.3049 12.8364 27.25C12.8739 26.4972 12.9267 24.2494 12.9536 22.2547C12.9805 20.26 13.0164 18.5394 13.0334 18.4312C13.0504 18.3229 13.1023 16.7921 13.1487 15.0294C13.2698 10.427 13.3006 10.1216 13.733 9.23071C13.9987 8.68328 14.4039 8.24487 14.8779 7.99201C15.3596 7.73499 15.6295 7.67966 16.381 7.68377C17.2575 7.68849 17.4418 7.64857 17.4394 7.45447L17.4376 7.30777L17.5905 7.41759C17.6746 7.47797 17.8134 7.61045 17.899 7.71194C17.9845 7.81343 18.1746 7.98183 18.3213 8.08613C18.6886 8.34715 18.9425 8.7548 19.1199 9.36819C19.1537 9.48531 19.4391 9.42565 19.4743 9.29414C19.4916 9.22931 19.5516 9.18168 19.6159 9.18168C19.79 9.18168 19.7783 9.00608 19.5624 8.38083C19.3437 7.74725 19.328 7.66701 19.4549 7.83221C19.8054 8.28861 20.0583 9.16723 20.2317 10.5312C20.3078 11.1298 20.3177 11.5166 20.2866 12.6678C20.2474 14.1146 20.2704 14.3482 20.4588 14.4212C20.5094 14.4407 20.5982 14.4268 20.6561 14.3904C20.7343 14.3411 20.7914 14.3401 20.8772 14.3864C20.9449 14.4229 21.1234 14.4362 21.3081 14.4184C21.4814 14.4016 21.6547 14.3884 21.693 14.3891C21.7313 14.3897 21.8568 14.3919 21.9718 14.394C22.0868 14.396 23.4258 14.3947 24.9474 14.3911C27.9047 14.3842 27.8022 14.3944 27.8555 14.1016C27.8805 13.965 27.8814 13.9654 27.8888 14.1174C27.9048 14.448 28.2429 14.3263 28.31 13.9659C28.3289 13.8643 28.345 13.1857 28.3458 12.4577C28.3481 10.3415 28.1979 9.00467 27.8148 7.73061C27.705 7.36546 27.5287 6.70214 27.4231 6.25659C27.1712 5.19529 26.9201 4.70965 25.8972 3.30586C24.8638 1.88746 23.5206 0.980106 21.8616 0.579538C21.1066 0.397247 20.4912 0.301941 18.9616 0.130502C17.5231 -0.0307595 17.3816 -0.0346953 16.9951 0.0755114ZM40.0422 0.798153C36.6565 1.38781 35.7197 1.68121 34.5319 2.52384C33.9606 2.92919 32.8554 4.06331 32.4001 4.71156C31.7395 5.65203 31.1904 6.91238 30.9386 8.06623C30.4892 10.1258 30.3504 11.2803 30.2942 13.4269C30.2268 15.9998 30.2268 17.7187 30.2942 17.8975C30.3649 18.0849 30.5225 18.0642 30.5765 17.8605C30.5982 17.7785 30.6449 17.0068 30.6803 16.1455C30.7156 15.2842 30.7513 14.4151 30.7595 14.2141C30.7955 13.3341 30.7924 17.9523 30.754 22.2547L30.7123 26.9497L30.674 23.0981C30.653 20.9797 30.6154 19.1073 30.5904 18.9372C30.5527 18.6807 30.526 18.628 30.4335 18.628C30.3374 18.628 30.3165 18.6786 30.2829 18.9935C30.2613 19.1945 30.2438 21.1175 30.2439 23.2668C30.2441 25.6998 30.222 27.3286 30.1856 27.5827C30.1062 28.1363 29.9607 30.6714 29.9606 31.5042C29.9605 32.357 30.0405 33.2902 30.1849 34.1188C30.4641 35.7212 31.0618 37.7498 31.5529 38.7618C32.0051 39.6938 33.4989 41.394 34.4253 42.0312C35.6282 42.8585 37.4381 43.5091 39.16 43.733C39.4207 43.7669 39.8605 43.843 40.1372 43.9022C41.0712 44.1019 42.0162 44.1515 43.5432 44.0808C45.292 43.9999 46.2893 43.8366 47.3848 43.452C47.5688 43.3874 48.0741 43.2485 48.5078 43.1433C49.8121 42.8271 50.6605 42.4236 51.5749 41.6845C52.3999 41.0177 53.0459 40.1883 53.5478 39.1512C53.9703 38.2783 54.1669 37.6998 54.4747 36.4241C54.6533 35.6841 54.7808 35.2819 54.9167 35.0306C55.0487 34.7861 55.1076 34.6041 55.1074 34.4402C55.1072 34.2811 55.1715 34.0736 55.3026 33.8095C55.5981 33.2147 55.6191 32.9218 55.5186 30.801C55.4548 29.4547 55.4201 26.7396 55.3864 20.4835C55.3457 12.9365 55.3089 10.836 55.1909 9.32225C55.0624 7.67365 54.8056 6.81713 54.1504 5.85147C53.6546 5.12073 51.4449 2.98576 50.6571 2.47633C50.2972 2.24355 48.8279 1.56825 48.0068 1.25821C46.8123 0.807149 45.1282 0.545015 42.9518 0.471244L42.0875 0.441948L40.0422 0.798153ZM35.5306 2.69039C33.9115 3.67146 32.7071 5.11545 32.1094 6.79199C31.9085 7.35551 31.3354 9.57038 31.1637 10.4468C31.0174 11.1941 30.8575 12.3656 30.8428 12.7995C30.8356 13.0083 30.8293 13.024 30.8112 12.8769C30.7794 12.6174 30.9431 10.9438 31.0792 10.1379C31.5633 7.27021 32.4666 5.26333 33.9411 3.77936C34.4181 3.29928 34.8271 2.99644 35.4924 2.63079C36.0651 2.31591 36.0885 2.35229 35.5306 2.69039ZM49.5625 6.99166C49.6401 7.18238 49.6408 7.20184 49.568 7.12936C49.5213 7.08297 49.4654 6.96911 49.4437 6.87634C49.3925 6.65693 49.4485 6.71131 49.5625 6.99166ZM17.0526 7.13487C17.43 7.27724 17.4305 7.32605 17.0533 7.21162C16.9009 7.16535 16.536 7.12689 16.2195 7.12374C15.5778 7.11738 15.6779 7.03169 16.3378 7.02253C16.6209 7.01859 16.8326 7.05188 17.0526 7.13487ZM48.951 7.6714C49.115 8.11065 49.391 9.22458 49.4367 9.6315C49.454 9.78613 49.4545 9.86204 49.4378 9.80019C49.421 9.73834 49.2345 9.11123 49.0233 8.40658C48.8121 7.70193 48.6394 7.10805 48.6394 7.0868C48.6394 6.98559 48.825 7.33375 48.951 7.6714ZM49.8613 7.88844C49.863 7.91936 49.8401 7.90671 49.8103 7.86032C49.7806 7.81394 49.7577 7.73803 49.7594 7.69164C49.7626 7.60257 49.8555 7.78194 49.8613 7.88844ZM44.4441 8.13483C45.2573 8.30559 45.6706 8.4758 45.9155 8.74069C46.0501 8.88637 46.0786 9.00529 46.237 10.0813C46.3327 10.7308 46.4713 11.6137 46.5451 12.0435C46.6706 12.7751 46.6756 12.8823 46.623 13.7303C46.5921 14.2283 46.5817 14.9141 46.5999 15.2543C46.6654 16.4796 46.6384 19.1634 46.5543 19.7806C46.4416 20.6073 46.4149 21.2809 46.3518 24.8974C46.3213 26.6447 46.2704 28.7321 46.2386 29.5362C46.1796 31.0278 46.1402 31.3182 45.6779 33.6689C45.4887 34.6311 44.6229 35.5969 43.5514 36.0409C43.1744 36.1972 42.465 36.2101 41.9481 36.0702C41.2721 35.8872 40.5762 35.5856 40.3747 35.3883C39.902 34.9254 39.8589 34.6269 39.7731 31.223C39.7127 28.8302 39.6813 28.4656 39.5256 28.3507C39.3869 28.2485 39.4049 27.3652 39.5519 27.0589C39.6622 26.8293 39.6657 26.6999 39.6938 21.9384C39.7329 15.2893 39.8776 10.9806 40.0871 10.2219C40.2629 9.58517 40.6939 9.01193 41.3079 8.59775C42.2466 7.96468 43.0613 7.84441 44.4441 8.13483ZM13.0919 9.15357C12.9427 9.45056 12.8633 9.53069 12.9524 9.29447C13.01 9.1417 13.1748 8.87243 13.2108 8.87243C13.2231 8.87243 13.1696 8.99894 13.0919 9.15357ZM49.5127 10.1235C49.4972 10.1622 49.4846 10.1305 49.4846 10.0532C49.4846 9.9759 49.4972 9.9443 49.5127 9.98293C49.5282 10.0216 49.5282 10.0849 49.5127 10.1235ZM49.7432 12.471C49.74 12.9088 49.736 12.9253 49.6963 12.6678C49.635 12.2716 49.6368 11.7351 49.6988 11.8806C49.7252 11.9425 49.7452 12.2081 49.7432 12.471ZM12.6299 13.2846C12.6458 13.7925 12.6208 14.6095 12.5105 17.1942C12.4782 17.9518 12.4481 19.5838 12.4437 20.8209L12.4357 23.07L12.3572 21.833C12.2784 20.5918 12.286 17.4266 12.3757 14.0364C12.4106 12.7179 12.4174 12.6529 12.5132 12.7133C12.5962 12.7655 12.6168 12.8667 12.6299 13.2846ZM4.06214 16.2611C3.86313 20.3189 3.84434 24.0458 3.99846 28.8973C4.02143 29.6201 4.01903 29.6489 3.97604 29.1707C3.8019 27.2355 3.76778 25.0598 3.81634 18.9935C3.8474 15.1151 3.85538 14.952 4.04535 14.2984L4.1107 14.0735L4.13067 14.265C4.14165 14.3704 4.11082 15.2686 4.06214 16.2611ZM54.9291 22.1563C54.9199 24.669 54.9216 27.4206 54.9328 28.2711C54.9481 29.4353 54.9338 29.9215 54.8748 30.239C54.8044 30.6177 54.7981 30.3167 54.8131 27.2871C54.836 22.6619 54.8929 17.5878 54.9218 17.5878C54.935 17.5878 54.9383 19.6436 54.9291 22.1563ZM9.71288 21.2988C9.75024 22.1651 9.75693 22.8595 9.72883 22.9575C9.69637 23.071 9.66872 22.685 9.64441 21.7767C9.6245 21.0345 9.59639 20.1742 9.58201 19.865C9.56355 19.4691 9.56952 19.3776 9.60219 19.5557C9.62773 19.6949 9.67758 20.4793 9.71288 21.2988ZM19.7953 26.963C19.7825 27.0484 19.7717 26.9919 19.7712 26.8372C19.7708 26.6826 19.7813 26.6127 19.7945 26.6818C19.8078 26.751 19.8081 26.8775 19.7953 26.963ZM12.3775 26.9075C12.3635 26.9616 12.352 26.9174 12.352 26.8091C12.352 26.7009 12.3635 26.6566 12.3775 26.7107C12.3916 26.7648 12.3916 26.8534 12.3775 26.9075ZM12.4115 30.8294L12.4428 31.8978L12.3393 30.8294C12.1719 29.1027 12.1469 28.3674 12.2331 27.7054L12.3095 27.1184L12.3448 28.4397C12.3642 29.1665 12.3942 30.2418 12.4115 30.8294ZM19.7776 30.7591L19.7488 33.5846L19.5851 33.842C19.4951 33.9835 19.3955 34.2365 19.3637 34.4042C19.3108 34.6831 19.3157 34.7173 19.4212 34.8042C19.5313 34.8951 19.5325 34.9088 19.448 35.1127C19.3994 35.2301 19.307 35.3827 19.2426 35.4518C19.1288 35.574 18.7695 35.7299 18.719 35.679C18.7052 35.6651 18.7685 35.4918 18.8598 35.2939C19.2083 34.5382 19.5431 32.9606 19.6428 31.6049C19.6742 31.1784 19.7151 30.1779 19.7338 29.3816C19.7526 28.5852 19.7766 27.9337 19.7872 27.9337C19.7978 27.9337 19.7935 29.2051 19.7776 30.7591ZM30.669 28.9036C30.6566 29.0042 30.6465 28.9219 30.6465 28.7209C30.6465 28.5199 30.6566 28.4376 30.669 28.5381C30.6813 28.6387 30.6813 28.8031 30.669 28.9036ZM30.5896 31.5375C30.5578 32.9816 30.5394 33.278 30.5008 32.9661C30.4421 32.4903 30.537 29.6218 30.609 29.6944C30.6204 29.7059 30.6117 30.5354 30.5896 31.5375ZM4.07117 30.2521C4.05874 30.3531 4.04831 30.284 4.04803 30.0985C4.04769 29.9129 4.05784 29.8302 4.07061 29.9147C4.08333 29.9992 4.08355 30.151 4.07117 30.2521ZM9.47958 30.168C9.46675 30.2534 9.45593 30.1969 9.45549 30.0422C9.4551 29.8876 9.46558 29.8177 9.4788 29.8868C9.49201 29.956 9.49234 30.0825 9.47958 30.168ZM4.12515 31.0111C4.11098 31.0658 4.09849 31.0347 4.09738 30.9419C4.09626 30.8491 4.10781 30.8044 4.12308 30.8424C4.13836 30.8805 4.13931 30.9564 4.12515 31.0111ZM50.5246 31.5452C50.5979 31.5605 50.5909 31.5727 50.4934 31.5996C50.379 31.6312 50.3687 31.6161 50.3763 31.4286C50.383 31.2645 50.3893 31.2535 50.4075 31.3742C50.4203 31.4579 50.4725 31.5342 50.5246 31.5452ZM9.65294 33.3878L9.70312 34.7092L10.0214 35.665C10.1965 36.1908 10.3514 36.6589 10.3657 36.7053C10.441 36.9499 10.0129 36.0515 9.881 35.6881C9.57102 34.8344 9.3946 33.2473 9.47534 32.0383C9.51766 31.4035 9.51922 31.3978 9.5606 31.7291C9.58379 31.9146 9.62533 32.6611 9.65294 33.3878ZM27.5987 31.9399C27.5833 31.9786 27.5706 31.947 27.5706 31.8696C27.5706 31.7923 27.5833 31.7607 27.5987 31.7994C27.6142 31.8381 27.6142 31.9013 27.5987 31.9399ZM12.4905 32.3616C12.4778 32.4467 12.4673 32.3771 12.4673 32.207C12.4673 32.0369 12.4778 31.9673 12.4905 32.0524C12.5033 32.1375 12.5033 32.2766 12.4905 32.3616ZM27.5429 32.5022C27.5275 32.5409 27.5148 32.5092 27.5148 32.4319C27.5148 32.3546 27.5275 32.323 27.5429 32.3616C27.5584 32.4003 27.5584 32.4636 27.5429 32.5022ZM12.5458 33.0076C12.5325 33.0775 12.521 33.0336 12.5204 32.9099C12.5198 32.7862 12.5308 32.7289 12.5447 32.7827C12.5586 32.8364 12.5591 32.9376 12.5458 33.0076ZM27.4872 33.0083C27.4717 33.0469 27.4591 33.0153 27.4591 32.938C27.4591 32.8607 27.4717 32.8291 27.4872 32.8677C27.5027 32.9064 27.5027 32.9696 27.4872 33.0083ZM4.34763 33.3984C4.32984 33.4432 4.31663 33.4299 4.31395 33.3644C4.31155 33.3051 4.32471 33.2719 4.34323 33.2906C4.36174 33.3093 4.36375 33.3578 4.34763 33.3984ZM12.6006 33.6549C12.5866 33.709 12.5751 33.6647 12.5751 33.5565C12.5751 33.4482 12.5866 33.404 12.6006 33.4581C12.6146 33.5122 12.6146 33.6008 12.6006 33.6549ZM4.40222 33.9079C4.38678 33.9466 4.37412 33.9149 4.37412 33.8376C4.37412 33.7603 4.38678 33.7287 4.40222 33.7673C4.41772 33.806 4.41772 33.8693 4.40222 33.9079ZM12.6565 34.1599C12.6424 34.2146 12.6299 34.1834 12.6288 34.0907C12.6277 33.9979 12.6392 33.9531 12.6545 33.9912C12.6698 34.0293 12.6707 34.1052 12.6565 34.1599ZM4.45915 34.298C4.44137 34.3428 4.42815 34.3295 4.42547 34.264C4.42308 34.2047 4.43624 34.1716 4.45475 34.1902C4.47326 34.2089 4.47527 34.2574 4.45915 34.298ZM50.1254 35.8197C50.1053 36.1367 50.0516 36.5544 50.0059 36.748C49.8532 37.3955 49.3761 38.2063 48.8566 38.7013C48.5872 38.958 48.5774 38.9629 48.7443 38.7576C49.0862 38.3367 49.4864 37.7463 49.6495 37.422C49.8373 37.0484 50.0322 36.2856 50.0336 35.9181C50.0342 35.7789 50.0502 35.5702 50.0692 35.4542C50.1339 35.0593 50.162 35.2418 50.1254 35.8197ZM43.7045 37.0275C43.2952 37.1352 41.6779 37.1538 41.4184 37.0539C41.2823 37.0015 41.3709 36.9944 41.8923 37.0162C42.245 37.0309 42.7845 37.0213 43.0912 36.9947C43.9803 36.9179 44.0977 36.9241 43.7045 37.0275ZM39.8412 40.1151C40.1698 40.2213 40.4552 40.3352 40.4754 40.3683C40.5183 40.4382 40.5479 40.4467 39.5782 40.1082C38.7511 39.8194 38.9413 39.8244 39.8412 40.1151ZM45.1113 40.5627C45.0928 40.5814 45.0447 40.5834 45.0045 40.5672C44.96 40.5492 44.9732 40.5359 45.0382 40.5332C45.0969 40.5308 45.1298 40.544 45.1113 40.5627ZM44.6158 40.6635C44.2966 40.7301 42.576 40.7311 42.3814 40.6649C42.2803 40.6305 42.6697 40.6131 43.5437 40.6131C44.4624 40.6131 44.7851 40.6283 44.6158 40.6635ZM14.458 44.2365C14.458 44.2656 14.4329 44.305 14.4023 44.3241C14.3716 44.3433 14.3465 44.3194 14.3465 44.2712C14.3465 44.223 14.3716 44.1836 14.4023 44.1836C14.4329 44.1836 14.458 44.2073 14.458 44.2365ZM13.9098 44.6464C13.8684 44.6882 13.8611 44.6662 13.8854 44.5727C13.9051 44.4966 13.9304 44.4711 13.9443 44.5132C13.9577 44.5538 13.9422 44.6137 13.9098 44.6464ZM45.1286 45.6414C45.095 45.7048 45.0619 45.8482 45.0552 45.9602C45.0453 46.1233 45.0667 46.1731 45.1628 46.2101C45.3542 46.2838 45.4582 46.1612 45.4745 45.8423C45.4882 45.5749 45.4816 45.5603 45.3393 45.5437C45.2342 45.5315 45.1716 45.5605 45.1286 45.6414ZM5.42744 46.6266C5.28748 46.7769 5.30226 46.8988 5.47144 46.9901C5.55636 47.0359 5.61195 47.0235 5.72548 46.9334C5.88156 46.8096 5.91167 46.665 5.80394 46.5564C5.69989 46.4515 5.56762 46.4761 5.42744 46.6266ZM44.5286 47.8524C44.4417 47.9656 44.3293 48.445 44.3666 48.543C44.3893 48.6025 44.4532 48.627 44.5546 48.6153C44.6864 48.6 44.7237 48.5522 44.8169 48.2793C44.9078 48.0131 44.9135 47.9466 44.8519 47.8717C44.7637 47.7645 44.6033 47.755 44.5286 47.8524ZM3.498 49.2689C3.44894 49.3444 3.41698 49.4647 3.42702 49.536C3.4413 49.6378 3.48044 49.6658 3.60847 49.6658C3.73967 49.6658 3.7859 49.6306 3.84439 49.486C3.90673 49.332 3.90472 49.2937 3.83056 49.2189C3.70733 49.0946 3.60083 49.1106 3.498 49.2689ZM22.8535 49.7445C22.8343 49.7757 22.8347 49.8656 22.8544 49.9443C22.8813 50.0529 22.9256 50.0873 23.0373 50.0867C23.2469 50.0854 23.3366 50.011 23.3149 49.8562C23.2996 49.7466 23.2587 49.7189 23.0922 49.7049C22.98 49.6955 22.8726 49.7132 22.8535 49.7445ZM21.9898 50.4606C21.8576 50.63 21.8461 50.7115 21.9411 50.8072C22.0437 50.9106 22.1769 50.888 22.3106 50.7446C22.4465 50.5986 22.4642 50.48 22.3649 50.3799C22.2568 50.2709 22.1136 50.3017 21.9898 50.4606ZM2.75577 50.6248C2.66611 50.7397 2.65223 50.7988 2.69566 50.8807C2.7725 51.0255 3.00084 51.0158 3.10679 50.8632C3.18011 50.7577 3.18167 50.7223 3.11721 50.6242C3.00636 50.4556 2.88765 50.4557 2.75577 50.6248ZM23.9698 52.6172C23.7 53.2866 22.9309 54.5233 22.1683 55.5135C21.7861 56.0098 21.0425 56.8021 20.9995 56.7587C20.9567 56.7155 21.2708 55.9545 21.5452 55.4363C22.1549 54.2849 23.1227 52.9958 23.7681 52.4753C23.9357 52.3401 24.0813 52.2381 24.0917 52.2486C24.1021 52.2591 24.0472 52.4249 23.9698 52.6172ZM20.0102 53.0436C19.9466 53.2991 20.023 53.5174 20.1759 53.5174C20.3398 53.5174 20.4371 53.3496 20.4138 53.1072C20.3988 52.951 20.3733 52.9247 20.2221 52.9099C20.0732 52.8953 20.0422 52.9148 20.0102 53.0436ZM1.66342 53.045C1.59818 53.1108 1.58396 53.1899 1.61039 53.3402C1.65701 53.605 1.70451 53.6522 1.87988 53.6078C2.00339 53.5766 2.02336 53.5409 2.02336 53.3516C2.02336 53.1473 1.91529 52.9551 1.80031 52.9551C1.77405 52.9551 1.71243 52.9956 1.66342 53.045ZM1.03689 54.9343C0.878587 55.1378 0.935016 55.4292 1.13269 55.4292C1.26897 55.4292 1.42421 55.1946 1.40034 55.0248C1.37932 54.8751 1.13102 54.8133 1.03689 54.9343ZM40.2978 55.6754C40.2029 55.7185 39.9646 55.8551 39.7681 55.9791C39.0356 56.4413 36.3598 57.9658 35.2194 58.5707C34.0021 59.2164 30.248 61.0766 26.9205 62.6829C24.587 63.8095 24.4977 63.86 24.1106 64.2727C23.9386 64.456 23.5534 64.7816 23.2545 64.9962C22.7487 65.3592 22.5433 65.591 22.5433 65.7984C22.5433 65.8888 22.706 66 22.8381 66C22.8817 66 23.266 65.7938 23.6922 65.5418C24.8596 64.8515 26.9173 63.778 28.5097 63.0285C29.6839 62.4759 32.1033 61.3625 32.4087 61.2344C32.4662 61.2103 32.4778 61.2282 32.4507 61.2993C32.4013 61.4292 32.5039 61.6147 32.624 61.6124C32.6766 61.6114 32.9079 61.5027 33.1379 61.3709C33.4344 61.2011 33.5561 61.0994 33.5561 61.0216C33.5561 60.9341 33.6858 60.8597 34.1973 60.654C34.55 60.5122 35.0895 60.2356 35.3962 60.0392C36.191 59.5304 38.3653 58.2557 39.3959 57.6942C40.315 57.1936 40.5567 56.9926 40.7811 56.5422C40.8472 56.4094 40.9612 56.2202 41.0344 56.1217C41.1075 56.0233 41.1674 55.9024 41.1674 55.8532C41.1674 55.6737 40.5704 55.5516 40.2978 55.6754ZM0.615395 56.2195C0.380865 56.3605 0.567664 56.6449 0.853271 56.5817C1.00712 56.5475 1.02412 56.524 1.0089 56.3658C0.995127 56.223 0.964458 56.1855 0.852379 56.1746C0.775708 56.167 0.669093 56.1873 0.615395 56.2195ZM0.107471 58.6776C0.0928613 58.7014 0.0630291 58.9897 0.0412266 59.3183C0.00358806 59.8848 0.00743563 59.9188 0.116225 59.9775C0.26466 60.0577 0.400939 60.0029 0.431273 59.8509C0.498297 59.5156 0.517033 58.8502 0.462387 58.7472C0.403616 58.6364 0.161726 58.589 0.107471 58.6776ZM0.119291 60.4711C-0.00739716 60.505 -0.0340504 60.6501 0.0435128 60.8833C0.169811 61.2629 0.550769 61.1394 0.463057 60.7473C0.393245 60.435 0.358394 60.407 0.119291 60.4711Z" fill="white"/>
</svg>
