<svg width="247" height="44" viewBox="0 0 247 44" fill="none" xmlns="http://www.w3.org/2000/svg">
<path fill-rule="evenodd" clip-rule="evenodd" d="M17.651 0.26803C11.2551 1.45836 5.40195 5.87258 5.04262 9.77701C4.879 11.5561 6.11351 12.9187 8.26258 13.3306C8.82607 13.4387 9.28715 13.5798 9.28715 13.6443C9.28715 13.7087 9.20575 14.1749 9.10616 14.6802C9.00656 15.1854 8.87636 16.4431 8.81664 17.475L8.70811 19.3511L8.10954 19.4027C7.34918 19.4683 5.50634 19.0315 4.65582 18.5841C2.95509 17.6897 1.96642 16.101 1.96642 14.2627C1.96642 13.6714 2.01655 13.0011 2.07776 12.773C2.28059 12.0168 1.85243 12.8716 1.50137 13.9233C0.775583 16.0981 1.23319 18.1451 2.77178 19.6073C3.9747 20.7504 6.58286 21.8242 8.15636 21.8242C8.72796 21.8242 8.78222 21.8671 8.85866 22.3786C9.33595 25.5701 9.51248 26.5796 9.712 27.2572C10.1008 28.5775 10.1415 28.5408 8.41859 28.4216C4.563 28.1549 1.40541 26.494 0.333858 24.1691L0 23.4445L0.101745 24.2121C0.55257 27.613 4.04385 30.1158 9.12171 30.6784C10.0771 30.7844 10.8817 30.9399 10.9096 31.0243C11.1543 31.7639 12.3953 34.1205 13.1515 35.2818C13.6649 36.0701 14.0849 36.7906 14.0849 36.8829C14.0849 37.1268 11.1866 36.8823 9.20856 36.4716C7.41503 36.0993 5.64879 35.4108 4.41096 34.6015C3.97817 34.3185 3.59303 34.1188 3.55531 34.1578C3.40178 34.3161 5.55879 36.1788 6.57277 36.7633C8.67981 37.9782 11.6293 38.7095 14.4208 38.7095H15.7254L17.1525 39.89C17.9375 40.5393 19.311 41.4548 20.2045 41.9244C21.0982 42.3939 21.7868 42.8222 21.7347 42.8759C21.5704 43.0453 16.9776 42.9815 15.6521 42.7915C14.954 42.6914 14.346 42.6476 14.3008 42.6941C14.1814 42.8173 16.2621 43.4222 17.8669 43.7308C19.8531 44.1128 23.5626 44.0842 25.6311 43.6708C30.7616 42.6455 35.7061 39.564 38.6389 35.5644C40.2046 33.4292 40.1619 33.3028 38.4478 34.9999C37.524 35.9144 36.7045 36.6628 36.627 36.6628C36.5494 36.6628 36.3151 35.882 36.1063 34.9276C35.8975 33.9731 35.6097 32.8188 35.4667 32.3622C35.2088 31.5393 35.21 31.5301 35.6062 31.2572C36.1275 30.8983 39.5979 27.3195 39.9472 26.7807C40.0954 26.552 40.2623 26.4116 40.3179 26.4689C40.4632 26.6185 40.8766 29.7554 40.8973 30.8638C40.9135 31.7438 40.9256 31.7702 41.0915 31.2902C41.1888 31.0088 41.2821 29.3902 41.299 27.6932C41.3291 24.6545 41.3374 24.5883 41.8491 23.3216C42.5221 21.6549 42.9365 19.2142 42.7812 17.8321C42.5947 16.1726 42.4415 15.9765 42.3087 17.227C42.2445 17.8323 42.1143 18.6348 42.0196 19.01C41.7323 20.1478 40.872 22.3359 40.7118 22.3359C40.6293 22.3359 40.5112 22.1248 40.4495 21.8669C40.2655 21.0973 39.3168 18.9106 38.7004 17.8354L38.1249 16.8313L38.605 15.6533C39.2485 14.0742 39.6072 12.101 39.4732 10.8763C39.343 9.68593 38.6276 8.09769 37.9128 7.41205L37.3792 6.90037L37.6624 7.5826C38.0967 8.62847 38.0658 10.8691 37.5964 12.3497C37.1764 13.6751 36.802 14.4943 36.6218 14.4822C36.556 14.4778 36.1684 14.0442 35.7604 13.5189C35.3524 12.9936 34.3748 11.9518 33.588 11.2036L32.1573 9.84319L32.4905 8.88346C33.6125 5.6524 32.5694 2.97855 29.587 1.44028C28.4006 0.828486 27.424 0.601813 28.5002 1.18802C29.3115 1.62994 30.3616 2.89242 30.5998 3.71212C30.9919 5.06141 30.6298 7.88842 30.0347 8.12396C29.9235 8.16796 29.5092 7.9928 29.114 7.73491C28.7188 7.47703 27.6882 6.92595 26.8238 6.5103C25.9594 6.09465 25.2328 5.73648 25.2089 5.71448C25.1853 5.69247 25.2783 5.34573 25.4157 4.94406C26.664 1.29718 23.2306 -0.770501 17.651 0.26803ZM22.0196 1.18785C23.1113 1.8167 23.5613 2.5907 23.4756 3.69199C23.3697 5.05271 23.2701 5.11087 21.6634 4.75133C20.9164 4.58418 19.6315 4.40527 18.8081 4.35376L17.311 4.25978L18.8 4.58094C20.6211 4.97357 22.6878 5.61027 22.6878 5.77861C22.6878 5.9449 20.8815 7.81832 20.4165 8.13419C20.0762 8.3653 19.9989 8.34466 19.4116 7.86505C18.7596 7.33257 16.3119 5.79174 16.1183 5.79174C16.0591 5.79174 16.3405 6.07862 16.7435 6.42929C18.0052 7.527 19.2136 8.73421 19.2136 8.89693C19.2136 9.11695 15.7724 10.7876 15.5228 10.6888C15.4099 10.6441 15.1426 9.85018 14.9287 8.92456C14.7147 7.99894 14.4699 7.12636 14.3845 6.98565C14.2326 6.73527 14.294 8.13641 14.5238 10.1696L14.6236 11.0509L13.982 11.2457C13.2628 11.464 10.6107 11.6943 10.6107 11.5384C10.6107 11.2842 11.5189 8.51215 11.8712 7.69074C12.1028 7.15109 12.1709 6.85398 12.0368 6.96859C11.7553 7.20942 10.1775 10.4724 10.0192 11.141C9.91168 11.5955 9.85924 11.6233 9.26332 11.5408C8.41578 11.4236 7.48368 10.9107 7.06313 10.33C6.57922 9.66188 6.59792 8.18502 7.10367 7.12687C7.56276 6.16612 9.12253 4.51579 10.3938 3.64577C12.1886 2.41758 14.4246 1.44591 16.9801 0.783628C17.1621 0.736554 18.2044 0.712506 19.2963 0.730414C21.0716 0.759409 21.3596 0.807678 22.0196 1.18785ZM27.8512 8.29622C28.6678 8.81694 29.3054 9.33953 29.3054 9.48808C29.3054 9.78196 25.8054 13.4669 25.5261 13.4669C25.4291 13.4669 24.5386 12.624 23.5471 11.5936L21.7443 9.72038L23.2501 8.12975L24.7558 6.53913L25.5764 6.95392C26.0277 7.18213 27.0513 7.78608 27.8512 8.29622ZM22.5007 12.391C23.4118 13.4877 24.1243 14.4399 24.0841 14.5068C23.7749 15.0225 18.2376 17.8393 17.8412 17.6826C17.6222 17.5959 16.0702 13.334 16.0702 12.8196C16.0702 12.6125 16.2909 12.4497 16.7733 12.3004C17.1601 12.1807 18.1465 11.7135 18.9654 11.2622C19.7843 10.8111 20.542 10.4318 20.6492 10.4193C20.7566 10.4069 21.5896 11.2941 22.5007 12.391ZM35.3235 15.3094L35.7991 16.0201L34.8337 17.2366C34.0117 18.2725 31.5579 20.6192 30.8916 21.0064C30.7537 21.0867 30.3598 20.6046 29.7073 19.5567C29.1697 18.6931 28.3753 17.503 27.9422 16.9116C27.1772 15.8673 27.0119 15.5136 27.2892 15.5136C27.5488 15.5136 29.9821 13.0799 30.7469 12.0553L31.5198 11.0195L33.1838 12.809C34.0989 13.7933 35.0617 14.9185 35.3235 15.3094ZM15.0776 13.2726C15.0776 13.4473 15.3661 14.6429 15.7188 15.9297C16.1506 17.5054 16.2993 18.2925 16.1738 18.3401C14.8026 18.8604 10.0861 19.6346 9.83905 19.3801C9.66402 19.1995 10.0887 13.9601 10.2996 13.6982C10.412 13.5585 10.8547 13.4595 11.4167 13.4485C11.9289 13.4384 12.8317 13.3342 13.4231 13.2172C14.9773 12.9093 15.0776 12.9127 15.0776 13.2726ZM27.6287 19.3411C28.5682 20.7896 29.288 22.0564 29.2283 22.156C28.8352 22.8116 21.561 26.5475 21.2905 26.2328C20.9095 25.7894 18.6881 20.4209 18.8304 20.2873C18.9047 20.2178 19.3906 20 19.9102 19.8035C21.0541 19.3709 23.8467 17.9391 24.9375 17.226C25.3737 16.9408 25.7733 16.7075 25.8254 16.7075C25.8776 16.7075 26.689 17.8927 27.6287 19.3411ZM38.0471 19.7446C38.7122 21.0625 39.7281 23.6095 39.7281 23.959C39.7281 24.3154 37.1023 27.2369 35.8434 28.2807C35.1377 28.8663 34.5403 29.3223 34.5159 29.2944C34.4916 29.2664 34.2665 28.7063 34.0156 28.0496C33.7648 27.393 33.2351 26.1856 32.8387 25.3667C32.4423 24.5477 32.1179 23.813 32.1179 23.734C32.1179 23.6548 32.7492 23.0359 33.5208 22.3586C34.2924 21.6811 35.4272 20.5164 36.0425 19.77C36.6579 19.0237 37.2095 18.4131 37.2682 18.4131C37.3269 18.4131 37.6775 19.0122 38.0471 19.7446ZM18.1294 23.0241C18.6062 24.1935 19.1568 25.4733 19.353 25.8682C19.5492 26.2632 19.7099 26.6534 19.7099 26.7356C19.7099 27.0984 14.5278 28.2453 12.4527 28.3418L11.3993 28.3907L11.0006 27.0263C10.591 25.6243 9.92393 22.1343 10.0422 22.0124C10.0786 21.9747 10.8729 21.8756 11.8071 21.792C12.7415 21.7083 14.2876 21.4613 15.243 21.2432C16.1984 21.0248 17.0436 20.858 17.1214 20.8722C17.1992 20.8863 17.6528 21.8548 18.1294 23.0241ZM31.6515 26.344C32.0241 27.0945 32.5766 28.2686 32.8794 28.9533L33.4298 30.1978L32.4016 30.8819C31.2353 31.6578 26.6317 34.0318 25.9822 34.1923C25.5858 34.2902 25.4872 34.181 24.6416 32.7088C23.1011 30.0262 22.5035 28.8492 22.64 28.7653C22.7118 28.7211 23.4263 28.4063 24.2279 28.0655C25.9979 27.3132 28.1879 26.18 29.6363 25.2673C30.3841 24.7961 30.7515 24.649 30.8428 24.7846C30.915 24.8919 31.2788 25.5936 31.6515 26.344ZM21.4543 30.139C21.7029 30.5846 22.4252 31.8173 23.059 32.8783C23.693 33.9394 24.1852 34.8309 24.1529 34.8592C23.7924 35.1762 19.7198 36.2429 17.6412 36.5649C16.166 36.7933 15.9696 36.7925 15.7157 36.5556C14.9119 35.8058 12.3147 31.1951 12.5112 30.8673C12.5685 30.7716 12.9275 30.6931 13.3088 30.6928C14.5472 30.6919 16.7727 30.3453 18.7172 29.8507C19.7636 29.5845 20.7058 29.3582 20.8109 29.3478C20.9159 29.3373 21.2055 29.6933 21.4543 30.139ZM151.121 12.5372C145.228 13.3116 142.319 15.9603 142.319 20.5521C142.319 23.8383 143.871 26.1901 146.699 27.1891C147.154 27.3497 150.12 27.926 153.29 28.4698C158.691 29.3963 159.081 29.4868 159.494 29.9127C159.837 30.267 159.934 30.5322 159.934 31.1168C159.934 32.6323 158.837 33.1661 155.933 33.0631C153.6 32.9804 152.921 32.6053 152.504 31.1694C152.424 30.8932 152.026 30.8709 147.201 30.8709C141.278 30.8709 141.838 30.6986 142.15 32.4254C142.986 37.0424 147.429 39.2283 155.977 39.2283C160.262 39.2283 163.522 38.6704 165.89 37.5316C167.695 36.6636 168.787 35.6085 169.569 33.979L170.192 32.6795V30.3681C170.192 28.1024 170.181 28.0364 169.668 27.0333C168.764 25.267 167.267 24.0654 165.134 23.3962C164.536 23.2086 161.422 22.6131 158.213 22.0728C151.712 20.9782 151.58 20.9326 151.58 19.7873C151.58 19.268 151.683 19.0428 152.081 18.698C152.717 18.1462 153.439 17.991 155.303 18.0048C156.541 18.0139 156.951 18.0906 157.731 18.4588C158.648 18.8916 159.19 19.539 159.19 20.2025C159.19 20.4355 159.789 20.4668 164.236 20.4668H169.282V19.9497C169.282 19.1941 168.671 17.4495 168.115 16.616C166.748 14.5672 164.082 13.2312 160.157 12.6268C158.11 12.3117 153.209 12.2631 151.121 12.5372ZM196.993 12.3919C193.714 12.7939 191.731 13.3518 190.136 14.3213C186.369 16.6114 184.66 20.5828 184.887 26.5217C185.002 29.5359 185.292 30.8895 186.253 32.8959C187.784 36.0944 190.35 37.9409 194.486 38.8213C196.417 39.2324 201.584 39.3197 203.941 38.9813C206.078 38.6745 208.24 38.0088 209.566 37.2495C210.762 36.5648 212.278 34.9056 212.997 33.4943C213.527 32.4533 214.445 29.5221 214.446 28.8668C214.447 28.7011 213.363 28.6536 209.58 28.6536H204.713L204.447 29.4638C204.042 30.6995 203.159 31.8192 202.164 32.36C201.374 32.7892 201.136 32.8323 199.557 32.8323C197.995 32.8323 197.737 32.7868 196.993 32.3792C195.008 31.2918 194.095 29.2308 194.1 25.8462C194.105 22.2019 195.099 20.1153 197.324 19.0729C198.508 18.518 201.149 18.5027 202.122 19.0447C203.308 19.7058 204.307 21.0894 204.596 22.4709L204.712 23.0252H209.579H214.447V22.6179C214.447 21.9176 213.624 19.2439 213.077 18.1689C212.788 17.6004 212.034 16.5992 211.391 15.9291C209.518 13.9769 206.894 12.8703 203.162 12.4577C201.663 12.2918 198.118 12.2541 196.993 12.3919ZM228.923 12.3919C226.645 12.6713 225.586 12.8824 224.365 13.3008C221.379 14.3245 219.39 16.0489 218.166 18.6756C217.105 20.9519 216.845 22.3646 216.848 25.8394C216.851 29.3042 217.086 30.5421 218.187 32.8884C219.681 36.0717 222.271 37.939 226.416 38.8213C228.085 39.1766 233.482 39.3226 235.593 39.0697C238.911 38.6719 241.289 37.7633 243.108 36.199C245.385 34.2411 246.528 31.7068 246.91 27.7729C247.126 25.5404 246.945 22.7786 246.458 20.8932C245.669 17.8349 243.661 15.2668 241.065 13.9957C239.374 13.1676 237.587 12.689 235.316 12.4559C233.715 12.2914 230.042 12.2548 228.923 12.3919ZM56.4516 25.7424V38.3755H60.753H65.0545V34.4659V30.5566L70.8863 30.4849C75.4512 30.429 76.8977 30.3575 77.5452 30.1561C81.2074 29.0171 82.9052 26.3845 82.9134 21.8313C82.9217 17.1911 81.2071 14.5164 77.5917 13.53C76.6924 13.2848 75.1998 13.2374 66.5021 13.178L56.4516 13.1093V25.7424ZM85.8999 25.7541V38.3755H97.6462H109.392V35.3054V32.2354H102.03H94.6683V30.5298V28.8242H101.534H108.4V25.7541V22.6841H101.534H94.6683V20.9785V19.2729H102.03H109.392V16.2029V13.1328H97.6462H85.8999V25.7541ZM113.319 13.235C113.252 13.3039 113.198 18.99 113.198 25.8706V38.3811L117.54 38.3357L121.883 38.2902L121.928 34.41L121.972 30.5298H127.187C132.826 30.5298 134.104 30.3908 135.816 29.5919C136.291 29.3705 137.041 28.8402 137.484 28.4138C139.074 26.88 139.732 24.9489 139.725 21.8313C139.717 17.9794 138.66 15.6049 136.4 14.3627C134.342 13.2319 134.498 13.2462 123.452 13.1746C117.946 13.1388 113.386 13.1661 113.319 13.235ZM173.365 13.2437C173.303 13.3078 173.252 18.9886 173.252 25.8679V38.3755H177.637H182.023L181.98 25.7968L181.938 13.2181L177.708 13.1726C175.382 13.1477 173.428 13.1795 173.365 13.2437ZM35.0364 34.6282C35.4202 35.7942 35.7385 36.9016 35.7438 37.0892C35.7505 37.3302 35.4017 37.6652 34.556 38.2299C33.2043 39.1325 30.5211 40.5857 30.2059 40.5857C29.9708 40.5857 29.138 39.5866 27.7494 37.6386L26.8036 36.3118L27.5995 35.9666C29.183 35.2798 31.7289 33.9354 32.8624 33.1874C33.4993 32.7671 34.0921 32.4424 34.1796 32.4657C34.267 32.4891 34.6526 33.4621 35.0364 34.6282ZM26.4428 37.745C26.8246 38.2374 27.5984 39.1593 28.162 39.7936C28.7456 40.4501 29.1234 41.0087 29.0394 41.0907C28.8114 41.3135 26.3463 42.0733 24.7591 42.4101L23.332 42.7129L21.9759 41.9921C20.6464 41.2853 19.3768 40.3779 18.1437 39.2533C17.803 38.9427 17.5509 38.6647 17.5831 38.6357C17.6154 38.6065 18.2747 38.4912 19.0481 38.3792C20.461 38.1743 23.9013 37.3473 24.6731 37.0268C25.4429 36.707 25.7276 36.8227 26.4428 37.745ZM234.699 19.173C236.622 20.1429 237.56 21.9492 237.726 24.9982C237.933 28.8332 236.862 31.3681 234.585 32.4293C233.837 32.7779 233.464 32.8323 231.818 32.8323C229.968 32.8323 229.887 32.8165 228.877 32.2519C227 31.2026 226.209 29.5786 226.069 26.4857C225.934 23.5091 226.384 21.7059 227.611 20.3057C228.75 19.0055 229.965 18.5757 232.265 18.6582C233.514 18.7031 233.95 18.7954 234.699 19.173ZM72.546 19.3347C73.5424 19.7694 73.7401 20.1689 73.7401 21.746C73.7401 22.9188 73.6837 23.2253 73.4092 23.5425C72.7547 24.2993 72.2344 24.3897 68.534 24.3897H65.0545V21.746V19.1024H68.534C71.0993 19.1024 72.1535 19.1634 72.546 19.3347ZM129.774 19.4999C130.405 19.9412 130.804 21.1119 130.683 22.1659C130.455 24.1509 129.883 24.3897 125.354 24.3897H121.966V21.7343V19.079L125.647 19.1332C128.888 19.1812 129.381 19.225 129.774 19.4999Z" fill="white"/>
</svg>
