<svg width="193" height="60" viewBox="0 0 193 60" fill="none" xmlns="http://www.w3.org/2000/svg">
<path fill-rule="evenodd" clip-rule="evenodd" d="M27.8174 0.0929613C25.0894 0.477034 22.2679 1.5756 20.0244 3.12731C18.5072 4.17673 3.81018 18.8835 2.94243 20.2204C-0.988331 26.2779 -0.980287 33.7651 2.9635 39.7663C3.69258 40.8757 5.29551 42.5639 11.4396 48.6934C19.1497 56.3854 19.8793 57.0281 22.2338 58.201C26.2107 60.1823 31.2507 60.5545 35.5058 59.1811C36.9644 58.7102 39.4111 57.4302 40.6537 56.4877C42.2212 55.2989 56.2463 41.1653 57.0495 39.965C58.0846 38.4188 59.1096 36.1643 59.5858 34.3879C59.975 32.9361 60.0163 32.5112 60.0163 29.9705C60.0163 27.4452 59.9737 27.0009 59.5963 25.6003C59.1024 23.7672 58.1928 21.7591 57.12 20.1329C56.5732 19.3042 54.3264 16.9326 49.3469 11.9281C45.4947 8.05665 41.8601 4.49317 41.27 4.00935C39.0152 2.16046 36.4157 0.908012 33.6487 0.337444C32.1181 0.021801 29.1939 -0.100922 27.8174 0.0929613ZM32.6331 11.4584C36.1366 13.1836 37.7443 17.2736 37.5418 23.9468C37.4202 27.9528 36.7722 31.5942 35.5836 34.9509C34.9276 36.8033 33.2907 40.0378 32.8234 40.4049C32.2011 40.8937 31.2185 40.8468 30.6482 40.3013C29.9415 39.6253 30.031 38.994 31.1423 36.8101C33.3921 32.389 34.3514 27.7459 34.1755 22.13C34.0404 17.8173 33.0869 15.354 31.2081 14.4638C30.3173 14.0418 28.6951 14.0704 27.7553 14.5247C24.9863 15.8631 24.0993 21.3371 25.3042 29.6492C26.0463 34.7686 27.6634 39.5562 29.489 42.0396C30.2602 43.0887 31.6477 44.3224 32.543 44.7551C33.7276 45.3278 35.1528 45.2637 36.5548 44.5744C37.9433 43.8919 40.0961 41.8801 41.5403 39.9154C42.1144 39.1344 42.7241 38.4206 42.8953 38.329C43.5262 37.992 44.1955 38.1332 44.7926 38.7295C45.2989 39.235 45.351 39.3648 45.2748 39.9321C45.2199 40.3396 44.9128 40.955 44.4194 41.6454C41.9611 45.0854 39.3008 47.2947 36.5794 48.1565C35.046 48.6421 32.6993 48.5064 31.3094 47.8515C26.5518 45.6103 23.381 39.5442 22.0047 30.0508C20.4431 19.2793 22.1501 12.9243 27.0727 11.1832C27.8716 10.9007 28.3143 10.855 29.8178 10.9007C31.4436 10.9498 31.7058 11.0018 32.6331 11.4584ZM105.365 19.0467C99.7164 19.8444 95.7081 23.2911 94.7769 28.151C94.1498 31.424 95.0045 34.8063 97.0912 37.3098C100.226 41.0707 106.647 42.6359 112.405 41.0429C116.305 39.9636 119.261 37.2317 120.474 33.5847C120.792 32.6304 120.849 32.1321 120.849 30.2917C120.849 27.8988 120.595 26.8102 119.604 24.9478C118.579 23.0204 116.237 20.9818 114.009 20.0779C111.699 19.1408 107.904 18.688 105.365 19.0467ZM75.2413 29.2868C75.2413 40.1724 75.1811 39.655 76.5304 40.3674L77.2224 40.7329H85.482H93.7416V39.5281V38.3234H88.2668C83.8499 38.3234 82.6842 38.2784 82.2341 38.0906C81.9273 37.9626 81.6596 37.8362 81.6394 37.8095C81.6191 37.7829 81.5649 33.7132 81.5187 28.7657L81.4349 19.7703L78.3381 19.7266L75.2413 19.6831V29.2868ZM122.216 20.975V22.2601H126.56H130.903V31.4965V40.7329H134.121H137.338V31.4965V22.2601H141.038H144.738V20.975V19.69H133.477H122.216V20.975ZM147.151 20.975V22.2601H150.851H154.551V31.4965V40.7329H157.769H160.986V31.4965V22.2601H165.33H169.673V20.975V19.69H158.412H147.151V20.975ZM175.082 19.8561C174.827 19.9324 174.44 20.1611 174.222 20.3643C173.353 21.1746 173.374 20.9392 173.374 30.2217C173.374 38.7865 173.376 38.8459 173.725 39.4661C173.949 39.8638 174.317 40.2068 174.741 40.4116C175.381 40.7208 175.734 40.7329 184.203 40.7329H193V39.5281V38.3234H186.879C180.45 38.3234 180.011 38.2784 179.747 37.5933C179.693 37.4503 179.648 35.8573 179.648 34.0534V30.7736H186.243H192.839V29.5689V28.3642H186.243H179.648V25.6613C179.648 23.044 179.659 22.9476 180.02 22.6093C180.389 22.263 180.445 22.2601 186.696 22.2601H193V20.975V19.69L184.273 19.7038C179.473 19.7114 175.337 19.7799 175.082 19.8561ZM110.257 21.9273C115.295 24.2817 116.316 33.1155 112.043 37.3827C111.558 37.8665 110.78 38.4138 110.161 38.7057C109.237 39.1412 108.934 39.2032 107.738 39.2016C106.597 39.2001 106.217 39.129 105.45 38.7728C103.674 37.9485 102.237 36.2625 101.369 33.9863C100.935 32.8492 100.91 32.6416 100.91 30.2917C100.91 27.9419 100.935 27.7343 101.369 26.5972C102.398 23.8987 104.258 22.0026 106.408 21.461C107.476 21.1919 109.105 21.3892 110.257 21.9273ZM23.4386 44.9887C24.1081 45.3344 24.4056 45.8448 24.4056 46.6479C24.4056 47.2332 24.314 47.4423 23.8586 47.8971C23.4363 48.3188 23.1778 48.4432 22.7244 48.4432C20.9721 48.4432 20.0823 46.502 21.3107 45.3591C22.0226 44.697 22.659 44.5861 23.4386 44.9887Z" fill="white"/>
</svg>
