<svg width="322" height="52" viewBox="0 0 322 52" fill="none" xmlns="http://www.w3.org/2000/svg">
<path fill-rule="evenodd" clip-rule="evenodd" d="M73.5608 14.5181L73.5345 23.4837L73.0216 23.1196C72.278 22.5917 70.3779 21.6792 69.303 21.3337C66.3947 20.399 63.5974 20.5972 60.8955 21.9294C57.601 23.5537 55.6242 26.2251 54.8271 30.1298C54.5567 31.4543 54.5919 34.7461 54.8921 36.2096C55.8068 40.6691 58.1142 43.5602 61.892 44.9799C63.2136 45.4767 63.9262 45.5868 65.794 45.5832C67.3796 45.5801 67.6467 45.5528 68.5672 45.2992C70.2989 44.8221 72.0742 43.8622 73.2479 42.7684L73.6837 42.3622L73.7123 43.82L73.7409 45.2779L77.4305 45.305L81.1201 45.332V25.4424V5.55273H77.3536H73.5872L73.5608 14.5181ZM151.636 25.4153L151.662 45.2779H155.377H159.092L159.119 25.4153L159.145 5.55273H155.377H151.61L151.636 25.4153ZM164.227 25.4153L164.253 45.2779L167.891 45.305L171.529 45.3321V25.4424V5.55273H167.865H164.201L164.227 25.4153ZM0 25.792V45.3319L3.89604 45.3049L7.79207 45.2779L7.81819 29.5372L7.8443 13.7966H10.0673C12.6378 13.7966 13.4618 13.9207 14.6464 14.486C16.5171 15.3787 17.4716 17.3028 17.1544 19.5422C16.8648 21.5864 15.8919 22.8408 14.0877 23.4959C13.58 23.6803 13.1755 23.7292 11.8429 23.7674L10.2174 23.8139V28.3496V32.8853L13.0665 37.3813C14.6335 39.8541 16.41 42.6538 17.0142 43.6029L18.1127 45.3287L22.6623 45.329C25.1647 45.3292 27.2391 45.3024 27.2722 45.2694C27.3052 45.2364 26.9529 44.6588 26.4894 43.9857C24.9749 41.7863 22.2496 37.8335 19.3167 33.5819L16.4377 29.4084L16.7592 29.3322C19.4196 28.7008 21.1101 27.838 22.5532 26.3751C24.3612 24.5421 25.221 22.4027 25.3512 19.4127C25.644 12.687 22.7266 8.611 16.4936 7.03715C14.047 6.41937 13.189 6.35744 6.32138 6.30272L0 6.25233V25.792ZM93.5049 26.2184V45.3383L102.097 45.3045C110.469 45.2716 110.718 45.2649 111.838 45.0433C114.932 44.431 117.166 43.2961 118.859 41.4764C120.76 39.4344 121.548 36.7507 121.273 33.2572C120.987 29.6196 119.849 27.4525 117.368 25.825C116.683 25.3751 115.18 24.6167 114.975 24.6167C114.786 24.6167 114.863 24.4696 115.245 24.1014C116.305 23.0798 117.439 21.1057 117.88 19.5158C118.195 18.3796 118.222 15.4684 117.928 14.3634C117.699 13.5037 117.086 12.1508 116.613 11.4602C115.273 9.50618 113.017 8.10184 110.191 7.46325C108.862 7.16286 107.166 7.10021 100.342 7.09939L93.5049 7.09846V26.2184ZM107.386 14.1006C109.192 14.6881 110.072 15.7877 110.194 17.6094C110.289 19.0268 109.835 20.3115 108.983 21.0399C108.208 21.7026 107.616 21.8556 105.606 21.9128L103.826 21.9634V25.2995V28.6356H106.242C107.927 28.6356 108.895 28.6809 109.442 28.7854C111.643 29.2058 113.003 30.5839 113.329 32.7232C113.725 35.3294 112.319 37.4084 109.574 38.2742C108.781 38.5243 108.712 38.5282 105.11 38.5282H101.452V26.1521V13.776L104.058 13.8208C106.419 13.8613 106.732 13.8876 107.386 14.1006ZM38.0315 20.8208C32.3711 21.3222 28.5812 24.7831 27.3431 30.5815C27.0447 31.9788 26.9671 34.4502 27.1806 35.7471C28.069 41.1403 31.3767 44.6327 36.5866 45.6785C41.7215 46.7093 46.1673 45.5957 49.2649 42.5028C50.0549 41.714 51.187 40.3308 51.1893 40.1515C51.1899 40.1093 49.8333 39.3968 48.1747 38.5684L45.1591 37.0622L45.0011 37.3018C44.5942 37.9187 44.0189 38.5632 43.5259 38.9546C41.8442 40.2898 39.8134 40.4897 37.7735 39.5209C36.9748 39.1414 35.8931 38.1112 35.4792 37.3354C35.1769 36.7691 34.8837 35.7726 34.8837 35.3121V35.0246H43.3982H51.9128V33.2909C51.9128 30.6617 51.5318 28.8138 50.5812 26.8322C48.8532 23.2299 45.76 21.2036 41.3857 20.8087C40.0482 20.688 39.5088 20.6899 38.0315 20.8208ZM123.504 22.0062C123.386 22.1236 123.424 36.0738 123.545 37.1574C124.106 42.178 127.043 45.2602 132.169 46.2088C133.417 46.4397 136.655 46.526 137.956 46.363C141.602 45.9061 144.189 44.4295 145.765 41.9053C146.392 40.9007 146.726 40.0615 147.028 38.7347L147.274 37.6523L147.274 29.8464L147.275 22.0405H143.457H139.638L139.636 28.8674C139.634 36.2629 139.616 36.5483 139.068 37.6669C138.324 39.1858 136.624 39.9787 134.768 39.6728C133.137 39.4037 132.088 38.509 131.403 36.8032L131.124 36.1066L131.094 29.022L131.064 21.9374H127.318C125.258 21.9374 123.541 21.9683 123.504 22.0062ZM41.4936 26.4539C42.3021 26.7686 43.1304 27.5419 43.5859 28.4073C43.8981 29.0005 44.2755 30.0961 44.2755 30.409C44.2755 30.4538 42.1846 30.4904 39.6292 30.4904H34.983L35.0496 30.2071C35.5211 28.2013 36.5629 26.938 38.2366 26.3422C38.9677 26.082 40.6897 26.1411 41.4936 26.4539ZM69.4285 27.3537C71.076 27.7716 72.5825 28.9088 73.2244 30.2192C74.382 32.5824 73.9724 35.6647 72.2798 37.3279C71.2004 38.3887 69.5058 39.0483 67.8379 39.0569C65.2151 39.0705 63.3071 37.4678 62.8091 34.8329C62.2749 32.0065 63.1353 29.3933 65.0122 28.1419C66.4774 27.1649 67.7726 26.9337 69.4285 27.3537Z" fill="white"/>
<path fill-rule="evenodd" clip-rule="evenodd" d="M253.137 0.29782C247.899 0.718468 243.271 2.44572 239.273 5.47171C237.54 6.78328 235.328 8.99995 234.23 10.5252L234.072 10.7456L233.307 10.5007C232.278 10.1708 231.548 10.067 230.641 10.1214C229.644 10.1811 228.847 10.4732 227.79 11.1657C226.107 12.2689 225.121 12.7162 223.44 13.1388C222.155 13.4615 221.522 13.7003 220.768 14.146C220.261 14.4462 219.174 15.4346 218.625 16.0947C218.403 16.3619 218.347 16.3858 217.84 16.4302C215.139 16.6672 213.83 17.2309 212.175 18.8685C211.283 19.7515 211.034 19.9286 210.356 20.1622C209.813 20.3494 209.264 20.4449 207.961 20.5789C205.891 20.7917 204.619 21.3112 203.348 22.4642C202.111 23.585 200.499 24.6793 199.414 25.1338C198.034 25.7116 196.362 25.7599 195.532 25.2459C194.812 24.7999 194.537 24.3107 194.541 23.4874C194.543 22.9809 194.583 22.8123 194.819 22.3058C195.288 21.3 195.979 20.5687 197.984 18.9582C199.366 17.8479 199.928 17.0936 200.08 16.1448C200.306 14.7284 199.639 13.14 198.491 12.3609C197.904 11.9624 197.362 11.7782 196.324 11.6242C194.61 11.3702 193.091 10.7063 192.081 9.76988C191.618 9.34025 191.448 9.2295 191.251 9.2295C190.672 9.2295 190.227 9.77185 190.084 10.6502C189.892 11.8365 190.044 12.9915 190.514 13.9165C191.246 15.3565 192.724 16.2404 194.609 16.3659C194.955 16.389 195.323 16.4252 195.426 16.4463L195.613 16.4846L195.426 16.6843C195.323 16.794 194.831 17.1355 194.333 17.4431C192.442 18.6107 191.265 20.2164 190.859 22.1821C190.585 23.509 190.693 24.5477 191.247 25.9084C191.887 27.4807 193.234 28.5856 195.121 29.0865C195.704 29.2414 196.008 29.2663 197.484 29.28L199.177 29.2957L199.227 29.8379C199.337 31.0436 199.697 32.3584 200.153 33.2244C200.523 33.9264 200.512 33.956 199.656 34.4666L198.914 34.9094L197.734 34.8898C196.642 34.8716 196.536 34.8826 196.329 35.0349C195.993 35.2824 195.764 35.6655 195.584 36.2834C195.232 37.4896 195.11 37.8013 194.878 38.0828C194.745 38.2438 194.608 38.3755 194.574 38.3755C194.54 38.3755 194.192 38.0919 193.801 37.7453L193.09 37.1151L192.628 37.117C192.078 37.1192 191.531 37.3266 190.653 37.8656C189.854 38.3562 189.637 38.5616 189.375 39.0782C189.201 39.4196 189.042 39.5854 188.58 39.9053C187.818 40.4335 187.515 40.9575 187.393 41.955C187.345 42.342 187.225 42.8293 187.116 43.0758C186.843 43.6934 186.798 44.1271 186.964 44.5605C187.213 45.2135 187.891 45.5439 188.982 45.5439C189.354 45.5439 189.605 45.5776 189.622 45.63C189.643 45.6923 189.857 45.6924 190.397 45.6306C190.908 45.5719 191.291 45.5699 191.615 45.624C192.706 45.8063 193.086 45.8057 193.575 45.6209C194.142 45.407 194.563 45.0375 195.008 44.363C195.195 44.081 195.487 43.7144 195.657 43.5485C195.956 43.2575 195.978 43.2497 196.273 43.3314C196.815 43.4818 197.78 43.4342 198.364 43.2282C198.956 43.0191 199.179 42.8744 199.909 42.2271C201.09 41.1785 202.168 40.8854 203.786 41.1731C205.501 41.4782 206.31 41.4114 207.37 40.8774C207.716 40.7027 208.375 40.3932 208.834 40.1896C209.292 39.9859 209.873 39.6826 210.125 39.5154C210.595 39.2037 211.032 38.6389 211.034 38.3404C211.035 38.2514 211.245 37.8117 211.501 37.3631C211.757 36.9147 212.008 36.3748 212.058 36.1635L212.151 35.7793L212.714 35.8259C213.123 35.8598 213.651 35.816 214.633 35.6668C216.183 35.4314 216.815 35.4118 217.466 35.5785C218.745 35.9059 221.888 36.0569 222.932 35.8411L223.38 35.7487L223.866 36.1759L224.352 36.6031L223.502 36.6531C223.034 36.6806 222.528 36.7438 222.376 36.7936C222.224 36.8434 221.533 36.9002 220.84 36.92C219.34 36.9628 218.043 37.1248 217.77 37.3033C217.428 37.5274 217.317 37.7812 217.32 38.3282C217.323 38.916 217.401 39.0905 218.046 39.9607C218.301 40.3043 218.619 40.7921 218.754 41.0448C219.116 41.7238 219.573 41.9991 220.339 41.9991H220.72L221.007 42.5702C221.407 43.3669 221.666 43.6669 222.345 44.1211C223.44 44.8536 223.967 44.8563 225.936 44.1393C227.539 43.5557 228.502 43.1479 229.393 42.6766L230.068 42.319L230.85 42.3667C231.549 42.4092 231.676 42.3955 232.044 42.2371C232.484 42.0475 232.909 41.6371 233.287 41.0343C233.417 40.8285 233.546 40.6602 233.575 40.6601C233.603 40.66 233.797 40.8992 234.006 41.1916C234.901 42.4467 236.685 44.3874 237.977 45.5116C241.372 48.4662 245.957 50.6386 250.341 51.3689C252.168 51.6734 252.751 51.7195 254.791 51.7207C256.843 51.7219 257.377 51.6795 259.267 51.3649C263.55 50.652 267.786 48.6869 271.288 45.7878C272.584 44.7151 274.714 42.4809 275.37 41.5067C275.479 41.3442 275.593 41.2113 275.622 41.2113C275.651 41.2113 275.777 41.3468 275.902 41.5123C276.424 42.2063 276.994 42.4357 278.024 42.3662L278.738 42.3179L279.841 42.8605C280.78 43.3225 282.694 44.0859 284.078 44.5508C284.93 44.8371 285.784 44.6596 286.671 44.0119C287.283 43.5655 287.496 43.3022 287.908 42.486L288.154 41.9991L288.566 41.9931C289.312 41.9822 289.802 41.6795 290.136 41.0242C290.346 40.6101 291.036 39.5851 291.152 39.5135C291.341 39.3963 291.535 38.8018 291.536 38.3361C291.537 37.4662 291.281 37.2319 290.153 37.0694C289.724 37.0075 288.788 36.94 288.073 36.9194C287.273 36.8963 286.606 36.8362 286.34 36.7631C286.1 36.6973 285.58 36.6439 285.173 36.6434L284.44 36.6425L284.965 36.1976L285.489 35.7526L285.881 35.8431C286.819 36.0595 290.322 35.8913 291.346 35.5808C291.785 35.4475 292.792 35.4247 293.435 35.5334C295.094 35.8144 295.627 35.8719 296.154 35.8273L296.723 35.7793L296.815 36.1624C296.865 36.3731 297.099 36.886 297.333 37.3021C297.567 37.7182 297.801 38.2265 297.853 38.4315C297.99 38.9764 298.499 39.4502 299.422 39.8917C299.83 40.0872 300.608 40.4599 301.149 40.7198C301.691 40.9797 302.346 41.2366 302.606 41.2907C303.145 41.4026 304.083 41.3572 305.036 41.1731C306.592 40.8724 307.797 41.1838 308.869 42.1635C309.937 43.1405 310.695 43.4527 311.862 43.3974C312.274 43.3778 312.669 43.3365 312.74 43.3055C312.933 43.2214 313.357 43.6334 313.884 44.4183C314.218 44.9138 314.449 45.1661 314.746 45.356C315.451 45.8066 315.846 45.8496 317.246 45.6278C317.635 45.5662 317.983 45.5665 318.497 45.629C318.946 45.6836 319.227 45.6879 319.258 45.6406C319.284 45.5993 319.643 45.5476 320.055 45.5257C320.926 45.4794 321.389 45.2949 321.725 44.8588C322.05 44.4369 322.078 44.0306 321.828 43.333C321.712 43.011 321.566 42.4284 321.504 42.0385C321.32 40.8971 320.997 40.3764 320.101 39.7766C319.831 39.5955 319.646 39.3876 319.486 39.0846C319.174 38.4927 319.035 38.3619 318.18 37.8514C317.226 37.2825 316.778 37.1151 316.205 37.1151C315.752 37.1151 315.737 37.1227 315.202 37.6028C314.202 38.5002 314.329 38.4221 314.145 38.2558C313.851 37.9897 313.663 37.5954 313.428 36.7506C313.139 35.7139 312.968 35.3738 312.596 35.0913L312.305 34.8701L311.134 34.8897L309.963 34.9093L309.222 34.4733C308.814 34.2334 308.459 34.0016 308.432 33.9581C308.405 33.9146 308.542 33.5526 308.737 33.1536C309.223 32.1596 309.657 30.4609 309.657 29.5536V29.2598L310.945 29.2989C313.459 29.3751 315.244 28.8334 316.477 27.6203C317.086 27.0209 317.471 26.3721 317.817 25.3636C318.11 24.5093 318.123 24.431 318.119 23.4874C318.114 22.3153 317.949 21.6229 317.417 20.5334C316.753 19.1765 315.857 18.2335 314.422 17.3813C313.684 16.9429 313.249 16.5903 313.315 16.4835C313.337 16.4491 313.701 16.4002 314.124 16.3748C315.609 16.2859 316.691 15.8393 317.581 14.9484C318.5 14.0279 318.837 13.1214 318.828 11.5927C318.822 10.4173 318.678 9.90781 318.243 9.51497C317.72 9.04225 317.434 9.11079 316.619 9.90324C316.142 10.3679 314.938 11.0179 314.028 11.3017C313.682 11.4099 313.026 11.5539 312.571 11.6218C311.473 11.7857 311.037 11.9243 310.478 12.2872C309.599 12.8574 309.068 13.6632 308.829 14.7899C308.682 15.4834 308.682 15.8593 308.828 16.4206C309.058 17.3011 309.581 17.9087 311.352 19.351C313.325 20.9583 314.098 21.9444 314.317 23.1352C314.499 24.1252 313.928 25.0889 312.96 25.4257C312.39 25.6243 311.018 25.6255 310.287 25.4281C308.974 25.0736 306.974 23.8273 305.517 22.456C304.314 21.3243 303.063 20.8179 300.873 20.5763C298.328 20.2955 297.981 20.157 296.761 18.9374C295.179 17.3563 293.759 16.6965 291.466 16.4769C290.972 16.4296 290.526 16.3658 290.476 16.3352C290.426 16.3047 290.155 16.0138 289.874 15.6889C288.716 14.353 287.542 13.6701 285.551 13.1758C283.728 12.7232 282.954 12.3777 281.089 11.1849C279.738 10.3207 279.194 10.1439 277.872 10.1391C277.044 10.1361 276.708 10.1711 276.116 10.3223C275.713 10.4251 275.374 10.496 275.363 10.4799C275.003 9.96996 273.717 8.50762 273 7.79465C268.893 3.70601 263.763 1.19591 257.976 0.443077C257.101 0.329329 253.93 0.234092 253.137 0.29782Z" fill="white"/>
<path fill-rule="evenodd" clip-rule="evenodd" d="M191.144 10.4747C191.04 10.7357 191.009 12.1107 191.096 12.5748C191.289 13.6017 191.941 14.5265 192.768 14.9454C193.384 15.258 193.83 15.3678 194.958 15.4859C195.722 15.5657 196.048 15.6345 196.247 15.7572C196.68 16.0251 196.813 16.4972 196.582 16.9446C196.393 17.3099 195.561 18.0043 194.867 18.3753C193.752 18.972 192.932 19.9489 192.412 21.3014C192.052 22.2351 191.892 23.0175 191.893 23.8277C191.896 25.1401 192.262 26.0697 193.111 26.9144C194.006 27.8056 195.015 28.2356 196.518 28.3661C197.499 28.4514 199.368 28.3429 200.025 28.1626C200.147 28.1292 200.163 28.1895 200.163 28.6846C200.163 30.1777 200.463 31.5559 201.073 32.8667C201.705 34.2242 201.585 34.5453 200.124 35.4104L199.179 35.9701L198.147 35.9717C196.966 35.9736 196.935 35.9867 196.708 36.591C196.414 37.3737 195.987 38.238 195.631 38.7744C195.201 39.4202 194.424 40.1473 194.028 40.2728C193.871 40.3225 193.584 40.4645 193.389 40.5882C193.063 40.7951 192.958 40.9182 192.57 41.5503C192.412 41.8072 192.002 42.0775 191.769 42.0779C191.57 42.0783 191.253 42.4028 191.03 42.8354C190.862 43.1617 190.594 44.3678 190.651 44.5399C190.67 44.5968 190.817 44.6241 191.034 44.6108C191.227 44.5989 191.647 44.6487 191.967 44.7216C192.617 44.8695 193.187 44.838 193.53 44.6353C193.65 44.5648 193.957 44.2064 194.213 43.839C194.714 43.1179 195.415 42.4215 195.715 42.3464C195.817 42.3207 196.082 42.3384 196.303 42.3858C197.155 42.5687 198.066 42.4316 198.659 42.0314C198.815 41.9262 199.189 41.626 199.491 41.3643C200.109 40.828 200.903 40.4082 201.657 40.219C202.209 40.0805 202.934 40.0942 204.22 40.2675C204.61 40.3201 205.284 40.3459 205.717 40.325L206.504 40.2868L207.766 39.6526C208.46 39.3038 209.129 38.9928 209.254 38.9615C209.615 38.871 210.049 38.3794 210.161 37.9355C210.214 37.7228 210.408 37.2601 210.591 36.9075L210.924 36.2661L210.574 36.2182C209.831 36.1164 209.734 36.1422 209.494 36.505C209.149 37.0269 208.123 37.9907 207.563 38.3189C206.465 38.9629 205.174 39.1386 203.311 38.8977C201.041 38.6039 199.29 39.2118 197.51 40.9117C196.993 41.4062 196.819 41.5268 196.624 41.5268C196.309 41.5268 196.319 41.4234 196.678 40.985C197.432 40.063 198.329 39.3551 199.381 38.8528C200.452 38.3412 201.081 38.212 202.842 38.1417C204.004 38.0953 204.528 38.04 204.994 37.9147C206.448 37.524 207.845 36.6786 208.7 35.6718C209.063 35.2444 209.707 34.2732 209.806 34.004C209.838 33.9173 209.877 33.297 209.894 32.6255C209.911 31.9539 209.981 31.0862 210.049 30.697C210.186 29.9241 210.526 29.1367 210.74 29.0954C210.996 29.0462 211.041 29.4036 210.915 30.4809C210.85 31.0316 210.798 31.6775 210.798 31.916C210.798 32.5572 211.002 33.699 211.166 33.9789C211.388 34.3579 211.816 34.6551 212.331 34.7883C212.937 34.9453 213.235 34.9399 214.382 34.7508C215.515 34.5638 217.085 34.5444 217.862 34.7075C219.175 34.9831 221.543 35.1516 222.214 35.0173C222.407 34.9788 222.452 34.9379 222.409 34.8401C222.192 34.3455 222.047 33.7853 222.036 33.3985C222.024 32.9994 222.049 32.9188 222.24 32.7271C222.522 32.4452 222.643 32.5201 222.889 33.128C223.164 33.8062 223.772 34.7748 224.226 35.2573C224.729 35.7928 225.182 36.1136 225.907 36.4492C226.223 36.5957 226.62 36.8247 226.789 36.9581C227.458 37.4881 227.983 38.4963 228.092 39.4595L228.146 39.9375L227.842 40.1277C227.3 40.4657 225.428 41.2241 224.772 41.371C224.265 41.4846 223.823 41.3545 223.651 41.0415C222.737 39.3777 222.026 38.4473 221.461 38.1794C221.2 38.0556 221.074 38.0526 219.985 38.1438C218.738 38.2481 218.36 38.3564 218.36 38.6091C218.36 38.6919 218.572 39.0544 218.831 39.4146C219.09 39.7748 219.411 40.2731 219.544 40.5221C219.812 41.0221 219.965 41.1027 220.507 41.0299C221.114 40.9485 221.569 41.2981 221.871 42.0782C222.281 43.1363 223.223 43.808 224.169 43.7162C224.609 43.6735 228.065 42.3149 229.109 41.7742L229.815 41.4087H230.727C231.478 41.4087 231.679 41.3832 231.86 41.2646C232.115 41.0973 233.367 39.2125 233.531 38.7492C233.757 38.1079 233.63 37.3924 233.199 36.8898C233.05 36.7151 232.721 36.0707 232.423 35.3693C232.026 34.4332 231.836 34.0831 231.601 33.8541L231.297 33.5562L230.776 33.6121C230.489 33.6427 230.255 33.6957 230.255 33.7296C230.255 33.8691 230.833 35.1499 231.161 35.737C232.378 37.9144 232.406 38.0914 231.728 39.2864C231.481 39.7221 231.215 40.1475 231.136 40.2316C230.939 40.442 230.431 40.7057 230.36 40.6343C230.328 40.6022 230.367 40.4088 230.446 40.2045C231.06 38.6306 231.09 38.0083 230.586 37.2832C230.15 36.6553 229.503 35.5379 229.242 34.961C229.119 34.691 228.907 34.3155 228.77 34.1267C228.301 33.4791 228.457 33.2602 229.593 32.9721C230.431 32.7593 230.988 32.5396 231.228 32.3271C231.541 32.0496 231.911 31.3556 232.214 30.4783C232.532 29.5557 232.854 28.2313 232.854 27.8453C232.854 27.2818 233.183 28.2792 233.288 29.1606C233.404 30.1318 233.046 31.4728 232.413 32.4362C232.222 32.7274 232.074 32.9736 232.085 32.9832C232.097 32.9928 232.294 33.0404 232.523 33.0888C233.05 33.2 234.076 33.203 234.279 33.0941C234.365 33.0486 235.059 32.9055 235.822 32.7762C236.586 32.6469 237.234 32.5269 237.261 32.5097C237.289 32.4924 237.359 32.507 237.415 32.5421C237.495 32.591 237.442 32.7323 237.193 33.1465C237.013 33.4439 236.828 33.8293 236.781 34.0031C236.578 34.75 236.523 34.8595 236.216 35.1334C235.167 36.0671 234.877 36.4936 234.868 37.1155C234.862 37.5117 234.773 37.4824 235.669 37.3798C236.204 37.3185 236.298 37.4786 235.944 37.8494C235.589 38.2229 235.307 38.6744 235.214 39.0188C235.052 39.619 235.417 40.7318 235.849 40.9553C236.238 41.1565 237.165 40.9665 239.865 40.132C240.471 39.9445 240.664 39.9241 241.913 39.9147C243.546 39.9025 243.873 39.8101 244.732 39.1182C245.023 38.8843 245.373 38.6714 245.51 38.6451C245.741 38.6008 245.807 38.6458 246.416 39.2601C247.606 40.4609 248.782 40.9878 250.277 40.9899C250.74 40.9906 251.158 40.9667 251.207 40.9369C251.256 40.9063 251.031 40.7479 250.693 40.5748C249.941 40.1902 248.941 39.4902 248.618 39.1224C248.239 38.6908 248.143 38.5155 248.014 38.0138C247.852 37.3882 247.527 36.7072 247.063 36.0233C246.485 35.1711 246.398 34.9881 246.488 34.8187C246.656 34.5055 246.955 34.638 247.632 35.3267C248.207 35.9108 248.627 36.4823 249.239 37.5156C249.484 37.93 250.32 38.6314 250.893 38.9045C251.375 39.1342 252.302 39.234 252.783 39.1078L253.058 39.0357L252.552 38.7784C251.315 38.1497 250.668 37.5294 250.16 36.482C249.726 35.5892 249.165 34.8299 248.539 34.2876C248.09 33.8985 248.076 33.8752 248.023 33.3946C247.938 32.6222 247.676 31.6883 247.387 31.1288C247.021 30.4189 246.261 27.1917 246.162 25.9298C246.055 24.5515 245.797 23.7509 245.147 22.7788C244.988 22.5405 244.619 21.9835 244.326 21.5412C244.034 21.0987 243.467 20.3897 243.068 19.9657C242.668 19.5416 242.018 18.8225 241.623 18.3675C240.239 16.7722 239.315 15.9146 237.659 14.6861C237.074 14.2522 236.284 13.6107 235.902 13.2604C235.521 12.91 234.954 12.483 234.642 12.3114C233.147 11.4884 231.475 11.0881 230.312 11.2747C229.53 11.4002 229.028 11.614 228.157 12.1921C227.001 12.9594 225.319 13.7668 224.465 13.9645C221.771 14.5882 220.347 15.3822 219.426 16.7743C219.113 17.2468 218.645 17.4197 217.448 17.5045C216.317 17.5846 215.708 17.7269 214.899 18.1006C214.11 18.4648 213.585 18.8654 212.649 19.8198C212.034 20.4466 211.744 20.679 211.326 20.88C210.464 21.2953 209.838 21.443 208.617 21.52C207.315 21.6021 206.441 21.7992 205.559 22.2097C204.894 22.5194 204.056 23.106 203.715 23.5003C203.176 24.1237 201.609 25.185 200.294 25.8172C198.111 26.8669 196.173 26.925 194.788 25.9821C193.749 25.2754 193.359 24.1785 193.662 22.8171C193.833 22.051 194.276 21.1864 194.82 20.5571C195.32 19.9796 196.737 18.6867 197.564 18.0542C198.771 17.1311 199.1 16.5903 199.096 15.5317C199.094 14.72 198.875 14.1728 198.316 13.575C197.839 13.0646 197.244 12.8033 196.238 12.6622C194.427 12.4081 192.391 11.5353 191.478 10.6219C191.238 10.3827 191.189 10.3609 191.144 10.4747ZM317.338 10.6597C316.426 11.5648 314.442 12.4088 312.629 12.6634C311.077 12.8812 310.203 13.5463 309.851 14.7775C309.662 15.4366 309.725 16.1708 310.014 16.7023C310.257 17.1487 310.648 17.5332 311.827 18.4857C312.86 19.3208 314.145 20.6002 314.487 21.1353C314.897 21.7765 315.169 22.4826 315.269 23.1678C315.433 24.2924 315.054 25.2754 314.219 25.8901C313.393 26.4975 313.027 26.6002 311.706 26.5936C310.638 26.5883 310.516 26.5716 309.832 26.3388C308.21 25.7869 306.445 24.7118 305.068 23.4366C303.7 22.1693 302.417 21.657 300.269 21.5194C298.985 21.4372 298.444 21.3128 297.605 20.9062C297.12 20.6713 296.86 20.4636 296.148 19.746C294.579 18.1637 293.501 17.6513 291.428 17.5045C290.259 17.4216 289.761 17.2439 289.469 16.8045C288.649 15.5703 287.13 14.6154 285.315 14.193C284.905 14.0974 284.33 13.9511 284.039 13.868C283.346 13.6699 281.7 12.8393 280.709 12.1874C279.824 11.6054 279.342 11.3999 278.564 11.2739C276.914 11.0066 274.455 11.8693 273.007 13.2229C272.665 13.5428 271.883 14.1804 271.269 14.6398C269.44 16.0089 268.594 16.7932 267.209 18.4069C266.837 18.8402 266.194 19.5528 265.78 19.9907C265.367 20.4285 264.821 21.102 264.568 21.4874C264.315 21.8727 263.975 22.383 263.813 22.6213C263.112 23.6542 262.815 24.5304 262.705 25.8895C262.663 26.4099 262.579 27.0483 262.518 27.3083C261.938 29.8121 261.682 30.75 261.463 31.1816C261.159 31.7804 260.924 32.6095 260.853 33.3326L260.799 33.8794L260.324 34.2925C259.717 34.8204 259.041 35.7327 258.7 36.486C258.246 37.4861 257.691 38.0322 256.448 38.701C255.882 39.0055 255.839 39.0446 256.015 39.0935C256.416 39.2052 257.274 39.165 257.702 39.0143C258.515 38.7287 259.478 37.8999 259.841 37.1739C260.271 36.3146 261.563 34.8058 261.952 34.7081C262.53 34.563 262.545 34.9838 261.989 35.7386C261.521 36.3737 260.957 37.5214 260.82 38.1184C260.765 38.3567 260.608 38.6838 260.447 38.8942C260.095 39.3554 259.003 40.1659 258.207 40.5563C257.87 40.7218 257.593 40.8838 257.591 40.9163C257.588 40.9845 258.203 41.0176 258.889 40.9863C260.249 40.9241 261.674 40.1942 262.686 39.0415C263.058 38.6169 263.097 38.5935 263.354 38.6417C263.51 38.6711 263.805 38.8453 264.046 39.0506C264.911 39.7888 265.558 39.9802 266.963 39.913C268.081 39.8595 268.214 39.8846 270.454 40.5708C271.489 40.8876 271.915 40.9811 272.395 40.9958C272.904 41.0116 273.039 40.9892 273.175 40.8662C273.409 40.6557 273.664 39.9223 273.67 39.4446C273.676 38.9296 273.537 38.6023 273.073 38.0316C272.613 37.4669 272.634 37.3182 273.167 37.3803C274.023 37.4802 274.011 37.4813 274.037 37.2988C274.113 36.767 273.633 35.95 272.899 35.3619C272.393 34.9567 272.343 34.8718 272.074 33.9707C272.017 33.779 271.834 33.3972 271.668 33.1221C271.375 32.6363 271.346 32.4099 271.587 32.5025C271.652 32.5275 272.321 32.6521 273.073 32.7795C273.826 32.907 274.511 33.0486 274.596 33.0941C274.798 33.2018 275.956 33.1873 276.437 33.0708L276.813 32.9799L276.525 32.5535C275.926 31.6682 275.547 30.4942 275.55 29.5369C275.552 29.0803 275.714 28.2315 275.871 27.8597C275.971 27.6236 275.971 27.6236 275.999 27.8203C276.17 29.034 276.741 30.9707 277.124 31.6399C277.555 32.3927 277.978 32.6529 279.305 32.9814C280.381 33.2478 280.571 33.4872 280.151 34.0478C280.039 34.197 279.792 34.6313 279.6 35.0128C279.16 35.8912 278.935 36.2817 278.39 37.1155C277.953 37.7826 277.952 37.7873 277.959 38.3759C277.964 38.8545 278.02 39.1108 278.254 39.7259C278.413 40.1435 278.542 40.5246 278.542 40.5727C278.542 40.7138 278.385 40.675 278.02 40.4438C277.696 40.2392 277.48 39.9291 276.81 38.7082C276.745 38.5904 276.694 38.3135 276.696 38.0929C276.699 37.6788 276.988 37.0031 277.635 35.8945C277.909 35.4247 278.621 33.8658 278.621 33.7358C278.621 33.6985 278.387 33.6428 278.101 33.6121C277.586 33.557 277.577 33.5596 277.306 33.8196C276.982 34.1312 276.847 34.3797 276.367 35.559C276.168 36.0468 275.87 36.6233 275.704 36.84C275.322 37.3392 275.233 37.5767 275.237 38.0856C275.242 38.6618 275.351 38.9084 276.122 40.0884C276.994 41.4235 277.04 41.4535 278.188 41.4295L279.054 41.4115L280.118 41.9336C280.991 42.3621 282.656 43.0494 284.214 43.6239C284.651 43.7848 285.227 43.7546 285.672 43.5474C286.158 43.3209 286.826 42.6088 286.955 42.1805C287.087 41.7404 287.486 41.219 287.788 41.0929C287.94 41.0293 288.174 41.0038 288.369 41.0299C288.824 41.091 289.051 41.0155 289.179 40.7609C289.24 40.6406 289.568 40.1282 289.91 39.6223C290.576 38.6343 290.617 38.4619 290.218 38.3128C289.847 38.1742 287.75 38.0349 287.498 38.1322C286.947 38.3456 286.033 39.4727 285.414 40.702C284.99 41.5439 284.553 41.6029 283.037 41.0228C281.842 40.5656 280.963 40.1544 280.824 39.9878C280.665 39.7955 280.85 38.7685 281.157 38.1396C281.515 37.4072 282.07 36.8867 282.963 36.4457C283.369 36.2452 283.809 35.9983 283.942 35.8971C284.718 35.3056 285.466 34.3069 285.921 33.2556C286.243 32.5133 286.36 32.4278 286.631 32.739C286.818 32.9545 286.829 33.0127 286.794 33.5662C286.77 33.9292 286.689 34.3118 286.586 34.5469C286.492 34.7588 286.437 34.9533 286.463 34.979C286.488 35.0048 286.888 35.0388 287.351 35.0547C288.218 35.0842 290.047 34.9111 291.013 34.7079C291.806 34.5409 293.36 34.5634 294.533 34.7587C295.694 34.9519 296.329 34.9222 296.932 34.6459C297.742 34.2752 298.028 33.5626 298.026 31.9165C298.025 31.3749 297.981 30.5879 297.928 30.1677C297.825 29.3504 297.885 29.047 298.138 29.0958C298.302 29.1274 298.592 29.6995 298.743 30.2865C298.892 30.8721 299.042 32.8422 298.98 33.4104C298.934 33.8299 298.947 33.8712 299.325 34.4972C300.402 36.2803 301.97 37.4353 304.017 37.9533C304.301 38.0251 305.129 38.102 306.034 38.1406C308.151 38.2307 309.144 38.5148 310.48 39.4119C311.224 39.912 312.494 41.203 312.494 41.4599C312.494 41.4967 312.385 41.5268 312.251 41.5268C312.057 41.5268 311.883 41.4062 311.365 40.9117C309.586 39.2118 307.834 38.6039 305.564 38.8977C304.326 39.058 303.061 39.0117 302.332 38.7794C301.308 38.4535 300.206 37.6269 299.497 36.653C299.115 36.128 299.072 36.1126 298.299 36.2186L297.946 36.2669L298.287 36.9295C298.475 37.2939 298.667 37.7465 298.715 37.9352C298.835 38.412 299.175 38.7956 299.629 38.965C299.838 39.0426 300.54 39.3722 301.19 39.6974L302.371 40.2885L303.159 40.3258C303.592 40.3463 304.266 40.3201 304.656 40.2675C305.941 40.0942 306.667 40.0805 307.219 40.219C307.973 40.4082 308.766 40.828 309.385 41.3643C309.687 41.626 310.061 41.9262 310.217 42.0314C310.802 42.4262 311.766 42.5725 312.566 42.388C312.757 42.3439 313.014 42.3299 313.138 42.357C313.473 42.4306 314.16 43.1038 314.662 43.8502C315.318 44.8263 315.754 44.9903 316.954 44.7121C317.246 44.6442 317.647 44.598 317.845 44.6092L318.205 44.6295L318.184 44.2795C318.128 43.3453 317.721 42.3831 317.299 42.1904C316.527 41.8382 316.463 41.7887 316.157 41.3177C315.822 40.8027 315.348 40.4281 314.821 40.2627C314.41 40.1337 313.42 39.1367 313.025 38.4549C312.862 38.174 312.565 37.5539 312.366 37.0769C312.167 36.5999 311.953 36.1565 311.891 36.0915C311.802 35.998 311.56 35.9733 310.738 35.9733H309.697L308.752 35.4139C308.15 35.0578 307.742 34.7603 307.629 34.5949C307.359 34.1994 307.391 33.7314 307.737 33.0171C308.347 31.7547 308.607 30.6861 308.688 29.0989C308.73 28.2652 308.754 28.1376 308.863 28.1696C309.656 28.4034 312.272 28.4591 313.182 28.2615C316.505 27.5407 317.819 24.6938 316.43 21.2253C315.913 19.9329 315.05 18.9234 313.991 18.3728C313.333 18.0302 312.487 17.3173 312.292 16.9409C312.161 16.6865 312.144 16.2944 312.256 16.085C312.436 15.7491 312.857 15.5968 313.913 15.4863C315.086 15.3636 315.597 15.2312 316.173 14.901C317.344 14.2291 317.945 12.9205 317.821 11.3104C317.794 10.9537 317.745 10.5911 317.712 10.5044C317.658 10.3587 317.63 10.3703 317.338 10.6597ZM232.802 18.3085C233.167 18.7947 233.404 19.3852 233.538 20.1396C233.655 20.8018 233.659 20.9974 233.573 21.6999C233.386 23.2195 233.246 23.4774 233.138 22.5056C233.021 21.4622 232.506 19.9715 232.071 19.4185C231.793 19.066 231.894 18.3659 232.259 18.1127C232.43 17.9935 232.616 18.0603 232.802 18.3085ZM276.726 18.2445C276.984 18.5193 277.035 19.074 276.829 19.366C276.562 19.7445 276.205 20.5083 276.029 21.0806C275.893 21.5207 275.648 22.7581 275.623 23.1333C275.609 23.3371 275.456 22.764 275.351 22.1184C275.202 21.1998 275.204 20.7134 275.359 19.9594C275.545 19.053 276.094 18.0525 276.406 18.0525C276.483 18.0525 276.627 18.1389 276.726 18.2445ZM242.885 27.1066C242.992 27.1473 243.206 27.3689 243.359 27.599C243.513 27.829 243.94 28.3869 244.309 28.8387C244.838 29.4879 244.995 29.7406 245.06 30.0439C245.25 30.9259 245.112 31.7711 244.709 32.1981C244.569 32.3465 244.419 32.4679 244.376 32.4679C244.331 32.4679 244.281 32.1223 244.26 31.6605C244.22 30.7708 244.112 30.4654 243.695 30.0653C243.56 29.9354 243.229 29.5903 242.96 29.2983C242.632 28.9414 242.432 28.7829 242.351 28.8142C242.284 28.8397 242.104 29.0676 241.95 29.3206C241.796 29.5736 241.563 29.8712 241.431 29.9821C241.192 30.1831 240.81 30.2567 240.81 30.1017C240.81 30.0566 241.053 29.5338 241.35 28.9397C241.646 28.3457 241.936 27.7403 241.993 27.5944C242.05 27.4484 242.206 27.2624 242.34 27.1811C242.621 27.0097 242.628 27.0088 242.885 27.1066ZM266.487 27.1489C266.61 27.2129 266.759 27.3808 266.818 27.5219C266.876 27.663 267.158 28.2398 267.444 28.8038C268.112 30.1195 268.133 30.1835 267.885 30.1835C267.621 30.1835 267.329 29.9354 266.969 29.405C266.459 28.6536 266.518 28.6485 265.686 29.5158C264.731 30.5116 264.661 30.6516 264.616 31.6605C264.595 32.1045 264.551 32.4679 264.517 32.4679C264.482 32.4679 264.348 32.3788 264.219 32.2699C263.917 32.0162 263.733 31.4717 263.733 30.8346C263.733 30.0086 263.848 29.7159 264.474 28.9492C264.786 28.5666 265.211 28.0143 265.418 27.7219C265.926 27.0052 266.065 26.9307 266.487 27.1489ZM242.512 36.4475C242.604 36.5876 242.63 36.7495 242.602 36.9978C242.52 37.7292 242.133 38.0027 241.165 38.014C240.567 38.021 240.533 38.0122 240.509 37.8428C240.442 37.3685 240.862 36.7833 241.515 36.4432C242.001 36.1898 242.344 36.1912 242.512 36.4475ZM267.278 36.4129C267.909 36.6988 268.419 37.3531 268.366 37.8108C268.341 38.0202 268.338 38.0213 267.711 38.014C266.716 38.0023 266.255 37.6446 266.254 36.8854C266.254 36.2604 266.594 36.1033 267.278 36.4129ZM192.168 38.625C192.038 38.6592 191.741 38.8441 191.508 39.036C191.275 39.2279 190.86 39.5164 190.585 39.6771C190.03 40.0018 189.926 40.1783 190.117 40.471C190.425 40.9411 191.158 41.1205 191.595 40.8326C192.035 40.5426 192.944 39.4324 193.034 39.0766C193.121 38.7297 192.668 38.4935 192.168 38.625ZM315.926 38.736C315.78 38.8822 315.776 38.9268 315.884 39.212C316.003 39.5238 317.029 40.718 317.299 40.8572C317.909 41.1728 318.795 40.7988 318.795 40.2259C318.795 40.0088 318.746 39.9495 318.415 39.7695C318.206 39.6556 317.758 39.3487 317.42 39.0874C316.864 38.6578 316.769 38.6122 316.427 38.6122C316.189 38.6122 316.004 38.6579 315.926 38.736ZM188.685 41.3102C188.484 41.5296 188.446 41.655 188.352 42.3985C188.31 42.7241 188.187 43.184 188.076 43.4205C187.816 43.9809 187.818 44.2278 188.086 44.4387C188.266 44.5803 188.385 44.6017 188.887 44.5823L189.477 44.5596L189.588 44.0082C189.649 43.7049 189.802 43.1419 189.929 42.7571C190.056 42.3722 190.159 42.0028 190.159 41.9361C190.159 41.8695 189.999 41.6614 189.803 41.474C189.511 41.1938 189.394 41.1329 189.147 41.1329C188.937 41.1329 188.799 41.1858 188.685 41.3102ZM319.061 41.477C318.872 41.6663 318.717 41.8898 318.717 41.9736C318.717 42.0574 318.838 42.4865 318.986 42.9271C319.135 43.3677 319.281 43.9275 319.312 44.1712L319.367 44.6143L320.018 44.5869C321.024 44.5447 321.196 44.2923 320.796 43.4471C320.682 43.2062 320.561 42.7627 320.522 42.4477C320.429 41.685 320.401 41.5863 320.209 41.3426C320.079 41.1771 319.977 41.1329 319.725 41.1329C319.452 41.1329 319.354 41.1838 319.061 41.477Z" fill="#101829"/>
</svg>
