<svg width="168" height="50" viewBox="0 0 168 50" fill="none" xmlns="http://www.w3.org/2000/svg">
<path fill-rule="evenodd" clip-rule="evenodd" d="M0.659398 0.33527C1.23307 0.614233 1.7581 1.05825 2.36328 1.77606C2.45413 1.88393 2.57751 2.12871 2.63759 2.32019C2.69767 2.51168 2.79687 2.73289 2.85813 2.8119C2.91952 2.8909 3.07631 3.42082 3.20658 3.98937C3.41612 4.90398 3.44352 6.67443 3.44352 19.3272V33.6311L8.82861 33.5827C13.8749 33.5372 17.6572 33.3068 17.6572 33.0447C17.6572 32.9867 18.0199 32.8946 18.4631 32.8403C18.9064 32.786 19.2691 32.6898 19.2691 32.6263C19.2691 32.5628 19.4656 32.4725 19.7056 32.4253C20.3893 32.2913 22.2268 31.3782 22.9299 30.8231C23.3351 30.5032 24.6675 29.1936 24.9387 28.8485C25.2295 28.4789 25.7165 27.5354 25.7165 27.3418C25.7165 27.2418 25.7766 27.1601 25.8502 27.1601C25.9237 27.1601 26.0307 26.8853 26.088 26.5496C26.1451 26.2139 26.2659 25.8933 26.3561 25.8372C26.5843 25.6956 26.5844 21.1026 26.3561 20.8258C26.2647 20.7149 26.1441 20.4141 26.0881 20.1573C26.0322 19.9005 25.9309 19.6904 25.8631 19.6904C25.7952 19.6904 25.6963 19.4965 25.6433 19.2595C25.5902 19.0225 25.486 18.8286 25.4119 18.8286C25.3376 18.8286 25.2769 18.7382 25.2769 18.6279C25.2769 18.3805 23.2445 16.3866 22.9925 16.3866C22.8923 16.3866 22.7884 16.3381 22.7614 16.2788C22.6994 16.1419 21.4171 15.5247 21.1945 15.5247C21.1026 15.5247 21.0275 15.4664 21.0275 15.3951C21.0275 15.3239 20.6317 15.2206 20.148 15.1656C19.6643 15.1105 19.2319 15.0071 19.1869 14.936C19.142 14.8648 18.8085 14.8064 18.4459 14.8064C17.6525 14.8064 17.7164 14.5831 18.5492 14.4452C18.8777 14.3909 19.3224 14.2563 19.5375 14.1462C19.7525 14.0363 20.0121 13.946 20.1146 13.9454C20.2169 13.945 20.5618 13.783 20.8809 13.5854C21.2001 13.3879 21.5088 13.2263 21.5669 13.2263C21.8415 13.2263 23.4939 11.3273 23.8828 10.5648C24.2729 9.80004 24.3261 9.53617 24.3728 8.1323C24.4326 6.33916 24.2012 5.3184 23.4602 4.10472C22.9321 3.23996 21.8755 2.19852 21.1314 1.80967C20.8324 1.65338 20.5879 1.47569 20.5879 1.41464C20.5879 1.35359 20.4825 1.3036 20.3536 1.3036C20.2248 1.3036 19.9115 1.21726 19.6575 1.11183C18.7168 0.720964 18.1308 0.568705 16.5071 0.293046C15.0009 0.0373539 14.1438 0.0109156 7.42204 0.0127831L0 0.0147996L0.659398 0.33527ZM37.4758 0.109752C37.6168 0.145951 37.7322 0.235439 37.7322 0.308556C37.7322 0.381816 37.826 0.441717 37.9407 0.441717C38.2581 0.441717 39.0323 1.26754 39.3646 1.96064C39.6043 2.46053 39.6481 2.77957 39.5941 3.62896C39.5051 5.02751 39.1892 6.36472 38.6621 7.57394C38.5537 7.82288 38.4649 8.12612 38.4649 8.24779C38.4649 8.36946 38.4047 8.50549 38.3311 8.55002C38.2575 8.5947 38.1528 8.88932 38.0984 9.20492C38.044 9.52051 37.9434 9.77878 37.8748 9.77878C37.8062 9.77878 37.7057 10.0697 37.6513 10.4252C37.597 10.7807 37.5013 11.0716 37.4389 11.0716C37.3763 11.0716 37.279 11.3135 37.2224 11.6091C37.1657 11.9049 37.0765 12.2119 37.024 12.2915C36.913 12.4601 36.7286 12.9377 36.2751 14.2318C36.0952 14.7454 35.8548 15.3692 35.7411 15.6182C35.6273 15.8671 35.5342 16.1704 35.5342 16.292C35.5342 16.4137 35.474 16.5497 35.4005 16.5943C35.3269 16.6389 35.2223 16.9333 35.1679 17.2484C35.1135 17.5636 35.0089 17.8579 34.9354 17.9026C34.8618 17.9471 34.8011 18.0929 34.8007 18.2265C34.8001 18.3601 34.7075 18.6428 34.5947 18.8548C34.4818 19.0667 34.342 19.4524 34.2839 19.712C34.2257 19.9714 34.1274 20.2828 34.0654 20.4039C34.0033 20.525 33.84 20.915 33.7026 21.2706C33.5651 21.6261 33.3981 22.0221 33.3313 22.1507C33.2644 22.2793 33.1648 22.6193 33.1098 22.9064C33.0549 23.1936 32.9514 23.4639 32.8801 23.5071C32.8086 23.5504 32.7497 23.6952 32.7492 23.8288C32.7486 23.9624 32.6522 24.2522 32.5349 24.4727C32.4175 24.6934 32.2787 25.0973 32.2264 25.3705C32.1741 25.6438 32.0727 25.8673 32.0012 25.8673C31.9295 25.8673 31.8705 26.0128 31.87 26.1905C31.8694 26.3682 31.7705 26.6988 31.6502 26.9251C31.5298 27.1515 31.4313 27.4323 31.4313 27.5494C31.4313 27.6665 31.3393 27.9338 31.2269 28.1435C31.1144 28.3532 30.9004 28.9126 30.7513 29.3866C30.6021 29.8607 30.4364 30.281 30.383 30.3206C30.3297 30.3604 30.2394 30.6358 30.1826 30.9327C30.1258 31.2298 30.0265 31.5046 29.9622 31.5436C29.8977 31.5827 29.8004 31.8729 29.746 32.1885C29.6917 32.5041 29.5945 32.7623 29.5302 32.7623C29.4657 32.7623 29.3841 32.9563 29.3486 33.1933L29.284 33.6242H31.1683C32.8347 33.6242 33.0615 33.5952 33.1317 33.3728C33.1753 33.2346 33.2677 33.0163 33.337 32.8877C33.4061 32.7592 33.5075 32.4199 33.5623 32.1336C33.6171 31.8473 33.7165 31.6132 33.7832 31.6132C33.8498 31.6132 33.9489 31.3223 34.0033 30.9667C34.0576 30.6112 34.1606 30.3203 34.2321 30.3203C34.3035 30.3203 34.3624 30.1748 34.3629 29.9971C34.3634 29.8194 34.4623 29.4888 34.5826 29.2625C34.7031 29.0361 34.8016 28.755 34.8016 28.6378C34.8016 28.4446 35.0848 27.7203 35.3814 27.1554C35.445 27.0343 35.546 26.7111 35.6057 26.4371C35.6657 26.1632 35.7653 25.8745 35.8273 25.7954C35.8893 25.7164 35.9882 25.4256 36.0471 25.149C36.106 24.8725 36.2049 24.5816 36.2669 24.5026C36.3289 24.4236 36.4254 24.149 36.4814 23.8921L36.5833 23.4253H42.4934H48.4033L48.5024 23.9999C48.5569 24.3159 48.6576 24.5744 48.7262 24.5744C48.7947 24.5744 48.8953 24.8653 48.9496 25.2209C49.004 25.5764 49.0997 25.8673 49.1621 25.8673C49.2247 25.8673 49.322 26.1097 49.3784 26.4059C49.4349 26.7023 49.5347 27.0093 49.6004 27.0883C49.6659 27.1673 49.9276 27.846 50.1817 28.5966C50.4359 29.3471 50.7389 30.1649 50.8553 30.4138C50.9716 30.6628 51.0667 30.966 51.0667 31.0877C51.0667 31.2094 51.1252 31.3444 51.1967 31.3876C51.2681 31.4309 51.3695 31.6906 51.4219 31.9647C51.4744 32.2387 51.6133 32.6434 51.7307 32.864C51.848 33.0845 51.9445 33.346 51.945 33.4447C51.9458 33.5827 52.6714 33.6242 55.0826 33.6242H58.2194L58.1342 33.3049C58.0874 33.1294 57.9621 32.8222 57.8557 32.6226C57.7495 32.4229 57.6622 32.1778 57.6616 32.078C57.6611 31.9782 57.6015 31.7842 57.5293 31.6471C57.4569 31.5099 57.292 31.1229 57.1629 30.7872C57.0337 30.4515 56.8224 29.9019 56.6931 29.5662C56.5641 29.2305 56.4037 28.8505 56.3369 28.722C56.2701 28.5934 56.1706 28.2541 56.1158 27.9678C56.061 27.6815 55.9606 27.4474 55.8926 27.4474C55.8246 27.4474 55.7235 27.2051 55.668 26.9087C55.6125 26.6125 55.527 26.3377 55.4782 26.2982C55.4294 26.2587 55.2359 25.7739 55.0482 25.2209C54.8605 24.6678 54.654 24.086 54.5894 23.928C54.5249 23.77 54.3562 23.3499 54.2148 22.9943C54.0733 22.6388 53.8676 22.1442 53.7577 21.8953C53.6478 21.6463 53.5578 21.379 53.5578 21.3012C53.5578 21.2234 53.4593 20.9746 53.3389 20.7483C53.2186 20.522 53.1197 20.1913 53.1191 20.0136C53.1186 19.836 53.0581 19.6904 52.9845 19.6904C52.911 19.6904 52.8064 19.4319 52.7519 19.1159C52.6973 18.7998 52.6 18.5413 52.5354 18.5413C52.471 18.5413 52.3719 18.2989 52.3155 18.0026C52.2589 17.7064 52.1615 17.3993 52.0988 17.3203C52.036 17.2413 51.8491 16.786 51.683 16.3087C51.3854 15.4526 51.2172 15.0264 50.8263 14.1383C50.7168 13.8894 50.6271 13.6221 50.6271 13.5442C50.6271 13.4665 50.5287 13.2177 50.4082 12.9913C50.2879 12.7651 50.189 12.4344 50.1884 12.2567C50.188 12.079 50.1216 11.9335 50.041 11.9335C49.9604 11.9335 49.894 11.8203 49.8936 11.6821C49.893 11.5439 49.8004 11.2573 49.6876 11.0453C49.5747 10.8334 49.4357 10.4456 49.3785 10.1834C49.3212 9.92143 49.226 9.64232 49.1666 9.56331C49.1073 9.48431 48.9341 9.06414 48.7817 8.62961C48.6294 8.19507 48.4631 7.80723 48.4121 7.76772C48.3611 7.72822 48.2719 7.48143 48.2139 7.21942C48.1558 6.95726 48.0162 6.56942 47.9034 6.35754C47.7905 6.14551 47.6979 5.89873 47.6973 5.80895C47.6969 5.71932 47.598 5.46075 47.4775 5.23436C47.3572 5.00812 47.2583 4.67744 47.2577 4.49975C47.2573 4.32206 47.1909 4.17654 47.1103 4.17654C47.0297 4.17654 46.9638 4.07326 46.9638 3.94685C46.9638 3.82059 46.8713 3.51347 46.7582 3.26453C46.3777 2.42692 45.645 0.419017 45.645 0.214033C45.645 0.0430927 44.9742 0.0133649 41.4322 0.0274424C39.1152 0.0366358 37.3348 0.0736965 37.4758 0.109752ZM63.7455 0.292608C64.4528 0.618112 65.72 1.68197 65.72 1.9503C65.72 2.05545 65.7694 2.16304 65.8299 2.18947C66.0211 2.27279 66.4222 3.20937 66.6807 4.17654C66.9052 5.01659 66.9373 6.54126 67.0004 19.3672L67.0706 33.6242H69.7656C71.825 33.6242 72.4599 33.5818 72.4583 33.4447C72.457 33.346 72.4736 25.7828 72.495 16.6379L72.5338 0.0107753L67.8447 0.0159481L63.1557 0.0212613L63.7455 0.292608ZM81.2891 0.109752C81.4301 0.145951 81.5456 0.228405 81.5456 0.293046C81.5456 0.357687 81.7198 0.453494 81.9327 0.505781C82.3209 0.601307 83.597 1.76802 83.597 2.0273C83.597 2.10329 83.663 2.16548 83.7436 2.16548C83.8242 2.16548 83.8905 2.24636 83.891 2.34504C83.8916 2.44387 83.988 2.70502 84.1052 2.92566C84.804 4.23874 84.8875 6.1188 84.9026 20.8755L84.9158 33.6242H87.6267H90.3375V27.5142C90.3375 21.9726 90.3611 21.3678 90.5906 21.0142C90.7298 20.7997 90.8826 20.5918 90.9303 20.5523C90.978 20.5128 91.3672 20.028 91.7954 19.475C92.2234 18.9219 92.6147 18.4371 92.6645 18.3976C92.7145 18.3581 92.9836 18.0349 93.2628 17.6794C93.5419 17.3239 93.8221 17.0114 93.8856 16.9851C93.949 16.9587 94.0009 16.8457 94.0009 16.7337C94.0009 16.4157 94.3505 16.4972 94.5199 16.8546C94.7747 17.3922 95.3872 18.4648 95.483 18.5413C95.5327 18.5808 95.6195 18.7586 95.6762 18.9363C95.7327 19.114 95.8353 19.2595 95.904 19.2595C95.9728 19.2595 96.0726 19.4534 96.1256 19.6904C96.1786 19.9275 96.2679 20.1214 96.3237 20.1214C96.3795 20.1214 96.5525 20.3639 96.7078 20.6601C96.8633 20.9564 97.1749 21.4767 97.4006 21.8164C97.6261 22.1561 97.8107 22.461 97.8107 22.4937C97.8107 22.5265 98.1075 23.0324 98.4701 23.6179C98.8328 24.2035 99.1295 24.7553 99.1295 24.8441C99.1295 24.9327 99.1789 25.006 99.2394 25.0065C99.2999 25.0071 99.4189 25.1526 99.5041 25.3297C99.7831 25.9104 100.373 26.9423 100.468 27.016C100.519 27.0558 100.809 27.5408 101.112 28.0938C101.414 28.6468 101.702 29.1316 101.751 29.1713C101.8 29.2108 101.962 29.4694 102.111 29.7459C102.576 30.6118 102.863 31.1078 102.942 31.1822C102.984 31.2217 103.098 31.4156 103.196 31.6132C103.491 32.2114 104.062 33.177 104.257 33.4073C104.531 33.7315 111.145 33.7328 111.145 33.4087C111.145 33.2902 111.087 33.1933 111.016 33.1933C110.945 33.1933 110.846 33.0801 110.798 32.9419C110.749 32.8037 110.593 32.5173 110.451 32.3054C109.811 31.3511 109.094 30.1444 109.094 30.0227C109.094 29.9494 109.029 29.8894 108.95 29.8894C108.871 29.8894 108.765 29.7278 108.714 29.5303C108.664 29.3328 108.579 29.1712 108.525 29.1712C108.472 29.1712 108.266 28.8803 108.068 28.5247C107.87 28.1692 107.657 27.8783 107.595 27.8783C107.533 27.8783 107.482 27.8059 107.482 27.7176C107.482 27.5747 106.854 26.5295 106.125 25.4567C105.983 25.248 105.827 24.964 105.778 24.8258C105.729 24.6876 105.631 24.5744 105.56 24.5744C105.489 24.5744 105.43 24.4821 105.43 24.3692C105.43 24.2564 105.347 24.0786 105.246 23.9741C105.144 23.8699 104.98 23.6228 104.88 23.4253C104.66 22.987 104.362 22.5167 104.243 22.4197C104.11 22.3111 103.387 21.0903 103.287 20.8037C103.238 20.6655 103.14 20.5523 103.069 20.5523C102.998 20.5523 102.939 20.4933 102.939 20.4212C102.939 20.3491 102.709 19.9466 102.427 19.5267C102.144 19.1068 101.914 18.681 101.914 18.5805C101.914 18.4799 101.863 18.3976 101.8 18.3976C101.738 18.3976 101.557 18.1553 101.399 17.8589C101.24 17.5627 101.075 17.2879 101.032 17.2484C100.835 17.0663 99.8824 15.5162 99.5325 14.8064C99.4352 14.6089 99.2717 14.3956 99.1692 14.3324C99.0668 14.2692 98.983 14.1461 98.983 14.0588C98.983 13.9713 98.8181 13.688 98.6167 13.429C98.2138 12.9113 98.1639 12.5596 98.4423 12.2011C98.6706 11.9069 99.6742 10.7406 100.136 10.2326C100.327 10.0224 100.657 9.62767 100.869 9.35531C101.081 9.08296 101.452 8.6546 101.694 8.40336C102.176 7.90261 102.493 7.53387 103.247 6.59973C103.521 6.25986 103.91 5.8055 104.112 5.58989C104.313 5.37427 104.544 5.11226 104.625 5.00754C104.705 4.90296 105.023 4.52776 105.331 4.17367C105.638 3.81972 106.11 3.27157 106.379 2.95554C106.648 2.63952 107.121 2.09136 107.431 1.73742C107.741 1.38333 108.045 1.0278 108.107 0.947358C108.169 0.866772 108.356 0.639232 108.523 0.441717L108.826 0.0825989L106.652 0.0412249L104.478 0L104.138 0.400343C103.951 0.620698 103.572 1.0505 103.295 1.35546C103.019 1.66057 102.793 1.93809 102.793 1.97199C102.793 2.00604 102.656 2.17654 102.489 2.35107C102.322 2.52546 102.042 2.85154 101.866 3.07563C101.691 3.29958 101.267 3.78424 100.925 4.1527C100.582 4.52101 100.302 4.86878 100.302 4.92538C100.302 4.98212 100.104 5.22689 99.8622 5.46937C99.6204 5.71184 99.4226 5.94283 99.4226 5.98262C99.4226 6.02241 99.1588 6.32421 98.8365 6.65302C98.5141 6.98197 98.2503 7.29355 98.2503 7.34569C98.2503 7.39769 98.0361 7.66545 97.7741 7.94082C97.1153 8.63334 96.1364 9.79157 96.073 9.95375C96.0441 10.0277 95.8463 10.2672 95.6334 10.4858C95.4205 10.7046 94.8837 11.322 94.4405 11.8579C93.9972 12.3939 93.4533 13.013 93.2316 13.2338C93.0099 13.4546 92.8286 13.6767 92.8286 13.7272C92.8286 13.8348 91.7646 15.0986 91.1801 15.6851C90.9584 15.9076 90.7771 16.1564 90.7771 16.238C90.7771 16.3198 90.6782 16.3866 90.5574 16.3866C90.3645 16.3866 90.3375 15.381 90.3375 8.19867V0.0107753L85.6851 0.0274424C83.1264 0.0366358 81.1482 0.0736965 81.2891 0.109752ZM121.709 0.267041C122.275 0.532501 122.938 1.13956 123.346 1.76543C123.54 2.06307 123.601 2.46843 123.601 3.47899C123.601 4.20699 123.536 5.00108 123.458 5.2437C123.38 5.48632 123.173 6.16965 122.999 6.76219C122.825 7.35474 122.633 7.90419 122.573 7.98319C122.512 8.0622 122.413 8.35093 122.353 8.62486C122.293 8.8988 122.194 9.222 122.132 9.3431C121.962 9.67421 121.604 10.616 121.311 11.5026C121.168 11.9371 120.998 12.3541 120.933 12.4291C120.869 12.5042 120.816 12.6658 120.816 12.7882C120.815 12.9107 120.716 13.196 120.596 13.4223C120.475 13.6486 120.376 13.9395 120.376 14.0687C120.375 14.1979 120.283 14.4771 120.17 14.6891C120.057 14.901 119.92 15.2719 119.866 15.5133C119.812 15.7548 119.707 15.9892 119.633 16.0343C119.558 16.0793 119.498 16.2481 119.498 16.4093C119.498 16.5704 119.393 16.9383 119.266 17.2267C119.138 17.5152 118.94 17.9635 118.826 18.2229C118.712 18.4824 118.618 18.8218 118.618 18.9771C118.618 19.1324 118.558 19.2595 118.485 19.2595C118.411 19.2595 118.307 19.5178 118.252 19.8334C118.198 20.149 118.099 20.4401 118.032 20.4805C117.966 20.5209 117.867 20.812 117.812 21.1276C117.758 21.4432 117.653 21.7015 117.58 21.7015C117.506 21.7015 117.446 21.847 117.445 22.0247C117.445 22.2024 117.352 22.5213 117.239 22.7333C117.126 22.9452 116.987 23.333 116.929 23.5952C116.871 23.8572 116.782 24.104 116.731 24.1435C116.68 24.183 116.517 24.6032 116.367 25.0772C116.082 25.981 115.783 26.7816 115.448 27.5409C115.338 27.7898 115.248 28.1293 115.248 28.2951C115.248 28.461 115.19 28.5966 115.118 28.5966C115.046 28.5966 114.945 28.8201 114.893 29.0933C114.84 29.3665 114.702 29.7705 114.584 29.9911C114.467 30.2116 114.37 30.4946 114.37 30.6196C114.369 30.7447 114.327 30.8879 114.276 30.9379C114.181 31.0315 113.355 33.3246 113.347 33.5165C113.345 33.5758 114.195 33.6242 115.237 33.6242H117.13L117.298 33.0855C117.485 32.4844 117.856 31.5139 118.029 31.1775C118.091 31.0564 118.191 30.7332 118.25 30.4592C118.31 30.1853 118.41 29.8966 118.472 29.8176C118.534 29.7386 118.633 29.4477 118.692 29.1712C118.751 28.8946 118.849 28.6037 118.911 28.5247C118.973 28.4457 119.073 28.157 119.133 27.8831C119.193 27.6091 119.295 27.2859 119.36 27.1648C119.425 27.0437 119.688 26.3305 119.944 25.58C120.199 24.8294 120.483 24.0376 120.575 23.8203L120.741 23.4253H126.538H132.335L132.598 24.1794C132.743 24.5943 132.954 25.1373 133.067 25.3862C133.18 25.6351 133.272 25.9384 133.272 26.06C133.272 26.1817 133.332 26.3177 133.405 26.3623C133.479 26.4069 133.584 26.7016 133.638 27.0172C133.693 27.3328 133.791 27.591 133.858 27.591C133.924 27.591 134.023 27.8496 134.078 28.1656C134.132 28.4816 134.229 28.7402 134.294 28.7402C134.358 28.7402 134.455 29.0311 134.51 29.3866C134.564 29.7422 134.67 30.033 134.746 30.033C134.822 30.033 134.884 30.1572 134.884 30.3087C134.884 30.4602 134.975 30.7674 135.087 30.991C135.359 31.5342 135.633 32.3136 135.723 32.7982C135.763 33.0156 135.854 33.1933 135.926 33.1933C135.997 33.1933 136.056 33.2902 136.056 33.4087C136.056 33.5935 136.495 33.6242 139.133 33.6242C142.441 33.6242 142.405 33.6337 142.003 32.8797C141.89 32.6678 141.751 32.28 141.692 32.0178C141.634 31.7558 141.496 31.4138 141.386 31.2579C141.275 31.1022 141.184 30.8274 141.184 30.6474C141.184 30.4676 141.126 30.3203 141.054 30.3203C140.983 30.3203 140.878 30.078 140.821 29.7817C140.765 29.4855 140.669 29.1783 140.609 29.0993C140.549 29.0203 140.351 28.5355 140.168 28.022C139.986 27.5084 139.785 26.959 139.722 26.801C139.659 26.643 139.492 26.2228 139.35 25.8673C139.209 25.5117 139.003 25.0172 138.893 24.7682C138.783 24.5193 138.693 24.1798 138.693 24.0141C138.693 23.8482 138.628 23.7126 138.549 23.7126C138.469 23.7126 138.362 23.454 138.31 23.138C138.258 22.8219 138.165 22.5634 138.101 22.5634C138.038 22.5634 137.942 22.3048 137.887 21.9888C137.833 21.6728 137.742 21.4142 137.685 21.4142C137.628 21.4142 137.511 21.1719 137.424 20.8755C137.337 20.5793 137.054 19.7874 136.794 19.1159C136.534 18.4443 136.287 17.7493 136.245 17.5716C136.203 17.394 136.114 17.2484 136.048 17.2484C135.982 17.2484 135.883 16.9576 135.828 16.602C135.774 16.2465 135.672 15.9556 135.601 15.9556C135.531 15.9556 135.431 15.697 135.379 15.381C135.328 15.065 135.228 14.8064 135.158 14.8064C135.088 14.8064 135.03 14.6932 135.029 14.5551C135.029 14.4169 134.936 14.1303 134.823 13.9183C134.71 13.7064 134.571 13.3185 134.514 13.0564C134.457 12.7944 134.363 12.5153 134.306 12.4363C134.248 12.3573 134.085 11.9694 133.943 11.5744C133.8 11.1793 133.591 10.6524 133.478 10.4035C133.364 10.1546 133.272 9.85133 133.272 9.72966C133.272 9.60799 133.211 9.47152 133.136 9.42656C133.062 9.38145 132.957 9.14703 132.903 8.90556C132.849 8.66409 132.712 8.29318 132.599 8.0813C132.487 7.86928 132.394 7.55039 132.393 7.37269C132.393 7.195 132.327 7.04949 132.246 7.04949C132.165 7.04949 132.099 6.94621 132.099 6.8198C132.099 6.69353 132.006 6.38641 131.891 6.13747C131.776 5.88853 131.535 5.26467 131.354 4.75113C131.174 4.23759 130.971 3.75594 130.903 3.68096C130.836 3.60583 130.781 3.39582 130.781 3.21411C130.781 3.03239 130.722 2.88372 130.65 2.88372C130.579 2.88372 130.477 2.6602 130.425 2.38699C130.373 2.11377 130.234 1.70983 130.117 1.48919C129.999 1.26869 129.903 1.02018 129.902 0.937152C129.902 0.854268 129.819 0.612365 129.718 0.399624L129.535 0.0130724L125.359 0.0168074C121.305 0.0203985 121.198 0.0277252 121.709 0.267041ZM145.544 0.112189C145.725 0.146377 145.874 0.234579 145.874 0.308126C145.874 0.38153 145.962 0.441717 146.071 0.441717C146.263 0.441717 146.579 0.670979 147.343 1.36264C147.812 1.78855 148.513 3.15334 148.786 4.17654C148.961 4.83157 149.006 7.41536 149.052 19.2954L149.107 33.6242H158.553H168L167.985 30.1408C167.977 28.225 167.924 26.7866 167.866 26.9446C167.548 27.8135 167.371 28.1656 167.253 28.1656C167.18 28.1656 167.121 28.2438 167.121 28.3394C167.121 28.6443 165.837 29.6815 165.037 30.0231C164.611 30.2046 164.142 30.4146 163.993 30.4898C163.845 30.565 163.266 30.6642 162.707 30.7102C162.147 30.7562 161.655 30.8488 161.612 30.9162C161.502 31.0919 156.902 31.0716 156.79 30.8949C156.74 30.8159 156.411 30.7513 156.058 30.7513C155.706 30.7513 155.248 30.6882 155.041 30.6112L154.665 30.4712V15.241V0.0107753L149.94 0.0303093C147.341 0.0410829 145.363 0.0778576 145.544 0.112189ZM15.132 2.71134C15.1643 2.80615 15.3014 2.88372 15.437 2.88372C16.1232 2.88372 17.8081 4.22194 18.0401 4.95109C18.093 5.11772 18.1929 5.28981 18.2623 5.33362C18.6255 5.56389 19.0011 9.09344 18.6942 9.39424C18.6075 9.47928 18.5364 9.70122 18.5364 9.88724C18.5364 10.7817 17.2774 12.4999 16.2435 13.0163C15.933 13.1713 15.6461 13.3308 15.6058 13.3705C15.4818 13.4932 13.9577 13.9246 13.2612 14.0342C12.8986 14.0912 11.8106 14.1429 10.8434 14.149L9.08504 14.16L9.04665 8.57459C9.02013 4.7033 9.05735 2.93126 9.16798 2.8004C9.38587 2.54299 10.1593 2.48194 12.8118 2.51268C14.4203 2.53135 15.0903 2.58867 15.132 2.71134ZM161.113 4.32019V5.75666H159.941H158.768V6.2534V6.75013L159.904 6.79207C160.955 6.83086 161.043 6.85815 161.087 7.15722C161.155 7.63054 161.699 7.59865 161.699 7.12131V6.76219H163.531H165.362V6.28313C165.362 5.93234 165.245 5.70164 164.924 5.42124C164.683 5.21066 164.453 5.03843 164.412 5.03843C164.288 5.03843 162.948 4.00804 162.896 3.87287C162.869 3.80292 162.77 3.74301 162.676 3.73971C162.582 3.73655 162.277 3.54263 161.998 3.30877C161.179 2.62271 161.113 2.69798 161.113 4.32019ZM162.165 3.99698C162.296 4.13517 162.642 4.40997 162.934 4.60749C163.226 4.805 163.605 5.0798 163.777 5.21799C163.948 5.35617 164.144 5.46937 164.213 5.46937C164.281 5.46937 164.337 5.53401 164.337 5.61302C164.337 5.69805 163.805 5.75666 163.034 5.75666H161.731L161.671 5.2539C161.599 4.64713 161.693 3.7456 161.829 3.7456C161.883 3.7456 162.034 3.8588 162.165 3.99698ZM42.6581 7.19313C42.7097 7.50916 42.8053 7.76772 42.8707 7.76772C42.9361 7.76772 43.0339 8.05861 43.0883 8.41414C43.1427 8.76966 43.2382 9.06055 43.3005 9.06055C43.3628 9.06055 43.4583 9.35143 43.5127 9.70696C43.567 10.0625 43.6649 10.3534 43.7303 10.3534C43.7956 10.3534 43.8917 10.6148 43.9439 10.9343C43.9961 11.2538 44.1013 11.6254 44.1778 11.7603C44.4042 12.159 45.2054 14.5581 45.2054 14.8369C45.2054 14.9781 45.2672 15.0937 45.343 15.0937C45.4186 15.0937 45.525 15.3846 45.5794 15.7401C45.6337 16.0957 45.7326 16.3866 45.7992 16.3866C45.8657 16.3866 45.9646 16.6774 46.019 17.033C46.0733 17.3885 46.1689 17.6794 46.2311 17.6794C46.2934 17.6794 46.389 17.9703 46.4433 18.3258C46.4977 18.6813 46.6041 18.9722 46.6797 18.9722C46.7554 18.9722 46.8173 19.1035 46.8173 19.2641C46.8173 19.4247 46.9128 19.7802 47.0296 20.0542L47.2419 20.5523H42.4711H37.7001L37.7711 20.0855C37.8393 19.6364 38.093 18.8534 38.3194 18.3929C38.3789 18.2718 38.4766 17.9486 38.5364 17.6746C38.5963 17.4007 38.696 17.112 38.758 17.033C38.8199 16.954 38.9188 16.6631 38.9778 16.3866C39.0367 16.11 39.1357 15.8191 39.1979 15.7401C39.2601 15.6611 39.3571 15.3217 39.4137 14.986C39.4701 14.6503 39.5681 14.3755 39.6313 14.3755C39.6945 14.3755 39.7888 14.1141 39.841 13.7946C39.8931 13.4751 39.9972 13.1035 40.0724 12.9686C40.1475 12.8339 40.417 12.0771 40.6712 11.2871C40.9255 10.497 41.1913 9.74029 41.2618 9.60555C41.3324 9.47066 41.4326 9.09905 41.4848 8.77958C41.537 8.4601 41.6287 8.19867 41.6886 8.19867C41.7486 8.19867 41.8406 7.93579 41.893 7.6146C41.9839 7.05725 42.2235 6.63579 42.4562 6.62401C42.5156 6.62099 42.6065 6.87711 42.6581 7.19313ZM126.622 7.01358C126.675 7.23091 126.763 7.47325 126.818 7.55225C126.873 7.63126 127.138 8.37463 127.407 9.2042C127.675 10.0338 127.984 10.9162 128.092 11.1651C128.201 11.4141 128.29 11.7496 128.29 11.9108C128.29 12.072 128.35 12.2403 128.423 12.2849C128.497 12.3295 128.602 12.6239 128.656 12.939C128.71 13.2542 128.809 13.5451 128.876 13.5854C128.942 13.6258 129.041 13.9167 129.096 14.2318C129.15 14.547 129.254 14.8413 129.328 14.886C129.402 14.9305 129.462 15.0666 129.462 15.1883C129.462 15.3099 129.55 15.6132 129.658 15.8621C129.891 16.3975 131.22 20.3027 131.22 20.4503C131.22 20.5065 129.077 20.5523 126.458 20.5523C121.842 20.5523 121.696 20.5439 121.696 20.2735C121.696 20.1201 121.756 19.9582 121.829 19.9137C121.903 19.869 122.008 19.5747 122.062 19.2595C122.116 18.9443 122.221 18.65 122.294 18.6053C122.368 18.5608 122.428 18.4011 122.428 18.2504C122.428 18.0997 122.519 17.7641 122.63 17.5047C122.741 17.2453 122.951 16.6451 123.097 16.1711C123.242 15.697 123.407 15.2446 123.464 15.1656C123.521 15.0865 123.614 14.7475 123.67 14.4121C123.726 14.0769 123.827 13.7694 123.894 13.7291C123.96 13.6887 124.059 13.3978 124.113 13.0827C124.168 12.7675 124.267 12.4766 124.333 12.4363C124.4 12.3959 124.499 12.105 124.553 11.7898C124.607 11.4747 124.712 11.1803 124.786 11.1357C124.859 11.0911 124.919 10.9228 124.919 10.7616C124.919 10.6004 125.008 10.2649 125.117 10.0159C125.225 9.76701 125.532 8.90081 125.799 8.09093C126.066 7.28105 126.338 6.61855 126.405 6.61855C126.471 6.61855 126.569 6.79624 126.622 7.01358ZM158.812 9.95834C158.986 12.2283 159.548 13.1258 160.808 13.1443C161.581 13.1556 161.91 12.9294 162.295 12.1221L162.525 11.6399L162.73 12.0145C163.19 12.8579 164.245 13.021 164.953 12.3581C165.385 11.9533 165.42 11.8493 165.426 10.9576C165.433 9.81843 165.149 9.06701 164.75 9.16943C164.424 9.25289 164.419 9.33721 164.712 9.74805C164.838 9.9243 164.945 10.3366 164.95 10.6642C164.96 11.3761 164.537 11.7817 163.78 11.7867C163.176 11.7907 162.578 11.2107 162.578 10.6197C162.578 9.91985 162.19 10.1274 162.084 10.8839C161.965 11.7393 161.526 12.2208 160.868 12.2208C160.6 12.2208 160.38 12.1715 160.38 12.1112C160.38 12.051 160.232 11.9378 160.051 11.8598C159.568 11.6522 159.223 10.8375 159.215 9.88652C159.209 9.2312 159.16 9.06055 158.976 9.06055C158.781 9.06055 158.755 9.20621 158.812 9.95834ZM159.9 14.78C159.081 15.2311 158.768 15.7422 158.768 16.6279C158.768 17.5691 159.2 18.2409 159.952 18.4712C160.147 18.5311 160.351 18.6476 160.405 18.7302C160.463 18.8185 161.158 18.8846 162.09 18.8903C163.476 18.8991 163.757 18.8586 164.307 18.5707C164.654 18.3893 164.978 18.1307 165.029 17.9961C165.08 17.8614 165.192 17.7051 165.278 17.6486C165.365 17.5923 165.431 17.138 165.425 16.6391C165.414 15.6231 165.226 15.3009 164.303 14.7198C163.809 14.409 163.603 14.3764 162.178 14.385C160.747 14.3937 160.535 14.4307 159.9 14.78ZM163.372 15.3616C163.415 15.43 163.683 15.5231 163.968 15.5683C164.592 15.6676 164.898 15.9408 165.012 16.5015C165.079 16.8298 165.014 17.0022 164.71 17.2999C164.498 17.5086 164.198 17.6794 164.046 17.6794C163.893 17.6794 163.727 17.744 163.677 17.823C163.526 18.0622 161.175 17.9924 160.335 17.7239C159.384 17.4202 159.208 17.25 159.208 16.6345C159.208 16.0287 159.524 15.7292 160.357 15.5458C160.705 15.4692 161.028 15.3685 161.076 15.322C161.212 15.188 163.285 15.2237 163.372 15.3616ZM14.1404 16.5326C15.4585 16.732 16.485 16.9907 16.485 17.1239C16.485 17.1924 16.6332 17.2487 16.8147 17.249C17.2937 17.25 18.3758 17.9836 19.356 18.9722C19.9006 19.5215 20.5879 20.7756 20.5879 21.2203C20.5879 21.3743 20.6578 21.5689 20.7433 21.6528C20.9377 21.8433 20.8453 24.9512 20.6181 25.8673C20.417 26.6777 19.7425 28.0563 19.4726 28.2087C19.3607 28.2719 19.2691 28.39 19.2691 28.4712C19.2691 28.6668 18.4557 29.4585 18.2546 29.4585C18.1679 29.4585 18.0968 29.5166 18.0968 29.5876C18.0968 29.7414 17.0031 30.3203 16.7125 30.3203C16.6007 30.3203 16.4874 30.3841 16.4605 30.462C16.4337 30.54 16.082 30.642 15.679 30.6889C15.2761 30.7358 14.8095 30.8385 14.6423 30.9172C14.0893 31.1773 9.62296 30.781 9.19494 30.4338C9.05295 30.3186 9.01178 28.7202 9.01178 23.3359V16.3866L11.1731 16.3986C12.362 16.4054 13.6972 16.4657 14.1404 16.5326ZM158.768 20.2973C158.768 20.4443 159.173 20.5711 160.197 20.7451C160.983 20.8785 161.807 20.9869 162.029 20.9856C162.25 20.9843 162.432 21.0335 162.432 21.0952C162.432 21.2276 160.435 22.1324 160.143 22.1324C160.032 22.1324 159.941 22.1919 159.941 22.2647C159.941 22.3374 159.747 22.4386 159.511 22.4894C158.929 22.6148 158.673 22.9239 158.915 23.2098C159.015 23.3283 159.221 23.4253 159.372 23.4253C159.524 23.4253 159.648 23.4899 159.648 23.5689C159.648 23.6479 159.717 23.7126 159.802 23.7126C159.887 23.7126 160.266 23.8466 160.645 24.0102C162.685 24.8929 162.738 24.9518 161.59 25.0572C158.977 25.297 158.768 25.358 158.768 25.8845C158.768 26.3871 158.663 26.3814 161.259 26.0214C163.718 25.6807 163.457 25.7913 163.457 25.0867C163.457 24.6727 163.396 24.4694 163.274 24.4827C163.035 24.5087 160.908 23.6798 160.844 23.5359C160.817 23.4751 160.702 23.4253 160.588 23.4253C160.474 23.4253 160.382 23.3445 160.384 23.2457C160.388 23.0324 161.296 22.5634 161.705 22.5634C161.863 22.5634 161.992 22.5016 161.992 22.4262C161.992 22.3508 162.223 22.2466 162.505 22.1948C162.787 22.1429 163.018 22.0429 163.018 21.9728C163.018 21.9026 163.117 21.8451 163.238 21.8451C163.402 21.8451 163.457 21.6732 163.457 21.1591V20.4729L162.908 20.52C162.606 20.5459 161.831 20.4959 161.186 20.4088C158.731 20.0776 158.768 20.0793 158.768 20.2973ZM80.6711 39.406C80.6782 39.6827 81.0479 40.1001 81.4808 40.3203C81.9343 40.5509 82.7178 40.5859 82.7178 40.3756C82.7178 40.2966 82.8021 40.232 82.9051 40.232C83.1469 40.232 83.597 39.7169 83.597 39.4404C83.597 39.1021 83.1876 39.1913 82.923 39.5873C82.7904 39.7857 82.5313 39.9851 82.3473 40.0304C81.965 40.1244 81.2525 39.7308 81.2525 39.4254C81.2525 39.316 81.1206 39.2265 80.9594 39.2265C80.7983 39.2265 80.6684 39.3073 80.6711 39.406ZM3.44352 44.6233V48.2962L3.77322 48.2504C4.10175 48.2046 4.10321 48.1926 4.17619 44.9005L4.24945 41.5966L6.04448 41.5563C7.71848 41.5186 7.83951 41.4969 7.83951 41.2331C7.83951 40.9643 7.73034 40.9502 5.64152 40.9502H3.44352V44.6233ZM9.71176 43.6436C9.66223 45.8632 9.60626 46.4193 9.39379 46.8046C9.112 47.316 8.75695 47.558 8.28878 47.558C8.06356 47.558 7.98604 47.6499 7.98604 47.9171C7.98604 48.3607 8.28981 48.3838 9.09691 48.0017C9.50237 47.8097 9.75059 47.5613 9.92277 47.1758C10.2342 46.4785 10.4771 44.5831 10.4771 42.8517V41.5136L11.7593 41.5551L13.0414 41.5966L13.0808 44.9461L13.1201 48.2955L13.4472 48.2499L13.7741 48.2044L13.8132 44.5773L13.8523 40.9502H11.8122H9.77184L9.71176 43.6436ZM15.1708 41.2016C15.1733 41.3398 15.2722 41.5785 15.3906 41.7318C15.5089 41.8852 15.6058 42.1276 15.6058 42.2705C15.6058 42.4134 15.6664 42.5303 15.7407 42.5303C15.8149 42.5303 15.919 42.7243 15.9721 42.9613C16.0251 43.1983 16.1293 43.3922 16.2035 43.3922C16.2778 43.3922 16.3384 43.4605 16.3384 43.5438C16.3384 43.6271 16.4795 43.9988 16.6521 44.3697C17.5413 46.2815 17.5146 46.1494 17.1548 46.852C16.8681 47.4119 16.7659 47.4915 16.2822 47.5313C15.8143 47.5698 15.741 47.6219 15.78 47.889C15.836 48.2725 16.2489 48.3677 16.7606 48.1152C17.1677 47.9144 17.6572 47.488 17.6572 47.3343C17.6572 47.2226 18.0364 46.3443 18.3256 45.7867C18.4416 45.563 18.5364 45.3251 18.5364 45.2581C18.5364 45.191 18.7385 44.6953 18.9852 44.1564C20.0505 41.8318 20.2948 41.2619 20.2948 41.1018C20.2948 40.8176 19.7588 40.9492 19.595 41.2734C19.1848 42.085 18.8295 42.965 18.8295 43.1689C18.8295 43.2917 18.7688 43.3922 18.6945 43.3922C18.6204 43.3922 18.516 43.5869 18.4629 43.8246C18.262 44.7213 17.6572 45.529 17.6572 44.9005C17.6572 44.782 17.5966 44.6851 17.5223 44.6851C17.4481 44.6851 17.3439 44.4911 17.2909 44.2541C17.2378 44.0171 17.1408 43.8232 17.0753 43.8232C17.0098 43.8232 16.9118 43.6495 16.8574 43.4372C16.8031 43.2249 16.5329 42.5785 16.2569 42.0007C15.878 41.2074 15.6833 40.9502 15.4607 40.9502C15.2761 40.9502 15.1679 41.044 15.1708 41.2016ZM21.7601 44.6132V48.2762H23.3634C24.2741 48.2762 25.0057 48.2142 25.0571 48.1326C25.107 48.0536 25.273 47.9889 25.4262 47.9889C25.8401 47.9889 26.4284 47.2859 26.5651 46.628C26.7276 45.8462 26.5109 45.0841 25.9859 44.5907C25.5766 44.2063 25.4592 44.1781 23.9854 44.1105L22.4195 44.0386V42.8176V41.5966L24.2878 41.5564C26.0351 41.5188 26.1561 41.4979 26.1561 41.2332C26.1561 40.9643 26.0474 40.9502 23.9581 40.9502H21.7601V44.6132ZM28.5007 44.6132C28.5007 48.1767 28.5086 48.2762 28.7928 48.2762C29.0852 48.2762 29.8344 47.4116 30.1619 46.6961C30.2523 46.4986 30.3647 46.3047 30.4116 46.2652C30.4585 46.2257 30.753 45.7732 31.0662 45.2596C31.3794 44.7461 31.6886 44.3044 31.7532 44.2781C31.818 44.2517 31.8709 44.1719 31.8709 44.1007C31.8709 43.8839 32.7659 42.5303 32.9092 42.5303C32.9857 42.5303 33.0432 43.7634 33.0432 45.4033C33.0432 48.1804 33.053 48.2762 33.3362 48.2762C33.6217 48.2762 33.6293 48.1804 33.6293 44.6132C33.6293 41.2193 33.6104 40.9505 33.3729 40.9534C33.1383 40.9563 32.164 42.2405 32.164 42.5469C32.164 42.6168 32.098 42.674 32.0174 42.674C31.9369 42.674 31.8709 42.7664 31.8709 42.8793C31.8709 42.992 31.7847 43.1699 31.6795 43.2743C31.5743 43.3786 31.4398 43.561 31.3808 43.6795C31.1605 44.1212 30.1027 45.7147 29.9505 45.8342C29.9002 45.8737 29.8082 46.0677 29.7462 46.2652C29.6241 46.6539 29.3901 46.8629 29.2037 46.75C29.1394 46.7111 29.0868 45.3902 29.0868 43.8147C29.0868 41.046 29.077 40.9502 28.7937 40.9502C28.5083 40.9502 28.5007 41.046 28.5007 44.6132ZM35.9738 44.6132C35.9738 48.1804 35.9815 48.2762 36.2669 48.2762C36.5428 48.2762 36.56 48.1804 36.56 46.6397C36.56 45.2799 36.5991 44.9883 36.7918 44.9159C36.9193 44.8679 37.7413 44.8287 38.6188 44.8287H40.2141L40.2552 46.5166C40.2951 48.1435 40.3084 48.2061 40.6263 48.2504L40.956 48.2962V44.6233V40.9502H40.5896H40.2233V42.6022V44.2541H38.3916H36.56V42.6022C36.56 41.046 36.543 40.9502 36.2669 40.9502C35.9815 40.9502 35.9738 41.046 35.9738 44.6132ZM43.1881 44.5773L43.2272 48.2044H43.5935H43.9599V46.5819C43.9599 44.6714 43.8122 44.7955 46.0113 44.8586L47.4767 44.9005L47.5499 46.5525C47.6179 48.0848 47.6444 48.2044 47.9163 48.2044C48.2005 48.2044 48.2105 48.0958 48.2485 44.567L48.2877 40.9295L47.9554 40.9758C47.6355 41.0203 47.6217 41.082 47.5817 42.6381L47.5403 44.2541H45.7867H44.0331L44.0207 43.8591C44.0138 43.6417 44.0128 43.0116 44.0185 42.4585C44.0315 41.175 43.9555 40.9502 43.5078 40.9502H43.149L43.1881 44.5773ZM52.239 41.1493C52.239 41.2588 52.1405 41.5334 52.0201 41.7598C51.8998 41.9861 51.8009 42.2805 51.8003 42.4141C51.7998 42.5477 51.7334 42.697 51.6529 42.7458C51.5723 42.7947 51.5059 42.9439 51.5054 43.0775C51.5049 43.2111 51.4059 43.5056 51.2856 43.7318C51.1652 43.9582 51.0667 44.207 51.0667 44.2847C51.0667 44.3626 50.9622 44.6622 50.8348 44.9507C50.7071 45.2391 50.5093 45.6874 50.3952 45.9468C50.2809 46.2063 50.1875 46.5062 50.1875 46.6135C50.1875 46.7207 50.0602 47.0873 49.9044 47.4283C49.5999 48.0949 49.6234 48.2762 50.0139 48.2762C50.2519 48.2762 50.4785 47.9005 50.7071 47.1271C50.7654 46.9295 50.8866 46.7204 50.9766 46.6624C51.0664 46.6043 51.8417 46.5559 52.6995 46.5546C54.3475 46.5523 54.437 46.5898 54.437 47.2825C54.437 47.434 54.5029 47.558 54.5835 47.558C54.6641 47.558 54.73 47.6893 54.73 47.8497C54.73 48.1777 55.0499 48.3519 55.406 48.2181C55.5745 48.1547 55.5993 48.0781 55.4923 47.9513C55.4098 47.8535 55.2962 47.5311 55.2397 47.2348C55.1833 46.9386 55.0784 46.6961 55.0068 46.6961C54.9352 46.6961 54.8766 46.5928 54.8766 46.4664C54.8766 46.3402 54.7838 46.033 54.6706 45.7841C54.5573 45.5352 54.3514 45.0083 54.2132 44.6132C54.0749 44.2182 53.8708 43.6913 53.7597 43.4424C53.6486 43.1934 53.5578 42.8902 53.5578 42.7685C53.5578 42.6468 53.4918 42.5074 53.4113 42.4585C53.3307 42.4097 53.2647 42.2702 53.2647 42.1485C53.2647 41.7039 52.7933 40.9502 52.5153 40.9502C52.3634 40.9502 52.239 41.0399 52.239 41.1493ZM58.1853 41.0753C58.1419 41.1441 57.9094 41.2391 57.6685 41.2862C57.0546 41.4066 56.4884 42.3123 56.4884 43.1739C56.4884 43.531 56.5472 43.8232 56.6191 43.8232C56.6909 43.8232 56.7874 43.9703 56.8334 44.15C56.8794 44.3298 57.1815 44.6368 57.5048 44.8323C58.0673 45.1726 58.2534 45.4033 57.9653 45.4033C57.8912 45.4033 57.787 45.5972 57.734 45.8342C57.6809 46.0712 57.5932 46.2665 57.5392 46.2682C57.4852 46.2698 57.2761 46.624 57.0746 47.0552C56.8731 47.4865 56.6589 47.8407 56.5983 47.8423C56.5378 47.844 56.4884 47.9423 56.4884 48.0608C56.4884 48.1951 56.6271 48.2762 56.8567 48.2762C57.1522 48.2762 57.2895 48.1416 57.5527 47.5939C57.7329 47.2187 57.9135 46.8793 57.9538 46.8398C57.9941 46.8003 58.1557 46.5094 58.3128 46.1933C58.8035 45.2069 58.9354 45.116 59.8764 45.116H60.7279L60.7695 46.6602C60.8094 48.138 60.8254 48.2064 61.1409 48.2504L61.4706 48.2962V44.6233V40.9502H59.8673C58.9855 40.9502 58.2287 41.0065 58.1853 41.0753ZM66.3894 41.2734C66.3516 41.4511 66.3338 43.0834 66.35 44.9005L66.3794 48.2044L67.8579 48.2451C70.0284 48.3048 70.735 47.9639 71.2175 46.6243C71.4197 46.0628 71.1264 45.0367 70.622 44.5414C70.2889 44.2145 70.1153 44.1758 68.6841 44.1105L67.1121 44.0386V42.8176V41.5966L68.9804 41.5564C70.7276 41.5188 70.8487 41.4979 70.8487 41.2332C70.8487 40.9643 70.7399 40.9502 68.6535 40.9502C66.495 40.9502 66.4571 40.9557 66.3894 41.2734ZM74.8581 41.2016C74.8117 41.3398 74.6818 41.6567 74.5696 41.9056C74.4573 42.1546 74.3655 42.4219 74.3655 42.4997C74.3655 42.5775 74.267 42.8263 74.1465 43.0526C74.0262 43.2789 73.9273 43.5663 73.9267 43.6914C73.9263 43.8166 73.8813 43.9625 73.827 44.0159C73.7726 44.0692 73.5532 44.6289 73.3397 45.2596C73.1262 45.8904 72.9069 46.4501 72.8525 46.5033C72.7981 46.5568 72.7532 46.7027 72.7527 46.8278C72.7521 46.953 72.6532 47.2404 72.5329 47.4666C72.2409 48.0155 72.2569 48.2762 72.5823 48.2762C72.8452 48.2762 72.9077 48.1844 73.3903 47.0911L73.6281 46.5525H75.2469C76.6597 46.5525 76.8762 46.5845 76.9477 46.8038C77.0451 47.1025 77.2872 47.6877 77.438 47.9889C77.5902 48.2929 78.1753 48.3578 78.1753 48.0708C78.1753 47.9467 78.1169 47.8453 78.0455 47.8453C77.974 47.8453 77.871 47.5544 77.8166 47.1989C77.7622 46.8434 77.6559 46.5525 77.5802 46.5525C77.5045 46.5525 77.4422 46.4393 77.4418 46.3011C77.4412 46.1629 77.3423 45.8645 77.222 45.6383C77.1015 45.4119 77.0031 45.1308 77.0031 45.0136C77.0031 44.8962 76.8986 44.5642 76.7711 44.2758C76.6435 43.9874 76.4456 43.539 76.3315 43.2796C76.2172 43.0202 76.1239 42.6807 76.1239 42.5255C76.1239 42.3702 76.0632 42.243 75.9889 42.243C75.9147 42.243 75.8082 42.033 75.7522 41.7762C75.5799 40.9864 75.0455 40.643 74.8581 41.2016ZM79.5283 44.5773C79.5663 48.1053 79.5756 48.2056 79.8666 48.2464C80.0877 48.2774 80.2578 48.1273 80.5178 47.6718C80.7114 47.3328 80.9559 46.9698 81.0611 46.8655C81.1663 46.761 81.2525 46.5832 81.2525 46.4704C81.2525 46.3575 81.3035 46.2652 81.3658 46.2652C81.4281 46.2652 81.6087 46.0228 81.7673 45.7265C81.9258 45.4303 82.0927 45.1555 82.138 45.116C82.1834 45.0765 82.3783 44.7856 82.5713 44.4696C82.7643 44.1536 82.9662 43.8627 83.02 43.8232C83.0739 43.7837 83.1642 43.6058 83.2209 43.4281C83.2774 43.2504 83.3851 43.1049 83.4603 43.1049C83.5355 43.1049 83.597 43.0159 83.597 42.907C83.597 42.7982 83.6959 42.6287 83.8168 42.5303C84.011 42.3723 84.0366 42.6981 84.0366 45.3239V48.2962L84.3663 48.2504L84.696 48.2044L84.7299 44.9005C84.7486 43.0834 84.7309 41.4511 84.6905 41.2734C84.5759 40.7679 84.1473 40.8918 83.7436 41.5469C83.5421 41.874 83.261 42.3098 83.119 42.5155C82.9771 42.7211 82.821 43.0027 82.7723 43.1408C82.7235 43.279 82.6254 43.3922 82.5542 43.3922C82.4831 43.3922 82.4248 43.4513 82.4248 43.5234C82.4248 43.6371 81.6288 44.9149 81.296 45.3353C81.2318 45.4165 81.0529 45.7246 80.8986 46.0198C80.2691 47.2237 80.2268 47.0909 80.2268 43.9125V40.9502H79.8579H79.4891L79.5283 44.5773ZM86.9673 44.6233V48.2962L87.297 48.2504C87.6178 48.2057 87.6279 48.1524 87.6677 46.2793L87.7087 44.3541L88.4004 45.0805C89.1964 45.9164 90.5798 47.4576 90.971 47.9441C91.2373 48.2754 91.9494 48.4098 91.9494 48.1288C91.9494 48.0477 91.5823 47.6034 91.1337 47.1414C90.685 46.6794 90.2115 46.1527 90.0816 45.9708C89.9517 45.789 89.5935 45.4006 89.2856 45.1077C88.9776 44.8146 88.7257 44.5359 88.7257 44.488C88.7257 44.3366 89.4425 43.5209 90.762 42.1712C91.8525 41.0557 91.9122 40.9502 91.4532 40.9502C91.206 40.9502 90.8806 41.1663 90.4555 41.6123C90.1085 41.9764 89.6269 42.4817 89.3851 42.7349C89.1433 42.9882 88.7524 43.4336 88.5161 43.7248C87.8002 44.6075 87.7 44.4696 87.7 42.6022V40.9502H87.3336H86.9673V44.6233ZM95.0619 41.2355C94.9618 41.3925 94.8801 41.5928 94.8801 41.6807C94.8801 41.7686 94.7872 42.0442 94.6735 42.2932C94.5599 42.5421 94.2552 43.3276 93.9965 44.0386C93.7378 44.7497 93.4351 45.5352 93.3239 45.7841C93.2127 46.033 93.1217 46.3402 93.1217 46.4664C93.1217 46.5928 93.0557 46.6961 92.9751 46.6961C92.8945 46.6961 92.8282 46.8416 92.8277 47.0193C92.8271 47.197 92.7282 47.5277 92.6079 47.7539C92.3263 48.2834 92.3241 48.2762 92.7599 48.2762C92.9842 48.2762 93.1633 48.1768 93.2128 48.0248C93.2579 47.8867 93.3506 47.6442 93.4188 47.4862C93.487 47.3282 93.5844 47.0534 93.6353 46.8757C93.7236 46.5661 93.7937 46.5526 95.2929 46.5546C96.1539 46.5559 96.9318 46.6043 97.0216 46.6624C97.1116 46.7204 97.2328 46.9295 97.2911 47.1271C97.5218 47.9072 97.747 48.2762 97.993 48.2762C98.1401 48.2762 98.2506 48.1685 98.2511 48.0248C98.2519 47.7262 97.7822 46.3683 97.6422 46.2649C97.5884 46.2251 97.4982 45.9504 97.4415 45.6544C97.3849 45.3582 97.2839 45.116 97.2173 45.116C97.1506 45.116 97.0515 44.8251 96.9972 44.4696C96.9428 44.1141 96.8398 43.8232 96.7683 43.8232C96.6969 43.8232 96.638 43.71 96.6376 43.5718C96.637 43.4336 96.5483 43.1545 96.4404 42.9517C96.3325 42.749 96.1973 42.3934 96.14 42.1616C95.8539 41.0032 95.4376 40.6457 95.0619 41.2355ZM100.553 43.2845C100.472 46.628 100.25 47.3435 99.2293 47.5481C98.8979 47.6146 98.7632 47.7223 98.7632 47.921C98.7632 48.288 99.1786 48.3548 99.7612 48.0813C100.873 47.5593 101.181 46.6003 101.181 43.6534V41.5248H102.397C103.148 41.5248 103.681 41.5908 103.789 41.6972C103.916 41.821 103.965 42.773 103.965 45.0729C103.965 48.1804 103.974 48.2762 104.258 48.2762C104.544 48.2762 104.551 48.1804 104.551 44.6132V40.9502H102.58H100.608L100.553 43.2845ZM106.896 44.6132V48.2762H108.305C110.252 48.2762 111.012 48.0043 111.446 47.1528C111.896 46.2686 111.774 45.2352 111.146 44.6193C110.717 44.1987 110.641 44.1796 109.128 44.1105L107.555 44.0386L107.514 42.4944C107.475 41.0687 107.45 40.9502 107.184 40.9502C106.905 40.9502 106.896 41.067 106.896 44.6132ZM114.394 41.3092C113.232 41.9602 113.207 42.0283 113.202 44.5193C113.196 47.0116 113.299 47.3468 114.212 47.8006C114.5 47.9437 114.757 48.1092 114.784 48.1685C114.864 48.3452 116.252 48.2905 116.606 48.0967C117.15 47.7985 117.738 47.2312 117.965 46.7855C118.238 46.2489 118.242 46.2652 117.822 46.2652C117.597 46.2652 117.432 46.3687 117.375 46.5461C117.325 46.7007 117.085 46.9916 116.841 47.1926C116.489 47.4829 116.239 47.558 115.626 47.558C114.81 47.558 114.297 47.2641 113.947 46.5979C113.739 46.1995 113.722 42.674 113.929 42.674C114.01 42.674 114.076 42.5803 114.076 42.4659C114.076 42.0948 115.008 41.5248 115.614 41.5248C116.255 41.5248 117.091 42.0646 117.305 42.6162C117.398 42.8548 117.553 42.9613 117.809 42.9613C118.237 42.9613 118.237 42.9604 117.996 42.5064C117.21 41.0297 115.755 40.5463 114.394 41.3092ZM120.009 41.2734C119.964 41.4511 119.946 43.0834 119.969 44.9005L120.01 48.2044H120.377H120.743L120.784 46.3729C120.808 45.3129 120.885 44.5414 120.967 44.5414C121.045 44.5414 121.109 44.5954 121.109 44.6614C121.109 44.7274 121.406 45.0763 121.769 45.437C122.132 45.7976 122.428 46.1362 122.428 46.1892C122.428 46.2423 122.511 46.3712 122.611 46.4755C124.091 48.009 124.404 48.2762 124.718 48.2762C125.096 48.2762 125.179 48.0715 124.875 47.8884C124.771 47.8252 124.229 47.2563 123.672 46.6243C123.116 45.9922 122.443 45.2736 122.178 45.0272C121.913 44.7809 121.696 44.5298 121.696 44.4692C121.696 44.4085 121.86 44.2091 122.062 44.026C122.263 43.843 122.43 43.6417 122.432 43.5787C122.435 43.5156 122.994 42.9146 123.676 42.243C124.863 41.0746 124.899 41.0199 124.52 40.9736C124.113 40.9239 123.581 41.4019 121.696 43.5129C121.333 43.919 120.963 44.2518 120.873 44.2527C120.761 44.2537 120.73 43.8484 120.774 42.9433C120.81 42.2224 120.8 41.479 120.752 41.2914C120.637 40.8432 120.119 40.8307 120.009 41.2734ZM128.143 41.1657C128.143 41.2842 128.077 41.3812 127.997 41.3812C127.916 41.3812 127.85 41.5168 127.85 41.6827C127.85 41.8484 127.76 42.1879 127.65 42.4368C127.54 42.6858 127.334 43.1803 127.193 43.5359C127.052 43.8914 126.88 44.3116 126.812 44.4696C126.612 44.9314 125.925 46.8639 125.751 47.4503C125.663 47.7466 125.539 47.9889 125.475 47.9889C125.411 47.9889 125.359 48.0536 125.359 48.1326C125.359 48.2116 125.557 48.2762 125.799 48.2762C126.17 48.2762 126.238 48.2204 126.238 47.9171C126.238 47.7196 126.29 47.558 126.354 47.558C126.418 47.558 126.534 47.348 126.611 47.0911L126.751 46.6243L128.4 46.5836L130.05 46.543L130.211 46.9428C130.3 47.1627 130.431 47.4547 130.503 47.5919C130.575 47.7291 130.634 47.9392 130.634 48.0588C130.634 48.1965 130.772 48.2762 131.01 48.2762C131.33 48.2762 131.373 48.2275 131.295 47.953C131.184 47.5619 130.797 46.5693 130.629 46.2469C130.562 46.1184 130.463 45.7791 130.408 45.4928C130.353 45.2065 130.256 44.9723 130.191 44.9723C130.127 44.9723 130.029 44.7138 129.975 44.3978C129.92 44.0817 129.816 43.8232 129.742 43.8232C129.668 43.8232 129.608 43.6777 129.607 43.5C129.607 43.3223 129.51 42.9962 129.393 42.7757C129.276 42.5551 129.137 42.1511 129.085 41.8779C129.032 41.6047 128.931 41.3812 128.859 41.3812C128.788 41.3812 128.729 41.2842 128.729 41.1657C128.729 41.046 128.599 40.9502 128.436 40.9502C128.273 40.9502 128.143 41.046 128.143 41.1657ZM133.717 41.1638C132.907 41.4507 132.393 42.1676 132.393 43.0107C132.393 43.8749 132.771 44.5299 133.488 44.9087C133.962 45.1592 134.161 45.4017 133.894 45.4044C133.834 45.405 133.715 45.5505 133.629 45.7276C133.544 45.9048 133.216 46.5153 132.902 47.0843C132.587 47.6534 132.374 48.162 132.428 48.2148C132.481 48.2676 132.677 48.2698 132.862 48.2198C133.098 48.156 133.352 47.8177 133.711 47.0893C133.993 46.5174 134.258 46.0174 134.3 45.9779C134.342 45.9384 134.456 45.7284 134.554 45.511C134.721 45.1383 134.785 45.116 135.686 45.116H136.642V46.7062C136.642 48.2729 136.647 48.2955 136.972 48.2504L137.301 48.2044L137.34 44.5773L137.38 40.9502L135.802 40.9673C134.934 40.9768 133.996 41.0651 133.717 41.1638ZM142.098 44.5773L142.137 48.2044L143.601 48.2459C146.136 48.3179 147.064 47.8161 147.077 46.3656C147.082 45.7706 147.004 45.4613 146.762 45.1286C146.585 44.8847 146.378 44.6851 146.303 44.6851C146.228 44.6851 146.167 44.5881 146.167 44.4696C146.167 44.3511 146.249 44.2537 146.35 44.2533C146.638 44.2518 147.046 43.4224 147.046 42.8388C147.046 42.2245 146.322 41.2375 145.871 41.2375C145.721 41.2375 145.557 41.1729 145.507 41.0939C145.455 41.0116 144.699 40.9502 143.738 40.9502H142.059L142.098 44.5773ZM150.343 41.1648C150.101 41.2701 149.705 41.5599 149.464 41.8091L149.024 42.2619V44.6132V46.9646L149.464 47.4166C150.284 48.2604 151.504 48.5097 152.482 48.0333C153.062 47.7506 153.195 47.6336 153.572 47.0679C153.814 46.7057 153.852 46.3689 153.854 44.554C153.858 42.5549 153.842 42.437 153.501 41.9912C152.811 41.087 151.382 40.7131 150.343 41.1648ZM156.525 42.9254C156.457 44.9175 156.224 46.5506 155.989 46.6934C155.919 46.7359 155.816 46.9479 155.76 47.1644C155.686 47.4562 155.569 47.558 155.309 47.558C154.967 47.558 154.959 47.5872 154.959 48.779C154.959 49.9042 154.982 50 155.252 50C155.512 50 155.545 49.9042 155.545 49.1381V48.2762H158.109H160.673V49.1381C160.673 49.9042 160.706 50 160.966 50C161.236 50 161.259 49.9042 161.259 48.779V47.558H160.82H160.38V44.2541V40.9502H158.486H156.593L156.525 42.9254ZM164.547 41.4546C164.493 41.732 164.391 41.9944 164.32 42.0376C164.249 42.0809 164.19 42.2257 164.189 42.3593C164.189 42.4929 164.09 42.7873 163.969 43.0136C163.849 43.24 163.751 43.4888 163.751 43.5665C163.751 43.6443 163.661 43.9117 163.551 44.1606C163.069 45.2571 162.973 45.4998 162.865 45.9061C162.712 46.4809 162.38 47.325 162.271 47.4143C162.223 47.4539 162.138 47.6685 162.083 47.8913C161.989 48.2668 162.01 48.293 162.377 48.2504C162.694 48.2136 162.812 48.0889 162.965 47.6298C163.355 46.4579 163.178 46.5525 164.979 46.5525H166.612L166.866 47.1281C167.006 47.4447 167.121 47.8325 167.121 47.9899C167.121 48.2137 167.219 48.2762 167.57 48.2762C167.969 48.2762 168.008 48.2395 167.919 47.953C167.863 47.7753 167.766 47.5652 167.702 47.4862C167.639 47.4072 167.54 47.1002 167.484 46.8038C167.427 46.5076 167.323 46.2652 167.251 46.2652C167.179 46.2652 167.121 46.1074 167.121 45.9145C167.121 45.7216 167.06 45.527 166.986 45.482C166.911 45.4369 166.806 45.2025 166.752 44.961C166.698 44.7195 166.561 44.3486 166.449 44.1367C166.336 43.9247 166.243 43.6512 166.242 43.5287C166.242 43.4062 166.19 43.2446 166.126 43.1696C166.062 43.0946 165.85 42.5644 165.655 41.9917C165.355 41.1123 165.249 40.9502 164.971 40.9502C164.712 40.9502 164.623 41.0561 164.547 41.4546ZM60.7379 43.0177C60.7379 44.1309 60.6881 44.5293 60.5421 44.5844C60.4344 44.6249 59.8462 44.6387 59.2349 44.615C57.9341 44.5645 57.4412 44.2962 57.297 43.5597C57.1553 42.8366 57.3391 42.286 57.8552 41.8874C58.2654 41.5702 58.4624 41.5278 59.529 41.5264L60.7379 41.5248V43.0177ZM136.642 43.0141V44.5036L136.077 44.5779C135.134 44.7019 133.856 44.5601 133.593 44.3027C133.271 43.9866 132.979 43.4171 132.979 43.1049C132.979 42.6802 133.384 42.0417 133.816 41.7867C134.105 41.6162 134.577 41.5428 135.433 41.5353L136.642 41.5248V43.0141ZM145.434 41.6517C145.434 41.7215 145.567 41.8125 145.728 41.8541C146.169 41.967 146.464 42.7618 146.27 43.3103C145.998 44.0763 145.788 44.178 144.364 44.2331C143.376 44.2715 143.021 44.236 142.927 44.0895C142.783 43.867 142.751 42.0939 142.885 41.7521C142.957 41.5698 143.218 41.5248 144.204 41.5248C144.88 41.5248 145.434 41.582 145.434 41.6517ZM152.614 42.0994L153.2 42.674V44.6009V46.5278L152.69 47.0429C152.231 47.5061 152.101 47.558 151.404 47.558C149.939 47.558 149.537 46.9183 149.537 44.5915C149.537 42.8807 149.765 42.1501 150.379 41.8858C150.561 41.8078 150.709 41.6946 150.709 41.6344C150.709 41.5741 151.006 41.5248 151.369 41.5248C151.942 41.5248 152.104 41.5994 152.614 42.0994ZM159.648 44.5414V47.558H158.02C156.591 47.558 156.404 47.53 156.482 47.3292C156.531 47.2033 156.615 46.9287 156.667 46.7187C156.719 46.5088 156.822 46.2985 156.895 46.2514C156.968 46.2044 157.062 45.2025 157.104 44.0248C157.146 42.8474 157.206 41.8032 157.237 41.7044C157.276 41.5803 157.657 41.5248 158.471 41.5248H159.648V44.5414ZM165.207 42.5303C165.258 42.5698 165.427 42.99 165.582 43.4641C165.737 43.9381 165.906 44.3906 165.959 44.4696C166.012 44.5486 166.1 44.8072 166.155 45.0442C166.21 45.2812 166.29 45.5883 166.332 45.7265C166.4 45.9535 166.273 45.9779 165.021 45.9779H163.635L163.753 45.511C163.867 45.0598 164.024 44.5941 164.419 43.5359C164.827 42.444 164.998 42.1049 165.054 42.2778C165.087 42.3772 165.155 42.4908 165.207 42.5303ZM52.9843 42.9708C53.112 43.3211 53.2934 43.7897 53.3872 44.0121C53.481 44.2344 53.5578 44.5018 53.5578 44.6062C53.5578 44.7105 53.6562 44.981 53.7767 45.2074C54.1681 45.943 54.1152 45.9779 52.6053 45.9779C51.6022 45.9779 51.2133 45.9286 51.2133 45.8013C51.2133 45.6149 51.8807 43.7623 52.0829 43.3875C52.1483 43.2664 52.2491 42.956 52.307 42.6976C52.4452 42.081 52.6966 42.1824 52.9843 42.9708ZM75.6028 42.8862C75.6568 43.2398 75.7634 43.5668 75.8393 43.6129C75.9152 43.6588 75.9778 43.8058 75.9782 43.9394C75.9788 44.073 76.0752 44.3629 76.1926 44.5834C76.31 44.804 76.4487 45.2079 76.501 45.4811L76.5961 45.9779H75.248H73.9001L74.0042 45.3674C74.0614 45.0317 74.1602 44.7244 74.2235 44.6848C74.2868 44.645 74.3851 44.3696 74.4419 44.0727C74.4986 43.7756 74.598 43.5008 74.6623 43.4618C74.7268 43.4227 74.8241 43.1325 74.8785 42.8169C74.951 42.3962 75.0477 42.243 75.2408 42.243C75.4407 42.243 75.5282 42.3986 75.6028 42.8862ZM95.6136 42.4226C95.6142 42.5214 95.7068 42.7755 95.8196 42.9876C95.9325 43.1995 96.0717 43.5873 96.129 43.8495C96.1864 44.1115 96.2745 44.3906 96.3249 44.4696C96.4686 44.6954 96.7803 45.5998 96.7828 45.7983C96.7844 45.9295 96.41 45.9779 95.3929 45.9779C93.8866 45.9779 93.8307 45.9418 94.2161 45.2177C94.3335 44.9971 94.4723 44.5931 94.5246 44.3199C94.5769 44.0467 94.6783 43.8232 94.7498 43.8232C94.8215 43.8232 94.8801 43.6876 94.8801 43.5217C94.8801 43.148 95.3068 42.243 95.4829 42.243C95.5543 42.243 95.6132 42.3239 95.6136 42.4226ZM128.678 42.674C128.726 42.911 128.824 43.1049 128.894 43.1049C128.965 43.1049 129.022 43.2247 129.022 43.3711C129.022 43.5961 129.438 44.8136 129.826 45.7265C129.923 45.9558 129.809 45.9779 128.525 45.9779H127.117V45.5469C127.117 45.3099 127.177 45.116 127.251 45.116C127.325 45.116 127.429 44.8577 127.483 44.5421C127.538 44.2265 127.637 43.9354 127.703 43.895C127.77 43.8546 127.869 43.5635 127.923 43.2479C127.978 42.9323 128.082 42.674 128.156 42.674C128.229 42.674 128.29 42.577 128.29 42.4585C128.29 42.0684 128.588 42.234 128.678 42.674ZM25.6302 45.1271C26.0798 45.6507 26.1259 46.3305 25.7551 46.9639C25.4424 47.4981 25.2434 47.5535 23.6284 47.556L22.3463 47.558V46.1215V44.6851H23.7986C25.2404 44.6851 25.2536 44.6882 25.6302 45.1271ZM70.1963 45.0651C70.75 45.6509 70.7295 46.5612 70.1491 47.163C69.7866 47.5389 69.702 47.558 68.4035 47.558H67.0388V46.1215V44.6851H68.4379C69.7626 44.6851 69.856 44.7053 70.1963 45.0651ZM110.435 44.8402C110.753 45.0073 111.145 45.7885 111.145 46.2555C111.145 46.4134 110.941 46.771 110.69 47.0502L110.236 47.558H108.859H107.482V46.1215V44.6851H108.81C109.541 44.6851 110.272 44.7549 110.435 44.8402ZM145.764 45.0083C146.535 45.3644 146.689 46.4072 146.076 47.121L145.692 47.5681L144.281 47.5271L142.87 47.4862L142.826 46.3496C142.803 45.7246 142.817 45.1268 142.858 45.0209C142.958 44.7674 145.221 44.7575 145.764 45.0083Z" fill="white"/>
</svg>
