<svg width="186" height="36" viewBox="0 0 186 36" fill="none" xmlns="http://www.w3.org/2000/svg">
<path fill-rule="evenodd" clip-rule="evenodd" d="M0 17.6754V35.3506L7.9727 35.2739C16.7196 35.1897 16.8813 35.1707 19.4782 33.9339C21.1448 33.1402 22.922 31.3517 23.6968 29.6889C24.0176 29.0001 24.4093 27.7203 24.5668 26.8452C25.3511 22.4913 23.8807 18.9364 20.4884 16.9845C19.9852 16.6952 19.5527 16.4455 19.5271 16.4298C19.5015 16.414 19.8657 15.9972 20.3364 15.5037C22.2508 13.497 23.2415 10.0368 22.7347 7.12779C22.1427 3.7302 20.0801 1.59627 16.3273 0.498523C15.3467 0.21157 14.0871 0.151532 7.59078 0.0817123L0 0V17.6754ZM38.5888 0.239192C36.2295 0.704147 34.3848 1.62313 32.9829 3.03199C31.895 4.12514 31.313 5.0798 30.7147 6.75145C30.2772 7.97388 30.2703 8.11965 30.2101 17.2995C30.142 27.7391 30.1979 28.3682 31.4124 30.8471C32.5491 33.1665 34.7658 34.8314 37.8107 35.6527C39.5431 36.12 44.0872 36.1089 45.8311 35.6332C49.7407 34.5667 52.1927 32.1376 53.1131 28.4191C53.3161 27.5989 53.3741 25.2724 53.3741 17.9652C53.3741 7.56435 53.3528 7.34588 52.1063 4.99674C50.917 2.75559 48.3083 0.950436 45.3482 0.320521C43.8946 0.0113173 39.9844 -0.035677 38.5888 0.239192ZM117.442 0.317643C115.72 0.704914 113.31 1.94671 112.346 2.94376C111.197 4.13204 110.278 5.77512 109.871 7.37158C109.55 8.62796 109.517 9.63172 109.517 18.0612C109.517 26.379 109.553 27.4961 109.857 28.6109C110.863 32.3092 113.176 34.565 117.06 35.6372C118.789 36.1144 123.329 36.1225 125.081 35.6516C126.891 35.1648 128.554 34.2874 129.755 33.1853C131.051 31.9951 132.235 29.7109 132.524 27.8436C132.633 27.1399 132.716 22.7959 132.714 17.8693C132.713 10.914 132.655 8.86926 132.431 7.79913C131.674 4.19573 129.428 1.77523 125.749 0.599225C124.008 0.0427745 119.365 -0.114513 117.442 0.317643ZM60.1056 0.71719C60.0267 0.796793 59.9624 8.61587 59.9624 18.0932V35.3244H63.3997H66.837V28.8927V22.461L69.1746 22.5149L71.5124 22.5688L74.28 28.9466L77.0478 35.3244H81.0135H84.9795L81.4352 28.2064C79.4858 24.2914 77.9175 21.0655 77.9497 21.0377C77.982 21.0099 78.3011 20.8375 78.659 20.6545C80.2636 19.8341 81.7608 17.9566 82.5315 15.7981C83.0253 14.4148 83.2333 10.0946 82.8869 8.41812C82.1463 4.83466 79.2097 1.94556 75.3349 0.988606C74.2561 0.721986 60.346 0.474162 60.1056 0.71719ZM139.594 17.9603V35.3244H142.934H146.274L146.324 24.4639L146.373 13.6034L150.715 20.7715C153.103 24.7138 155.234 28.2284 155.45 28.5815L155.843 29.2235L160.37 21.4906L164.896 13.7578L164.946 24.541L164.995 35.3244H168.335H171.676V18.0612V0.797944H168.651H165.627L160.774 9.2291C158.105 13.8664 155.878 17.6635 155.826 17.6676C155.773 17.6714 155.528 17.3085 155.28 16.8608C153.926 14.4111 146.728 2.46384 146.119 1.6542L145.403 0.702037L142.498 0.649096L139.594 0.596156V17.9603ZM179.123 17.9608V35.3244H182.562H186L185.951 18.0132L185.902 0.702037L182.513 0.649672L179.123 0.597307V17.9608ZM91.4712 3.48333V6.16872H94.0492H96.6273L96.6238 14.7524C96.6219 19.4735 96.5398 24.1067 96.4411 25.0487C96.2024 27.3286 95.6925 28.3337 94.4487 28.9767C93.5871 29.4221 93.3582 29.4508 90.9662 29.4152L88.4059 29.3768L88.4586 32.3027L88.5113 35.2285L89.6571 35.4757C91.0956 35.7861 94.7438 35.6439 96.3408 35.2154C100.438 34.1157 102.493 31.5756 103.224 26.7077C103.442 25.2561 103.5 22.3443 103.501 12.8342L103.502 0.797944H97.4866H91.4712V3.48333ZM14.0717 5.71911C14.4383 5.89385 14.9398 6.34711 15.1861 6.72613C16.128 8.17605 16.1765 11.1327 15.282 12.5864C14.5989 13.6966 14.0174 13.8413 10.2354 13.8413H6.87467V9.62136V5.40147H10.1399C12.7836 5.40147 13.532 5.46189 14.0717 5.71911ZM44.0597 6.26674C45.1849 6.60222 46.0826 7.49952 46.4059 8.61108C46.5495 9.105 46.5974 12.2227 46.5577 18.459L46.4995 27.5843L45.9869 28.3621C45.0504 29.7831 42.6294 30.4607 40.2563 29.9659C38.8661 29.6758 38.0274 29.1012 37.4287 28.028L36.9513 27.1723L36.8927 18.6719C36.8518 12.7575 36.9013 9.84597 37.0552 9.10097C37.3212 7.81371 38.2747 6.67702 39.4338 6.2652C40.4475 5.90498 42.85 5.90574 44.0597 6.26674ZM123.415 6.27978C124.619 6.6916 125.552 7.75809 125.824 9.03307C126.101 10.329 126.105 25.8693 125.829 27.0725C125.563 28.2332 124.825 29.1489 123.765 29.6359C123.07 29.9549 122.503 30.0411 121.071 30.0449C118.849 30.0505 117.715 29.5928 116.904 28.3621L116.392 27.5845L116.337 18.3107C116.285 9.5197 116.302 8.99375 116.649 8.20539C117.059 7.27299 117.969 6.4879 118.97 6.20229C120.03 5.8998 122.427 5.94161 123.415 6.27978ZM73.9981 6.5324C75.5497 7.254 76.3369 8.58499 76.5217 10.7999C76.6817 12.7176 76.1917 14.4054 75.1634 15.4784C74.0464 16.6435 73.0049 16.9103 69.5712 16.9103H66.837V11.5395V6.16872L70.0357 6.17294C72.7408 6.17658 73.3521 6.23202 73.9981 6.5324ZM15.2268 19.8642C16.1387 20.2547 17.0891 21.246 17.531 22.267C17.7259 22.7176 17.8323 23.5767 17.8413 24.7746C17.8535 26.4014 17.7972 26.7152 17.3158 27.7C16.8974 28.5558 16.5762 28.9214 15.8835 29.3304C14.9963 29.8544 14.9648 29.8581 10.9326 29.9193L6.87467 29.9808V24.6751V19.3691L10.6462 19.4434C13.7415 19.5044 14.5628 19.5797 15.2268 19.8642Z" fill="white"/>
</svg>
